<?xml version="1.0" standalone="no"?>
<!DOCTYPE svg PUBLIC "-//W3C//DTD SVG 1.1//EN" "http://www.w3.org/Graphics/SVG/1.1/DTD/svg11.dtd" >
<svg xmlns="http://www.w3.org/2000/svg">
<metadata></metadata>
<defs>
<font id="american_purpose_stripe_1Rg" horiz-adv-x="1583" >
<font-face units-per-em="2048" ascent="1536" descent="-512" />
<missing-glyph horiz-adv-x="409" />
<glyph horiz-adv-x="2048" />
<glyph horiz-adv-x="2048" />
<glyph unicode="&#xd;" horiz-adv-x="409" />
<glyph unicode=" "  horiz-adv-x="409" />
<glyph unicode="&#x09;" horiz-adv-x="409" />
<glyph unicode="&#xa0;" horiz-adv-x="409" />
<glyph unicode="!" horiz-adv-x="477" d="M2 1331q-2 27 4 68t30.5 80t74 67.5t133.5 28.5t132 -28.5t72.5 -67.5t30.5 -80t6 -66q-4 -154 -18 -276.5t-31 -235.5q-14 -102 -26.5 -205.5t-16.5 -242.5h-98q78 -18 129 -81t51 -145q0 -47 -18.5 -89t-49 -74.5t-72.5 -51t-91 -18.5t-91 18.5t-73 51t-49.5 74.5 t-18.5 89q0 82 50.5 144.5t127.5 81.5h-100q-2 141 -13 245.5t-26 202.5q-16 111 -30.5 235t-18.5 275z" />
<glyph unicode="&#x22;" horiz-adv-x="671" d="M-4 1569h680l-43 -721h-260l-35 590l-39 -590h-258z" />
<glyph unicode="#" d="M68 731q0 150 56 282t154.5 230t230.5 155.5t282 57.5t281.5 -57.5t230 -155.5t156 -230t57.5 -282t-57.5 -282t-156 -230t-230 -155.5t-281.5 -57.5t-282 57.5t-230.5 155.5t-154.5 230.5t-56 281.5zM164 731q0 -129 49 -242.5t135 -199.5t200 -135.5t243 -49.5 q131 0 244.5 49.5t197.5 135.5t133 199.5t49 242.5t-49 242.5t-133 198.5t-197.5 134.5t-244.5 49.5q-129 0 -243 -49.5t-200 -134.5t-135 -198.5t-49 -242.5zM207 731q0 119 46 224.5t126 184.5t185.5 124t226.5 45q119 0 225 -45t185 -124t125 -184.5t46 -224.5 q0 -121 -46 -227.5t-125 -185t-185 -125t-225 -46.5q-121 0 -226.5 46.5t-185.5 125t-126 185t-46 227.5zM330 664l112 -177q346 -80 699 0l110 177h-921zM451 1063l151 -189q4 -4 15.5 -0.5t23.5 9.5t20.5 12t8.5 8q-29 57 -47.5 118.5t-53.5 111.5q-6 8 -26.5 -0.5 t-42 -22.5t-38 -28.5t-11.5 -18.5zM463 457q20 -35 51 -74t73 -70.5t92.5 -53t111.5 -21.5q59 0 110 21.5t92 53t73 70.5t52 74q-164 -43 -326.5 -42t-328.5 42zM715 731h155l-77 187zM918 903q-4 -2 4 -8t19 -12t23.5 -9.5t18.5 0.5l147 189q4 4 -11 18.5t-36.5 28.5 t-42 22.5t-26.5 0.5q-39 -49 -55.5 -110.5t-40.5 -119.5zM1290 102v23h84v-23h-31v-77h-22v77h-31zM1384 25v100h31l19 -78l18 78h29v-100h-19v77l-20 -77h-19l-20 77v-77h-19z" />
<glyph unicode="$" horiz-adv-x="915" d="M-10 342l262 182q8 4 21.5 12.5t25.5 -1.5q10 -6 11 -24t9 -34q23 -47 62 -67.5t70 -22.5q23 -2 45 6t28 31q10 37 -11 64.5t-55 47t-69 32t-53 20.5q-68 29 -129.5 61.5t-107.5 79.5t-72.5 114.5t-26.5 166.5q0 170 75 272t234 131l-6 127h307l-6 -125q76 -14 157 -55 t146 -133l-235 -242q-16 -16 -35 -16q-20 4 -23.5 19.5t-11.5 33.5q-23 51 -59.5 67.5t-65.5 16.5q-41 0 -70.5 -22.5t-27.5 -63.5q4 -53 50 -86t101 -55q66 -27 122.5 -45.5t107.5 -57.5q74 -55 114.5 -134t38.5 -189q0 -68 -21.5 -130.5t-60 -113.5t-95 -85t-128.5 -46 l8 -129h-307l8 129q-86 16 -174 78.5t-153 185.5z" />
<glyph unicode="%" d="M68 731q0 150 56 282t154.5 230t230.5 155.5t282 57.5t281.5 -57.5t230 -155.5t156 -230t57.5 -282t-57.5 -282t-156 -230t-230 -155.5t-281.5 -57.5t-282 57.5t-230.5 155.5t-154.5 230.5t-56 281.5zM164 731q0 -129 49 -242.5t135 -199.5t200 -135.5t243 -49.5 q131 0 244.5 49.5t197.5 135.5t133 199.5t49 242.5t-49 242.5t-133 198.5t-197.5 134.5t-244.5 49.5q-129 0 -243 -49.5t-200 -134.5t-135 -198.5t-49 -242.5zM207 731q0 119 46 224.5t126 184.5t185.5 124t226.5 45q119 0 225 -45t185 -124t125 -184.5t46 -224.5 q0 -121 -46 -227.5t-125 -185t-185 -125t-225 -46.5q-121 0 -226.5 46.5t-185.5 125t-126 185t-46 227.5zM330 664l112 -177q346 -80 699 0l110 177h-921zM451 1063l151 -189q4 -4 15.5 -0.5t23.5 9.5t20.5 12t8.5 8q-29 57 -47.5 118.5t-53.5 111.5q-6 8 -26.5 -0.5 t-42 -22.5t-38 -28.5t-11.5 -18.5zM463 457q20 -35 51 -74t73 -70.5t92.5 -53t111.5 -21.5q59 0 110 21.5t92 53t73 70.5t52 74q-164 -43 -326.5 -42t-328.5 42zM715 731h155l-77 187zM918 903q-4 -2 4 -8t19 -12t23.5 -9.5t18.5 0.5l147 189q4 4 -11 18.5t-36.5 28.5 t-42 22.5t-26.5 0.5q-39 -49 -55.5 -110.5t-40.5 -119.5zM1290 102v23h84v-23h-31v-77h-22v77h-31zM1384 25v100h31l19 -78l18 78h29v-100h-19v77l-20 -77h-19l-20 77v-77h-19z" />
<glyph unicode="&#x26;" horiz-adv-x="1349" d="M20 313q-29 176 37 318.5t219 228.5q-41 66 -67.5 149t-20.5 169q8 104 51.5 182t111 128t154.5 72.5t179 16.5q98 -8 174 -47t127 -102.5t76.5 -147.5t19.5 -182q-10 -135 -76.5 -217t-166.5 -138q23 -29 50 -61.5t52 -56.5q25 33 52.5 72.5t56.5 80.5l297 -231 q-29 -39 -65 -89t-67 -89q47 -47 102.5 -97.5t96.5 -85.5l-256 -272l-90 78t-92 84q-86 -78 -199.5 -117t-238.5 -39q-90 0 -176.5 23.5t-156 71.5t-118.5 122t-66 176zM412 422q4 -66 46 -99.5t105 -33.5q37 0 75 10t67 33q-115 109 -213 243q-41 -23 -61.5 -63.5 t-18.5 -89.5zM565 1120q4 -41 18.5 -81t39.5 -62q49 16 78.5 57t31.5 88q2 45 -20.5 72t-61.5 27q-47 0 -68.5 -29t-17.5 -72z" />
<glyph unicode="'" horiz-adv-x="342" d="M-4 1569h350l-47 -721h-258z" />
<glyph unicode="(" d="M68 731q0 150 56 282t154.5 230t230.5 155.5t282 57.5t281.5 -57.5t230 -155.5t156 -230t57.5 -282t-57.5 -282t-156 -230t-230 -155.5t-281.5 -57.5t-282 57.5t-230.5 155.5t-154.5 230.5t-56 281.5zM164 731q0 -129 49 -242.5t135 -199.5t200 -135.5t243 -49.5 q131 0 244.5 49.5t197.5 135.5t133 199.5t49 242.5t-49 242.5t-133 198.5t-197.5 134.5t-244.5 49.5q-129 0 -243 -49.5t-200 -134.5t-135 -198.5t-49 -242.5zM207 731q0 119 46 224.5t126 184.5t185.5 124t226.5 45q119 0 225 -45t185 -124t125 -184.5t46 -224.5 q0 -121 -46 -227.5t-125 -185t-185 -125t-225 -46.5q-121 0 -226.5 46.5t-185.5 125t-126 185t-46 227.5zM330 664l112 -177q346 -80 699 0l110 177h-921zM451 1063l151 -189q4 -4 15.5 -0.5t23.5 9.5t20.5 12t8.5 8q-29 57 -47.5 118.5t-53.5 111.5q-6 8 -26.5 -0.5 t-42 -22.5t-38 -28.5t-11.5 -18.5zM463 457q20 -35 51 -74t73 -70.5t92.5 -53t111.5 -21.5q59 0 110 21.5t92 53t73 70.5t52 74q-164 -43 -326.5 -42t-328.5 42zM715 731h155l-77 187zM918 903q-4 -2 4 -8t19 -12t23.5 -9.5t18.5 0.5l147 189q4 4 -11 18.5t-36.5 28.5 t-42 22.5t-26.5 0.5q-39 -49 -55.5 -110.5t-40.5 -119.5zM1290 102v23h84v-23h-31v-77h-22v77h-31zM1384 25v100h31l19 -78l18 78h29v-100h-19v77l-20 -77h-19l-20 77v-77h-19z" />
<glyph unicode=")" d="M68 731q0 150 56 282t154.5 230t230.5 155.5t282 57.5t281.5 -57.5t230 -155.5t156 -230t57.5 -282t-57.5 -282t-156 -230t-230 -155.5t-281.5 -57.5t-282 57.5t-230.5 155.5t-154.5 230.5t-56 281.5zM164 731q0 -129 49 -242.5t135 -199.5t200 -135.5t243 -49.5 q131 0 244.5 49.5t197.5 135.5t133 199.5t49 242.5t-49 242.5t-133 198.5t-197.5 134.5t-244.5 49.5q-129 0 -243 -49.5t-200 -134.5t-135 -198.5t-49 -242.5zM207 731q0 119 46 224.5t126 184.5t185.5 124t226.5 45q119 0 225 -45t185 -124t125 -184.5t46 -224.5 q0 -121 -46 -227.5t-125 -185t-185 -125t-225 -46.5q-121 0 -226.5 46.5t-185.5 125t-126 185t-46 227.5zM330 664l112 -177q346 -80 699 0l110 177h-921zM451 1063l151 -189q4 -4 15.5 -0.5t23.5 9.5t20.5 12t8.5 8q-29 57 -47.5 118.5t-53.5 111.5q-6 8 -26.5 -0.5 t-42 -22.5t-38 -28.5t-11.5 -18.5zM463 457q20 -35 51 -74t73 -70.5t92.5 -53t111.5 -21.5q59 0 110 21.5t92 53t73 70.5t52 74q-164 -43 -326.5 -42t-328.5 42zM715 731h155l-77 187zM918 903q-4 -2 4 -8t19 -12t23.5 -9.5t18.5 0.5l147 189q4 4 -11 18.5t-36.5 28.5 t-42 22.5t-26.5 0.5q-39 -49 -55.5 -110.5t-40.5 -119.5zM1290 102v23h84v-23h-31v-77h-22v77h-31zM1384 25v100h31l19 -78l18 78h29v-100h-19v77l-20 -77h-19l-20 77v-77h-19z" />
<glyph unicode="*" d="M68 731q0 150 56 282t154.5 230t230.5 155.5t282 57.5t281.5 -57.5t230 -155.5t156 -230t57.5 -282t-57.5 -282t-156 -230t-230 -155.5t-281.5 -57.5t-282 57.5t-230.5 155.5t-154.5 230.5t-56 281.5zM164 731q0 -129 49 -242.5t135 -199.5t200 -135.5t243 -49.5 q131 0 244.5 49.5t197.5 135.5t133 199.5t49 242.5t-49 242.5t-133 198.5t-197.5 134.5t-244.5 49.5q-129 0 -243 -49.5t-200 -134.5t-135 -198.5t-49 -242.5zM207 731q0 119 46 224.5t126 184.5t185.5 124t226.5 45q119 0 225 -45t185 -124t125 -184.5t46 -224.5 q0 -121 -46 -227.5t-125 -185t-185 -125t-225 -46.5q-121 0 -226.5 46.5t-185.5 125t-126 185t-46 227.5zM330 664l112 -177q346 -80 699 0l110 177h-921zM451 1063l151 -189q4 -4 15.5 -0.5t23.5 9.5t20.5 12t8.5 8q-29 57 -47.5 118.5t-53.5 111.5q-6 8 -26.5 -0.5 t-42 -22.5t-38 -28.5t-11.5 -18.5zM463 457q20 -35 51 -74t73 -70.5t92.5 -53t111.5 -21.5q59 0 110 21.5t92 53t73 70.5t52 74q-164 -43 -326.5 -42t-328.5 42zM715 731h155l-77 187zM918 903q-4 -2 4 -8t19 -12t23.5 -9.5t18.5 0.5l147 189q4 4 -11 18.5t-36.5 28.5 t-42 22.5t-26.5 0.5q-39 -49 -55.5 -110.5t-40.5 -119.5zM1290 102v23h84v-23h-31v-77h-22v77h-31zM1384 25v100h31l19 -78l18 78h29v-100h-19v77l-20 -77h-19l-20 77v-77h-19z" />
<glyph unicode="+" d="M68 731q0 150 56 282t154.5 230t230.5 155.5t282 57.5t281.5 -57.5t230 -155.5t156 -230t57.5 -282t-57.5 -282t-156 -230t-230 -155.5t-281.5 -57.5t-282 57.5t-230.5 155.5t-154.5 230.5t-56 281.5zM164 731q0 -129 49 -242.5t135 -199.5t200 -135.5t243 -49.5 q131 0 244.5 49.5t197.5 135.5t133 199.5t49 242.5t-49 242.5t-133 198.5t-197.5 134.5t-244.5 49.5q-129 0 -243 -49.5t-200 -134.5t-135 -198.5t-49 -242.5zM207 731q0 119 46 224.5t126 184.5t185.5 124t226.5 45q119 0 225 -45t185 -124t125 -184.5t46 -224.5 q0 -121 -46 -227.5t-125 -185t-185 -125t-225 -46.5q-121 0 -226.5 46.5t-185.5 125t-126 185t-46 227.5zM330 664l112 -177q346 -80 699 0l110 177h-921zM451 1063l151 -189q4 -4 15.5 -0.5t23.5 9.5t20.5 12t8.5 8q-29 57 -47.5 118.5t-53.5 111.5q-6 8 -26.5 -0.5 t-42 -22.5t-38 -28.5t-11.5 -18.5zM463 457q20 -35 51 -74t73 -70.5t92.5 -53t111.5 -21.5q59 0 110 21.5t92 53t73 70.5t52 74q-164 -43 -326.5 -42t-328.5 42zM715 731h155l-77 187zM918 903q-4 -2 4 -8t19 -12t23.5 -9.5t18.5 0.5l147 189q4 4 -11 18.5t-36.5 28.5 t-42 22.5t-26.5 0.5q-39 -49 -55.5 -110.5t-40.5 -119.5zM1290 102v23h84v-23h-31v-77h-22v77h-31zM1384 25v100h31l19 -78l18 78h29v-100h-19v77l-20 -77h-19l-20 77v-77h-19z" />
<glyph unicode="," horiz-adv-x="485" d="M10 145q0 51 18.5 94.5t49.5 74t73 48t91 17.5q47 0 89 -18.5t74.5 -50t51 -73.5t18.5 -92q0 -31 -5 -71.5t-24.5 -88.5t-58.5 -103.5t-106 -117.5h-175q25 23 50.5 64t31.5 70q4 23 -6 24.5t-30 5.5q-70 16 -106 77t-36 140z" />
<glyph unicode="-" horiz-adv-x="649" d="M31 473v371h587v-371h-587z" />
<glyph unicode="." horiz-adv-x="483" d="M10 145q0 49 18.5 91.5t50.5 74t74 50t91 18.5q47 0 89 -18.5t72.5 -50t49 -73.5t18.5 -92q0 -49 -18.5 -91t-49 -72.5t-72.5 -49t-89 -18.5q-49 0 -91 18.5t-74 49t-50.5 72.5t-18.5 91z" />
<glyph unicode="/" d="M68 731q0 150 56 282t154.5 230t230.5 155.5t282 57.5t281.5 -57.5t230 -155.5t156 -230t57.5 -282t-57.5 -282t-156 -230t-230 -155.5t-281.5 -57.5t-282 57.5t-230.5 155.5t-154.5 230.5t-56 281.5zM164 731q0 -129 49 -242.5t135 -199.5t200 -135.5t243 -49.5 q131 0 244.5 49.5t197.5 135.5t133 199.5t49 242.5t-49 242.5t-133 198.5t-197.5 134.5t-244.5 49.5q-129 0 -243 -49.5t-200 -134.5t-135 -198.5t-49 -242.5zM207 731q0 119 46 224.5t126 184.5t185.5 124t226.5 45q119 0 225 -45t185 -124t125 -184.5t46 -224.5 q0 -121 -46 -227.5t-125 -185t-185 -125t-225 -46.5q-121 0 -226.5 46.5t-185.5 125t-126 185t-46 227.5zM330 664l112 -177q346 -80 699 0l110 177h-921zM451 1063l151 -189q4 -4 15.5 -0.5t23.5 9.5t20.5 12t8.5 8q-29 57 -47.5 118.5t-53.5 111.5q-6 8 -26.5 -0.5 t-42 -22.5t-38 -28.5t-11.5 -18.5zM463 457q20 -35 51 -74t73 -70.5t92.5 -53t111.5 -21.5q59 0 110 21.5t92 53t73 70.5t52 74q-164 -43 -326.5 -42t-328.5 42zM715 731h155l-77 187zM918 903q-4 -2 4 -8t19 -12t23.5 -9.5t18.5 0.5l147 189q4 4 -11 18.5t-36.5 28.5 t-42 22.5t-26.5 0.5q-39 -49 -55.5 -110.5t-40.5 -119.5zM1290 102v23h84v-23h-31v-77h-22v77h-31zM1384 25v100h31l19 -78l18 78h29v-100h-19v77l-20 -77h-19l-20 77v-77h-19z" />
<glyph unicode="0" horiz-adv-x="1216" d="M-4 750q0 143 25.5 291.5t94 267t187.5 194.5t305 76t305 -76t187.5 -194.5t94.5 -267t26 -291.5q0 -96 -11.5 -195.5t-38 -192t-71.5 -172t-112.5 -140t-162 -95.5t-217.5 -35t-217 35t-161.5 95.5t-112.5 140t-72 172t-38 191.5t-11 196zM446 750q0 -461 162 -461 t162 461q0 225 -40 323t-122 98t-122 -98t-40 -323z" />
<glyph unicode="1" horiz-adv-x="610" d="M-53 1157l248 383h385v-1591h-443v1208h-190z" />
<glyph unicode="2" horiz-adv-x="1009" d="M-33 1362q109 102 246 161.5t297 57.5q135 -2 230.5 -38t155.5 -99.5t89 -150.5t29 -191q0 -59 -9.5 -126t-29.5 -136q-41 -137 -116 -265.5t-161 -232.5h295v-393h-934v307q68 57 142.5 133t144.5 162t126 178t89 184q10 29 14.5 61t4.5 60q0 31 -7.5 58.5t-24 47 t-44 30t-68.5 4.5q-51 -6 -101 -46.5t-79 -126.5q-4 -12 -14.5 -23t-22.5 -14t-26.5 1t-22.5 22z" />
<glyph unicode="3" horiz-adv-x="983" d="M-8 68l57 352q10 49 39 51q27 2 51 -33q45 -68 119 -106.5t137 -38.5q66 0 114 31.5t46 103.5q-4 94 -62.5 122t-160.5 28h-201v348h131q43 0 91 6t88 23.5t67 48t29 79.5q0 55 -35 81t-88 26q-47 0 -104.5 -23.5t-112.5 -66.5q-23 -18 -38.5 -34.5t-35.5 -16.5 q-35 0 -41 38l-70 369q123 74 244 98.5t244 24.5q233 0 351 -120t118 -329q0 -102 -35 -193t-119 -151q47 -25 81 -64.5t55.5 -89.5t31.5 -105.5t10 -110.5q0 -109 -28.5 -198t-87.5 -150q-78 -82 -191 -114t-235 -34q-119 0 -241 38t-218 110z" />
<glyph unicode="4" horiz-adv-x="1091" d="M-4 254v313l418 973h565v-917h117v-369h-117v-305h-420v305h-563zM420 623h139v344z" />
<glyph unicode="5" horiz-adv-x="1026" d="M2 588l117 952h782v-383h-430l-20 -213q35 10 73.5 13.5t75.5 3.5q98 0 177 -34t135.5 -96.5t87 -148.5t34.5 -190q8 -272 -139 -416t-420 -156q-113 -2 -230.5 24.5t-215.5 92.5l20 383q2 23 12.5 34t23.5 13t26.5 -5t21.5 -22q41 -53 79 -87t72.5 -52t67.5 -25.5 t64 -7.5q61 0 110 35t60 109q12 86 -26 141t-126 47q-49 -4 -102 -30.5t-107 -77.5z" />
<glyph unicode="6" horiz-adv-x="1097" d="M-4 666q0 90 11 180t33.5 174t54.5 158.5t75 136.5q82 115 208 189.5t298 74.5q72 0 152.5 -28.5t148.5 -88.5l-41 -415q-2 -16 -13.5 -26.5t-26.5 -12.5t-29.5 4t-20.5 22q-29 68 -72 100.5t-92 32.5q-45 0 -82 -19.5t-65.5 -52t-48 -72.5t-27.5 -81q47 27 99 38t101 13 q98 2 179.5 -30.5t138.5 -96t90 -158t35 -216.5q0 -41 -4 -85.5t-12.5 -86t-19.5 -77.5t-24 -61q-37 -72 -88 -122t-113.5 -80.5t-132 -45t-141.5 -14.5q-162 0 -271.5 62.5t-176 166t-95 237.5t-28.5 280zM420 461q0 -66 30.5 -121t100.5 -57q76 -2 110.5 45t34.5 129 q0 84 -32.5 133t-106.5 49q-72 0 -104.5 -53.5t-32.5 -124.5z" />
<glyph unicode="7" horiz-adv-x="944" d="M0 1157v383h944v-280l-471 -1311h-465l457 1208h-465z" />
<glyph unicode="8" horiz-adv-x="1110" d="M-2 418q0 106 37 204.5t127 155.5q-68 59 -93.5 146.5t-23.5 183.5q2 113 39 202t102.5 148.5t158.5 90t208 30.5q117 0 210 -30.5t159.5 -90t103.5 -148.5t39 -202q2 -94 -20.5 -181t-90.5 -147q45 -27 76 -65.5t49.5 -86.5t26.5 -100.5t8 -103.5q0 -96 -21.5 -189.5 t-95.5 -166.5q-78 -76 -193.5 -112t-250.5 -36q-121 0 -224.5 31t-178.5 90q-86 70 -119 165t-33 212zM420 446q4 -76 40 -115.5t93 -39.5q59 0 96 40t39 115q2 92 -40 131t-95 39t-94 -39.5t-39 -130.5zM436 1053q2 -43 31 -86t86 -43q31 0 52.5 12t35.5 31.5t22.5 42 t8.5 45.5q0 57 -30 99t-89 42t-89 -43t-28 -100z" />
<glyph unicode="9" horiz-adv-x="1134" d="M-2 956q-2 113 23.5 218.5t64.5 171.5q74 125 195.5 180t275.5 55q178 0 312.5 -86t203.5 -272q31 -90 48.5 -209t17.5 -246q0 -154 -23.5 -304.5t-91.5 -270t-187.5 -195.5t-310.5 -78q-113 -2 -220 24.5t-206 92.5l23 364q0 29 12 41.5t26.5 14.5t30 -7.5t21.5 -23.5 q31 -47 65.5 -77t69.5 -46t68 -22.5t61 -6.5q51 0 90 18.5t67 49.5t44 70t22 80q-63 -47 -147 -68t-158 -14q-123 10 -217 84.5t-137 197.5q-23 63 -32 131t-11 133zM416 997q-4 -98 28.5 -156.5t114.5 -54.5q37 2 63.5 22.5t44 50.5t24.5 66t5 68q-2 39 -10 75t-23.5 63.5 t-41 45t-60.5 17.5q-37 0 -63.5 -17.5t-45 -46t-27.5 -63.5t-9 -70z" />
<glyph unicode=":" horiz-adv-x="483" d="M10 145q0 49 18.5 91.5t49.5 74t73 50t89 18.5q49 0 91 -18.5t73.5 -50t50 -73.5t18.5 -92q0 -49 -18.5 -91t-50 -72.5t-73.5 -49t-91 -18.5q-47 0 -89 18.5t-73 49t-49.5 72.5t-18.5 91zM10 877q0 49 18.5 91t49.5 72.5t73 49t89 18.5q49 0 91 -18.5t73.5 -49t50 -72.5 t18.5 -91t-18.5 -91.5t-50 -74t-73.5 -50t-91 -18.5q-47 0 -89 18.5t-73 50t-49.5 73.5t-18.5 92z" />
<glyph unicode=";" horiz-adv-x="485" d="M10 145q0 51 18.5 94.5t49.5 74t73 48t91 17.5q47 0 89 -18.5t74.5 -50t51 -73.5t18.5 -92q0 -31 -5 -71.5t-24.5 -88.5t-58.5 -103.5t-106 -117.5h-175q25 23 50.5 64t31.5 70q4 23 -6 24.5t-30 5.5q-70 16 -106 77t-36 140zM10 877q0 49 18.5 91t49.5 72.5t73 49 t91 18.5q47 0 89 -18.5t74.5 -49t51 -72.5t18.5 -91t-18.5 -91.5t-51 -74t-74.5 -50t-89 -18.5q-49 0 -91 18.5t-73 50t-49.5 73.5t-18.5 92z" />
<glyph unicode="&#x3c;" d="M68 731q0 150 56 282t154.5 230t230.5 155.5t282 57.5t281.5 -57.5t230 -155.5t156 -230t57.5 -282t-57.5 -282t-156 -230t-230 -155.5t-281.5 -57.5t-282 57.5t-230.5 155.5t-154.5 230.5t-56 281.5zM164 731q0 -129 49 -242.5t135 -199.5t200 -135.5t243 -49.5 q131 0 244.5 49.5t197.5 135.5t133 199.5t49 242.5t-49 242.5t-133 198.5t-197.5 134.5t-244.5 49.5q-129 0 -243 -49.5t-200 -134.5t-135 -198.5t-49 -242.5zM207 731q0 119 46 224.5t126 184.5t185.5 124t226.5 45q119 0 225 -45t185 -124t125 -184.5t46 -224.5 q0 -121 -46 -227.5t-125 -185t-185 -125t-225 -46.5q-121 0 -226.5 46.5t-185.5 125t-126 185t-46 227.5zM330 664l112 -177q346 -80 699 0l110 177h-921zM451 1063l151 -189q4 -4 15.5 -0.5t23.5 9.5t20.5 12t8.5 8q-29 57 -47.5 118.5t-53.5 111.5q-6 8 -26.5 -0.5 t-42 -22.5t-38 -28.5t-11.5 -18.5zM463 457q20 -35 51 -74t73 -70.5t92.5 -53t111.5 -21.5q59 0 110 21.5t92 53t73 70.5t52 74q-164 -43 -326.5 -42t-328.5 42zM715 731h155l-77 187zM918 903q-4 -2 4 -8t19 -12t23.5 -9.5t18.5 0.5l147 189q4 4 -11 18.5t-36.5 28.5 t-42 22.5t-26.5 0.5q-39 -49 -55.5 -110.5t-40.5 -119.5zM1290 102v23h84v-23h-31v-77h-22v77h-31zM1384 25v100h31l19 -78l18 78h29v-100h-19v77l-20 -77h-19l-20 77v-77h-19z" />
<glyph unicode="=" d="M68 731q0 150 56 282t154.5 230t230.5 155.5t282 57.5t281.5 -57.5t230 -155.5t156 -230t57.5 -282t-57.5 -282t-156 -230t-230 -155.5t-281.5 -57.5t-282 57.5t-230.5 155.5t-154.5 230.5t-56 281.5zM164 731q0 -129 49 -242.5t135 -199.5t200 -135.5t243 -49.5 q131 0 244.5 49.5t197.5 135.5t133 199.5t49 242.5t-49 242.5t-133 198.5t-197.5 134.5t-244.5 49.5q-129 0 -243 -49.5t-200 -134.5t-135 -198.5t-49 -242.5zM207 731q0 119 46 224.5t126 184.5t185.5 124t226.5 45q119 0 225 -45t185 -124t125 -184.5t46 -224.5 q0 -121 -46 -227.5t-125 -185t-185 -125t-225 -46.5q-121 0 -226.5 46.5t-185.5 125t-126 185t-46 227.5zM330 664l112 -177q346 -80 699 0l110 177h-921zM451 1063l151 -189q4 -4 15.5 -0.5t23.5 9.5t20.5 12t8.5 8q-29 57 -47.5 118.5t-53.5 111.5q-6 8 -26.5 -0.5 t-42 -22.5t-38 -28.5t-11.5 -18.5zM463 457q20 -35 51 -74t73 -70.5t92.5 -53t111.5 -21.5q59 0 110 21.5t92 53t73 70.5t52 74q-164 -43 -326.5 -42t-328.5 42zM715 731h155l-77 187zM918 903q-4 -2 4 -8t19 -12t23.5 -9.5t18.5 0.5l147 189q4 4 -11 18.5t-36.5 28.5 t-42 22.5t-26.5 0.5q-39 -49 -55.5 -110.5t-40.5 -119.5zM1290 102v23h84v-23h-31v-77h-22v77h-31zM1384 25v100h31l19 -78l18 78h29v-100h-19v77l-20 -77h-19l-20 77v-77h-19z" />
<glyph unicode="&#x3e;" d="M68 731q0 150 56 282t154.5 230t230.5 155.5t282 57.5t281.5 -57.5t230 -155.5t156 -230t57.5 -282t-57.5 -282t-156 -230t-230 -155.5t-281.5 -57.5t-282 57.5t-230.5 155.5t-154.5 230.5t-56 281.5zM164 731q0 -129 49 -242.5t135 -199.5t200 -135.5t243 -49.5 q131 0 244.5 49.5t197.5 135.5t133 199.5t49 242.5t-49 242.5t-133 198.5t-197.5 134.5t-244.5 49.5q-129 0 -243 -49.5t-200 -134.5t-135 -198.5t-49 -242.5zM207 731q0 119 46 224.5t126 184.5t185.5 124t226.5 45q119 0 225 -45t185 -124t125 -184.5t46 -224.5 q0 -121 -46 -227.5t-125 -185t-185 -125t-225 -46.5q-121 0 -226.5 46.5t-185.5 125t-126 185t-46 227.5zM330 664l112 -177q346 -80 699 0l110 177h-921zM451 1063l151 -189q4 -4 15.5 -0.5t23.5 9.5t20.5 12t8.5 8q-29 57 -47.5 118.5t-53.5 111.5q-6 8 -26.5 -0.5 t-42 -22.5t-38 -28.5t-11.5 -18.5zM463 457q20 -35 51 -74t73 -70.5t92.5 -53t111.5 -21.5q59 0 110 21.5t92 53t73 70.5t52 74q-164 -43 -326.5 -42t-328.5 42zM715 731h155l-77 187zM918 903q-4 -2 4 -8t19 -12t23.5 -9.5t18.5 0.5l147 189q4 4 -11 18.5t-36.5 28.5 t-42 22.5t-26.5 0.5q-39 -49 -55.5 -110.5t-40.5 -119.5zM1290 102v23h84v-23h-31v-77h-22v77h-31zM1384 25v100h31l19 -78l18 78h29v-100h-19v77l-20 -77h-19l-20 77v-77h-19z" />
<glyph unicode="?" horiz-adv-x="968" d="M-20 1393q117 98 244.5 142t262.5 40q106 -4 196.5 -34t155 -86t101.5 -137t39 -188q0 -78 -16.5 -151.5t-57.5 -140.5q-16 -27 -34.5 -51.5t-47.5 -53.5q-41 -41 -93 -73.5t-93 -84.5q-29 -35 -43 -82t-4 -120h-123q78 -18 129 -81t51 -145q0 -47 -18.5 -89t-49 -74.5 t-72.5 -51t-91 -18.5q-47 0 -89 18.5t-73 51t-49.5 74.5t-18.5 89q0 82 50.5 144.5t128.5 81.5h-115q-12 86 -5 172t56 168q25 43 67 83t80.5 81t67.5 87t29 99q0 43 -28 70.5t-81 27.5q-55 0 -110.5 -26.5t-110.5 -98.5q-23 -33 -52.5 -35t-45.5 39z" />
<glyph unicode="@" horiz-adv-x="1654" d="M2 662q0 88 11.5 173t31.5 156q51 186 164 315.5t252 188.5q98 41 216 62.5t234 21.5q74 0 149 -9t142 -28q135 -41 248 -129t162 -209q43 -111 43 -254q0 -92 -17.5 -186t-46.5 -168q-27 -66 -77 -135.5t-115 -124.5l33 -168q-55 -63 -129 -109.5t-158 -78t-175 -47 t-182 -17.5q-139 -2 -273 26.5t-236 90.5q-78 49 -130.5 118.5t-85 152.5t-47 174t-14.5 184zM342 625q0 -59 10 -120t29 -114q27 -68 78 -111.5t114.5 -71.5t135 -39t143.5 -11q70 0 143.5 15t145.5 50q-113 0 -168 78q-51 -45 -119 -66.5t-131 -21.5q-96 0 -162.5 35 t-108.5 91t-61.5 131t-19.5 155q0 55 8 111.5t24 107.5q59 178 175 269t258 87q59 0 116 -26q2 8 2 18l273 -31q-37 31 -89.5 48.5t-117.5 27.5q-33 4 -65.5 7t-65.5 3q-55 0 -112.5 -8t-110 -25.5t-96.5 -46t-76 -71.5q-72 -94 -112 -218t-40 -253zM721 612q0 -14 2 -32.5 t8 -35t17.5 -27.5t29.5 -11q47 0 62.5 25.5t23.5 68.5l49 324q-4 10 -13 11t-19 1q-16 0 -33 -7t-29 -16q-23 -18 -41 -54t-30.5 -78t-19.5 -87t-7 -82zM1182 477q2 -8 20.5 7.5t34.5 31.5q29 31 47.5 75t27.5 91t12 94t3 82q0 74 -9 133.5t-32 100.5z" />
<glyph unicode="A" horiz-adv-x="1110" d="M-31 -51l283 1591h606l283 -1591h-447l-35 282h-204l-29 -282h-457zM508 604h102l-51 426z" />
<glyph unicode="B" horiz-adv-x="1122" d="M31 -53v1589q20 2 49 4t57.5 4t57 5t49.5 5q66 6 131 12.5t143 6.5q45 0 96.5 -4t100.5 -14.5t95 -31t85 -53.5q78 -70 111.5 -160.5t33.5 -189.5q0 -86 -33.5 -163.5t-109.5 -133.5q119 -41 177 -151q56 -104 56 -236v-14q0 -117 -46 -218.5t-132 -166.5 q-68 -53 -164 -76.5t-223 -23.5q-78 0 -158.5 8t-173.5 8q-18 0 -45.5 -1t-56.5 -2t-55.5 -2t-44.5 -1zM453 319q14 -2 32.5 -4t32.5 -2q70 0 102 38q31 36 31 96v8q-2 72 -35.5 115.5t-121.5 43.5q-10 0 -20.5 -1t-20.5 -3v-291zM453 932q20 -2 38 -2q53 0 81 22 q38 30 38 111q0 68 -24.5 96.5t-71.5 28.5q-27 0 -61 -10v-246z" />
<glyph unicode="C" horiz-adv-x="950" d="M-2 737v34q0 147 30 283q34 152 112.5 269t203.5 186.5t305 69.5q70 0 151 -27.5t152 -93.5l-45 -405q-2 -25 -15 -36t-28.5 -13.5t-31 6t-21.5 24.5q-23 41 -44.5 65.5t-40.5 38t-36.5 18.5t-30.5 5q-59 -2 -101 -46t-68 -109q-28 -66 -40 -144q-11 -67 -10 -128v-19 q0 -70 11.5 -140.5t34 -129t57.5 -98.5t82 -48q7 -1 15 -1q30 0 72 18q52 22 113 106q6 14 21.5 23.5t30 7.5t26.5 -14.5t12 -41.5l9 -389q-92 -49 -171 -68.5t-139 -19.5q-154 0 -268.5 60.5t-191 169t-115.5 259t-41 328.5z" />
<glyph unicode="D" horiz-adv-x="1107" d="M31 -53v1591q70 2 129 9t118.5 13.5t123.5 10.5q42 3 92 3q25 0 51 -1q74 0 146.5 -18.5t136 -53.5t115.5 -89t87 -126q39 -86 58.5 -226t19.5 -294q0 -74 -4 -146.5t-13.5 -138t-22.5 -122t-30 -97.5q-39 -96 -87 -158.5t-109.5 -99.5t-135 -51t-161.5 -14q-74 0 -150 7 t-162 7q-18 0 -45.5 -1t-56.5 -2t-55.5 -2t-44.5 -1zM453 307q10 -2 21 -3t22 -1q41 0 71.5 14.5t42.5 38.5q16 39 27.5 90.5t18 108.5t9.5 115.5t3 111.5q0 39 -1 72t-3 61q-8 147 -51.5 207t-106.5 60q-29 0 -53 -8v-867z" />
<glyph unicode="E" horiz-adv-x="804" d="M31 -51v1591h774v-383h-344v-223h327v-369h-327v-223h344v-393h-774z" />
<glyph unicode="F" horiz-adv-x="827" d="M31 -51v1591h796v-383h-368v-223h352v-369h-352v-616h-428z" />
<glyph unicode="G" horiz-adv-x="1146" d="M-4 748q0 154 36 302t115 269q94 137 222.5 198.5t304.5 61.5q78 0 179 -25.5t196 -97.5l-66 -422q-2 -25 -15.5 -36t-28.5 -13t-30.5 6.5t-21.5 24.5q-39 61 -80 103t-74 46q-12 1 -23 1q-55 0 -97 -24q-50 -30 -83.5 -80t-53 -113.5t-30.5 -127.5q-6 -35 -6 -123 q0 -57 5.5 -126.5t22.5 -129t48 -100.5t80 -43h7q34 0 57 19q26 22 40.5 57t20.5 77t6 83q0 12 1 17t1 6v4t-2 13h-147v367h546q8 -92 14.5 -181t6.5 -165q0 -147 -27.5 -282.5t-105.5 -233.5q-66 -76 -164 -118t-240 -42h-32.5t-32.5 2q-160 14 -265.5 91t-168 191.5 t-89 256t-26.5 287.5z" />
<glyph unicode="H" horiz-adv-x="1077" d="M20 -51v1591h435v-596h168v596h434v-1591h-434v626h-168v-626h-435z" />
<glyph unicode="I" horiz-adv-x="509" d="M37 -51v1591h436v-1591h-436z" />
<glyph unicode="J" horiz-adv-x="878" d="M-10 20l8 365q0 33 10 45t27 16q4 1 8 1q28 0 45 -35q53 -78 108.5 -107t104.5 -29q23 0 44.5 4.5t36.5 15.5t25.5 32.5t10.5 56.5v1155h430v-1192q0 -121 -42 -203t-110.5 -132t-159 -71.5t-188.5 -21.5q-90 0 -184 23.5t-174 76.5z" />
<glyph unicode="K" horiz-adv-x="1073" d="M31 -51v1591h434v-375l199 375h475l-357 -659l328 -932h-467l-170 508l-8 -17v-491h-434z" />
<glyph unicode="L" horiz-adv-x="823" d="M31 -51v1591h426v-1198h362v-393h-788z" />
<glyph unicode="M" horiz-adv-x="1267" d="M31 -51v1591h430l174 -547l172 547h430v-1591h-426v467l-176 -498l-178 498v-467h-426z" />
<glyph unicode="N" horiz-adv-x="1069" d="M31 -51v1591h362l228 -534v534h417v-1591h-346l-239 536v-536h-422z" />
<glyph unicode="O" horiz-adv-x="1243" d="M-2 750q0 150 30.5 298t103.5 266t192.5 191.5t298.5 73.5q176 0 295.5 -73.5t191.5 -191.5t102.5 -266.5t30.5 -297.5q0 -152 -29.5 -300.5t-101.5 -266t-191.5 -190.5t-297.5 -73q-180 0 -299 73t-192 190.5t-102.5 266t-31.5 300.5zM444 745q0 -70 7.5 -148.5t28 -146 t54 -113.5t89.5 -48q53 2 87.5 48t54 113.5t27 146t7.5 148.5q0 68 -7.5 140.5t-27 134t-54 103.5t-87.5 48q-55 -6 -90 -48t-54.5 -103.5t-27 -134t-7.5 -140.5z" />
<glyph unicode="P" horiz-adv-x="1067" d="M31 -51v1589q78 2 136 7t113.5 11.5t118 11.5t146.5 5q74 0 143.5 -19.5t130 -56.5t108.5 -91t79 -124q37 -84 53 -176t16 -184q0 -96 -16.5 -183.5t-44.5 -152.5q-66 -143 -177.5 -218t-246.5 -75q-70 0 -137 18v-362h-422zM453 696q15 -10 35 -16q12 -4 24 -4q8 0 16 2 q49 10 85 76q32 59 32 157v23q-4 141 -42 199.5t-99 58.5q-20 0 -51 -6v-490z" />
<glyph unicode="Q" horiz-adv-x="1267" d="M-2 752q0 152 31.5 300t106.5 265t197 189.5t300 72.5q180 0 302 -72.5t196.5 -190.5t105.5 -267.5t31 -300.5q0 -119 -20.5 -238t-65.5 -223.5t-118 -187.5t-177 -132q6 -43 6 -86q-2 -61 -27.5 -109t-66.5 -80t-93.5 -49.5t-107.5 -17.5q-90 0 -178 50.5t-135 136.5 l108 149q-111 43 -186.5 126t-121.5 190.5t-66.5 229.5t-20.5 245zM440 748q0 -57 6.5 -132t22.5 -139v12q0 74 23 131q26 60 74 100t115 59.5t146 21.5q0 68 -11 132t-33.5 116.5t-59.5 85t-92 36.5q-55 -4 -92 -44t-58.5 -101t-31 -134.5t-9.5 -143.5zM774 365 q10 35 22.5 76.5t20.5 80.5q-16 -8 -25.5 -25.5t-13.5 -41t-4 -47v-43.5z" />
<glyph unicode="R" horiz-adv-x="1048" d="M31 -51v1591q55 0 108.5 4t102.5 10q59 6 115.5 12.5t101.5 6.5q78 0 163 -9.5t166 -52.5q135 -70 206 -216q64 -131 64 -346q0 -24 -1 -50q-16 -188 -72.5 -291.5t-155.5 -152.5l258 -506h-464l-170 352v-352h-422zM453 741q20 -6 41 -6q37 0 63.5 19.5t43.5 52.5 t25.5 76t8.5 90q0 39 -6 76.5t-21.5 68.5t-40 49.5t-61.5 18.5q-12 0 -26.5 -1t-26.5 -3v-441z" />
<glyph unicode="S" horiz-adv-x="937" d="M-10 1012q0 80 13 148.5t34 109.5q31 70 79 128t114.5 100t152.5 64q73 18 159 18q16 0 33 -1q27 0 64 -8t76 -22.5t79 -36t72 -48.5l-51 -436q-2 -18 -13 -27.5t-24.5 -10.5t-26 4t-18.5 18q-25 43 -48 70.5t-43.5 44t-39 22.5t-33.5 8q-66 0 -103.5 -39t-41.5 -102v-14 q0 -49 24 -79q28 -34 84 -57q80 -33 150 -65.5t124 -79.5t90 -119t48 -180q3 -27 4 -55q0 -60 -16 -121q-22 -90 -58 -150q-33 -49 -78.5 -82.5t-98 -54t-107.5 -30t-109 -9.5q-51 0 -107.5 8.5t-110.5 23.5t-104 36.5t-89 48.5l20 364q2 29 13.5 44.5t27.5 15.5 q14 0 24.5 -7.5t20.5 -19.5t22.5 -29.5t32.5 -37.5q53 -53 106.5 -74t90.5 -21q33 0 56.5 16.5t27.5 47.5q2 12 2 24q0 33 -12 65q-16 44 -56 71q-29 20 -63.5 34.5t-71.5 28.5q-43 16 -85 35.5t-81 47.5t-71.5 69t-53.5 100q-16 47 -23 97t-7 104z" />
<glyph unicode="T" horiz-adv-x="1001" d="M-14 1157l30 383h965l35 -383h-289v-1208h-438v1208h-303z" />
<glyph unicode="U" horiz-adv-x="1105" d="M31 410v1130h430v-1110q0 -29 2 -52.5t11 -41t27.5 -27.5t51.5 -10t51.5 10t27.5 27.5t11 41t2 52.5v1110h430v-1130q0 -254 -135 -372t-387 -118q-250 0 -386 118t-136 372z" />
<glyph unicode="V" horiz-adv-x="1089" d="M-31 1540h451l127 -840l125 840h448l-329 -1591h-490z" />
<glyph unicode="W" horiz-adv-x="1476" d="M-31 1540h447l57 -590l98 590h332l96 -590l58 590h450l-290 -1591h-394l-86 563l-84 -563h-395z" />
<glyph unicode="X" horiz-adv-x="1085" d="M-49 -51l317 819l-303 772h459l119 -391l119 391h458l-303 -772l318 -819h-469l-123 407l-123 -407h-469z" />
<glyph unicode="Y" horiz-adv-x="1173" d="M-49 1540h473l164 -522l157 522h480l-424 -1067v-524h-432v526z" />
<glyph unicode="Z" horiz-adv-x="933" d="M0 -51v252l432 956h-395v383h897v-274l-406 -924h336v-393h-864z" />
<glyph unicode="[" d="M68 731q0 150 56 282t154.5 230t230.5 155.5t282 57.5t281.5 -57.5t230 -155.5t156 -230t57.5 -282t-57.5 -282t-156 -230t-230 -155.5t-281.5 -57.5t-282 57.5t-230.5 155.5t-154.5 230.5t-56 281.5zM164 731q0 -129 49 -242.5t135 -199.5t200 -135.5t243 -49.5 q131 0 244.5 49.5t197.5 135.5t133 199.5t49 242.5t-49 242.5t-133 198.5t-197.5 134.5t-244.5 49.5q-129 0 -243 -49.5t-200 -134.5t-135 -198.5t-49 -242.5zM207 731q0 119 46 224.5t126 184.5t185.5 124t226.5 45q119 0 225 -45t185 -124t125 -184.5t46 -224.5 q0 -121 -46 -227.5t-125 -185t-185 -125t-225 -46.5q-121 0 -226.5 46.5t-185.5 125t-126 185t-46 227.5zM330 664l112 -177q346 -80 699 0l110 177h-921zM451 1063l151 -189q4 -4 15.5 -0.5t23.5 9.5t20.5 12t8.5 8q-29 57 -47.5 118.5t-53.5 111.5q-6 8 -26.5 -0.5 t-42 -22.5t-38 -28.5t-11.5 -18.5zM463 457q20 -35 51 -74t73 -70.5t92.5 -53t111.5 -21.5q59 0 110 21.5t92 53t73 70.5t52 74q-164 -43 -326.5 -42t-328.5 42zM715 731h155l-77 187zM918 903q-4 -2 4 -8t19 -12t23.5 -9.5t18.5 0.5l147 189q4 4 -11 18.5t-36.5 28.5 t-42 22.5t-26.5 0.5q-39 -49 -55.5 -110.5t-40.5 -119.5zM1290 102v23h84v-23h-31v-77h-22v77h-31zM1384 25v100h31l19 -78l18 78h29v-100h-19v77l-20 -77h-19l-20 77v-77h-19z" />
<glyph unicode="\" d="M68 731q0 150 56 282t154.5 230t230.5 155.5t282 57.5t281.5 -57.5t230 -155.5t156 -230t57.5 -282t-57.5 -282t-156 -230t-230 -155.5t-281.5 -57.5t-282 57.5t-230.5 155.5t-154.5 230.5t-56 281.5zM164 731q0 -129 49 -242.5t135 -199.5t200 -135.5t243 -49.5 q131 0 244.5 49.5t197.5 135.5t133 199.5t49 242.5t-49 242.5t-133 198.5t-197.5 134.5t-244.5 49.5q-129 0 -243 -49.5t-200 -134.5t-135 -198.5t-49 -242.5zM207 731q0 119 46 224.5t126 184.5t185.5 124t226.5 45q119 0 225 -45t185 -124t125 -184.5t46 -224.5 q0 -121 -46 -227.5t-125 -185t-185 -125t-225 -46.5q-121 0 -226.5 46.5t-185.5 125t-126 185t-46 227.5zM330 664l112 -177q346 -80 699 0l110 177h-921zM451 1063l151 -189q4 -4 15.5 -0.5t23.5 9.5t20.5 12t8.5 8q-29 57 -47.5 118.5t-53.5 111.5q-6 8 -26.5 -0.5 t-42 -22.5t-38 -28.5t-11.5 -18.5zM463 457q20 -35 51 -74t73 -70.5t92.5 -53t111.5 -21.5q59 0 110 21.5t92 53t73 70.5t52 74q-164 -43 -326.5 -42t-328.5 42zM715 731h155l-77 187zM918 903q-4 -2 4 -8t19 -12t23.5 -9.5t18.5 0.5l147 189q4 4 -11 18.5t-36.5 28.5 t-42 22.5t-26.5 0.5q-39 -49 -55.5 -110.5t-40.5 -119.5zM1290 102v23h84v-23h-31v-77h-22v77h-31zM1384 25v100h31l19 -78l18 78h29v-100h-19v77l-20 -77h-19l-20 77v-77h-19z" />
<glyph unicode="]" d="M68 731q0 150 56 282t154.5 230t230.5 155.5t282 57.5t281.5 -57.5t230 -155.5t156 -230t57.5 -282t-57.5 -282t-156 -230t-230 -155.5t-281.5 -57.5t-282 57.5t-230.5 155.5t-154.5 230.5t-56 281.5zM164 731q0 -129 49 -242.5t135 -199.5t200 -135.5t243 -49.5 q131 0 244.5 49.5t197.5 135.5t133 199.5t49 242.5t-49 242.5t-133 198.5t-197.5 134.5t-244.5 49.5q-129 0 -243 -49.5t-200 -134.5t-135 -198.5t-49 -242.5zM207 731q0 119 46 224.5t126 184.5t185.5 124t226.5 45q119 0 225 -45t185 -124t125 -184.5t46 -224.5 q0 -121 -46 -227.5t-125 -185t-185 -125t-225 -46.5q-121 0 -226.5 46.5t-185.5 125t-126 185t-46 227.5zM330 664l112 -177q346 -80 699 0l110 177h-921zM451 1063l151 -189q4 -4 15.5 -0.5t23.5 9.5t20.5 12t8.5 8q-29 57 -47.5 118.5t-53.5 111.5q-6 8 -26.5 -0.5 t-42 -22.5t-38 -28.5t-11.5 -18.5zM463 457q20 -35 51 -74t73 -70.5t92.5 -53t111.5 -21.5q59 0 110 21.5t92 53t73 70.5t52 74q-164 -43 -326.5 -42t-328.5 42zM715 731h155l-77 187zM918 903q-4 -2 4 -8t19 -12t23.5 -9.5t18.5 0.5l147 189q4 4 -11 18.5t-36.5 28.5 t-42 22.5t-26.5 0.5q-39 -49 -55.5 -110.5t-40.5 -119.5zM1290 102v23h84v-23h-31v-77h-22v77h-31zM1384 25v100h31l19 -78l18 78h29v-100h-19v77l-20 -77h-19l-20 77v-77h-19z" />
<glyph unicode="^" d="M68 731q0 150 56 282t154.5 230t230.5 155.5t282 57.5t281.5 -57.5t230 -155.5t156 -230t57.5 -282t-57.5 -282t-156 -230t-230 -155.5t-281.5 -57.5t-282 57.5t-230.5 155.5t-154.5 230.5t-56 281.5zM164 731q0 -129 49 -242.5t135 -199.5t200 -135.5t243 -49.5 q131 0 244.5 49.5t197.5 135.5t133 199.5t49 242.5t-49 242.5t-133 198.5t-197.5 134.5t-244.5 49.5q-129 0 -243 -49.5t-200 -134.5t-135 -198.5t-49 -242.5zM207 731q0 119 46 224.5t126 184.5t185.5 124t226.5 45q119 0 225 -45t185 -124t125 -184.5t46 -224.5 q0 -121 -46 -227.5t-125 -185t-185 -125t-225 -46.5q-121 0 -226.5 46.5t-185.5 125t-126 185t-46 227.5zM330 664l112 -177q346 -80 699 0l110 177h-921zM451 1063l151 -189q4 -4 15.5 -0.5t23.5 9.5t20.5 12t8.5 8q-29 57 -47.5 118.5t-53.5 111.5q-6 8 -26.5 -0.5 t-42 -22.5t-38 -28.5t-11.5 -18.5zM463 457q20 -35 51 -74t73 -70.5t92.5 -53t111.5 -21.5q59 0 110 21.5t92 53t73 70.5t52 74q-164 -43 -326.5 -42t-328.5 42zM715 731h155l-77 187zM918 903q-4 -2 4 -8t19 -12t23.5 -9.5t18.5 0.5l147 189q4 4 -11 18.5t-36.5 28.5 t-42 22.5t-26.5 0.5q-39 -49 -55.5 -110.5t-40.5 -119.5zM1290 102v23h84v-23h-31v-77h-22v77h-31zM1384 25v100h31l19 -78l18 78h29v-100h-19v77l-20 -77h-19l-20 77v-77h-19z" />
<glyph unicode="_" horiz-adv-x="751" d="M10 16h731v-335h-731v335z" />
<glyph unicode="`" d="M68 731q0 150 56 282t154.5 230t230.5 155.5t282 57.5t281.5 -57.5t230 -155.5t156 -230t57.5 -282t-57.5 -282t-156 -230t-230 -155.5t-281.5 -57.5t-282 57.5t-230.5 155.5t-154.5 230.5t-56 281.5zM164 731q0 -129 49 -242.5t135 -199.5t200 -135.5t243 -49.5 q131 0 244.5 49.5t197.5 135.5t133 199.5t49 242.5t-49 242.5t-133 198.5t-197.5 134.5t-244.5 49.5q-129 0 -243 -49.5t-200 -134.5t-135 -198.5t-49 -242.5zM207 731q0 119 46 224.5t126 184.5t185.5 124t226.5 45q119 0 225 -45t185 -124t125 -184.5t46 -224.5 q0 -121 -46 -227.5t-125 -185t-185 -125t-225 -46.5q-121 0 -226.5 46.5t-185.5 125t-126 185t-46 227.5zM330 664l112 -177q346 -80 699 0l110 177h-921zM451 1063l151 -189q4 -4 15.5 -0.5t23.5 9.5t20.5 12t8.5 8q-29 57 -47.5 118.5t-53.5 111.5q-6 8 -26.5 -0.5 t-42 -22.5t-38 -28.5t-11.5 -18.5zM463 457q20 -35 51 -74t73 -70.5t92.5 -53t111.5 -21.5q59 0 110 21.5t92 53t73 70.5t52 74q-164 -43 -326.5 -42t-328.5 42zM715 731h155l-77 187zM918 903q-4 -2 4 -8t19 -12t23.5 -9.5t18.5 0.5l147 189q4 4 -11 18.5t-36.5 28.5 t-42 22.5t-26.5 0.5q-39 -49 -55.5 -110.5t-40.5 -119.5zM1290 102v23h84v-23h-31v-77h-22v77h-31zM1384 25v100h31l19 -78l18 78h29v-100h-19v77l-20 -77h-19l-20 77v-77h-19z" />
<glyph unicode="a" horiz-adv-x="1110" d="M-31 -51l283 1591h606l283 -1591h-447l-35 282h-204l-29 -282h-457zM508 604h102l-51 426z" />
<glyph unicode="b" horiz-adv-x="1122" d="M31 -53v1589q20 2 49 4t57.5 4t57 5t49.5 5q66 6 131 12.5t143 6.5q45 0 96.5 -4t100.5 -14.5t95 -31t85 -53.5q78 -70 111.5 -160.5t33.5 -189.5q0 -86 -33.5 -163.5t-109.5 -133.5q119 -41 177 -151q56 -104 56 -236v-14q0 -117 -46 -218.5t-132 -166.5 q-68 -53 -164 -76.5t-223 -23.5q-78 0 -158.5 8t-173.5 8q-18 0 -45.5 -1t-56.5 -2t-55.5 -2t-44.5 -1zM453 319q14 -2 32.5 -4t32.5 -2q70 0 102 38q31 36 31 96v8q-2 72 -35.5 115.5t-121.5 43.5q-10 0 -20.5 -1t-20.5 -3v-291zM453 932q20 -2 38 -2q53 0 81 22 q38 30 38 111q0 68 -24.5 96.5t-71.5 28.5q-27 0 -61 -10v-246z" />
<glyph unicode="c" horiz-adv-x="950" d="M-2 737v34q0 147 30 283q34 152 112.5 269t203.5 186.5t305 69.5q70 0 151 -27.5t152 -93.5l-45 -405q-2 -25 -15 -36t-28.5 -13.5t-31 6t-21.5 24.5q-23 41 -44.5 65.5t-40.5 38t-36.5 18.5t-30.5 5q-59 -2 -101 -46t-68 -109q-28 -66 -40 -144q-11 -67 -10 -128v-19 q0 -70 11.5 -140.5t34 -129t57.5 -98.5t82 -48q7 -1 15 -1q30 0 72 18q52 22 113 106q6 14 21.5 23.5t30 7.5t26.5 -14.5t12 -41.5l9 -389q-92 -49 -171 -68.5t-139 -19.5q-154 0 -268.5 60.5t-191 169t-115.5 259t-41 328.5z" />
<glyph unicode="d" horiz-adv-x="1107" d="M31 -53v1591q70 2 129 9t118.5 13.5t123.5 10.5q42 3 92 3q25 0 51 -1q74 0 146.5 -18.5t136 -53.5t115.5 -89t87 -126q39 -86 58.5 -226t19.5 -294q0 -74 -4 -146.5t-13.5 -138t-22.5 -122t-30 -97.5q-39 -96 -87 -158.5t-109.5 -99.5t-135 -51t-161.5 -14q-74 0 -150 7 t-162 7q-18 0 -45.5 -1t-56.5 -2t-55.5 -2t-44.5 -1zM453 307q10 -2 21 -3t22 -1q41 0 71.5 14.5t42.5 38.5q16 39 27.5 90.5t18 108.5t9.5 115.5t3 111.5q0 39 -1 72t-3 61q-8 147 -51.5 207t-106.5 60q-29 0 -53 -8v-867z" />
<glyph unicode="e" horiz-adv-x="804" d="M31 -51v1591h774v-383h-344v-223h327v-369h-327v-223h344v-393h-774z" />
<glyph unicode="f" horiz-adv-x="827" d="M31 -51v1591h796v-383h-368v-223h352v-369h-352v-616h-428z" />
<glyph unicode="g" horiz-adv-x="1146" d="M-4 748q0 154 36 302t115 269q94 137 222.5 198.5t304.5 61.5q78 0 179 -25.5t196 -97.5l-66 -422q-2 -25 -15.5 -36t-28.5 -13t-30.5 6.5t-21.5 24.5q-39 61 -80 103t-74 46q-12 1 -23 1q-55 0 -97 -24q-50 -30 -83.5 -80t-53 -113.5t-30.5 -127.5q-6 -35 -6 -123 q0 -57 5.5 -126.5t22.5 -129t48 -100.5t80 -43h7q34 0 57 19q26 22 40.5 57t20.5 77t6 83q0 12 1 17t1 6v4t-2 13h-147v367h546q8 -92 14.5 -181t6.5 -165q0 -147 -27.5 -282.5t-105.5 -233.5q-66 -76 -164 -118t-240 -42h-32.5t-32.5 2q-160 14 -265.5 91t-168 191.5 t-89 256t-26.5 287.5z" />
<glyph unicode="h" horiz-adv-x="1077" d="M20 -51v1591h435v-596h168v596h434v-1591h-434v626h-168v-626h-435z" />
<glyph unicode="i" horiz-adv-x="509" d="M37 -51v1591h436v-1591h-436z" />
<glyph unicode="j" horiz-adv-x="878" d="M-10 20l8 365q0 33 10 45t27 16q4 1 8 1q28 0 45 -35q53 -78 108.5 -107t104.5 -29q23 0 44.5 4.5t36.5 15.5t25.5 32.5t10.5 56.5v1155h430v-1192q0 -121 -42 -203t-110.5 -132t-159 -71.5t-188.5 -21.5q-90 0 -184 23.5t-174 76.5z" />
<glyph unicode="k" horiz-adv-x="1073" d="M31 -51v1591h434v-375l199 375h475l-357 -659l328 -932h-467l-170 508l-8 -17v-491h-434z" />
<glyph unicode="l" horiz-adv-x="823" d="M31 -51v1591h426v-1198h362v-393h-788z" />
<glyph unicode="m" horiz-adv-x="1267" d="M31 -51v1591h430l174 -547l172 547h430v-1591h-426v467l-176 -498l-178 498v-467h-426z" />
<glyph unicode="n" horiz-adv-x="1069" d="M31 -51v1591h362l228 -534v534h417v-1591h-346l-239 536v-536h-422z" />
<glyph unicode="o" horiz-adv-x="1243" d="M-2 750q0 150 30.5 298t103.5 266t192.5 191.5t298.5 73.5q176 0 295.5 -73.5t191.5 -191.5t102.5 -266.5t30.5 -297.5q0 -152 -29.5 -300.5t-101.5 -266t-191.5 -190.5t-297.5 -73q-180 0 -299 73t-192 190.5t-102.5 266t-31.5 300.5zM444 745q0 -70 7.5 -148.5t28 -146 t54 -113.5t89.5 -48q53 2 87.5 48t54 113.5t27 146t7.5 148.5q0 68 -7.5 140.5t-27 134t-54 103.5t-87.5 48q-55 -6 -90 -48t-54.5 -103.5t-27 -134t-7.5 -140.5z" />
<glyph unicode="p" horiz-adv-x="1067" d="M31 -51v1589q78 2 136 7t113.5 11.5t118 11.5t146.5 5q74 0 143.5 -19.5t130 -56.5t108.5 -91t79 -124q37 -84 53 -176t16 -184q0 -96 -16.5 -183.5t-44.5 -152.5q-66 -143 -177.5 -218t-246.5 -75q-70 0 -137 18v-362h-422zM453 696q14 -10 35 -16q12 -4 24 -4q8 0 16 2 q49 10 85 76q32 58 32 157v23q-4 141 -42 199.5t-99 58.5q-20 0 -51 -6v-490z" />
<glyph unicode="q" horiz-adv-x="1267" d="M-2 752q0 152 31.5 300t106.5 265t197 189.5t300 72.5q180 0 302 -72.5t196.5 -190.5t105.5 -267.5t31 -300.5q0 -119 -20.5 -238t-65.5 -223.5t-118 -187.5t-177 -132q6 -43 6 -86q-2 -61 -27.5 -109t-66.5 -80t-93.5 -49.5t-107.5 -17.5q-90 0 -178 50.5t-135 136.5 l108 149q-111 43 -186.5 126t-121.5 190.5t-66.5 229.5t-20.5 245zM440 748q0 -57 6.5 -132t22.5 -139v12q0 74 23 131q26 60 74 100t115 59.5t146 21.5q0 68 -11 132t-33.5 116.5t-59.5 85t-92 36.5q-55 -4 -92 -44t-58.5 -101t-31 -134.5t-9.5 -143.5zM774 365 q10 35 22.5 76.5t20.5 80.5q-16 -8 -25.5 -25.5t-13.5 -41t-4 -47v-43.5z" />
<glyph unicode="r" horiz-adv-x="1048" d="M31 -51v1591q55 0 108.5 4t102.5 10q59 6 115.5 12.5t101.5 6.5q78 0 163 -9.5t166 -52.5q135 -70 206 -216q64 -131 64 -346q0 -24 -1 -50q-16 -188 -72.5 -291.5t-155.5 -152.5l258 -506h-464l-170 352v-352h-422zM453 741q20 -6 41 -6q37 0 63.5 19.5t43.5 52.5 t25.5 76t8.5 90q0 39 -6 76.5t-21.5 68.5t-40 49.5t-61.5 18.5q-12 0 -26.5 -1t-26.5 -3v-441z" />
<glyph unicode="s" horiz-adv-x="937" d="M-10 1012q0 80 13 148.5t34 109.5q31 70 79 128t114.5 100t152.5 64q73 18 159 18q16 0 33 -1q27 0 64 -8t76 -22.5t79 -36t72 -48.5l-51 -436q-2 -18 -13 -27.5t-24.5 -10.5t-26 4t-18.5 18q-25 43 -48 70.5t-43.5 44t-39 22.5t-33.5 8q-66 0 -103.5 -39t-41.5 -102v-14 q0 -49 24 -79q28 -34 84 -57q80 -33 150 -65.5t124 -79.5t90 -119t48 -180q3 -27 4 -55q0 -60 -16 -121q-22 -90 -58 -150q-33 -49 -78.5 -82.5t-98 -54t-107.5 -30t-109 -9.5q-51 0 -107.5 8.5t-110.5 23.5t-104 36.5t-89 48.5l20 364q2 29 13.5 44.5t27.5 15.5 q14 0 24.5 -7.5t20.5 -19.5t22.5 -29.5t32.5 -37.5q53 -53 106.5 -74t90.5 -21q33 0 56.5 16.5t27.5 47.5q2 12 2 24q0 33 -12 65q-16 44 -56 71q-29 20 -63.5 34.5t-71.5 28.5q-43 16 -85 35.5t-81 47.5t-71.5 69t-53.5 100q-16 47 -23 97t-7 104z" />
<glyph unicode="t" horiz-adv-x="1001" d="M-14 1157l30 383h965l35 -383h-289v-1208h-438v1208h-303z" />
<glyph unicode="u" horiz-adv-x="1105" d="M31 410v1130h430v-1110q0 -29 2 -52.5t11 -41t27.5 -27.5t51.5 -10t51.5 10t27.5 27.5t11 41t2 52.5v1110h430v-1130q0 -254 -135 -372t-387 -118q-250 0 -386 118t-136 372z" />
<glyph unicode="v" horiz-adv-x="1089" d="M-31 1540h451l127 -840l125 840h448l-329 -1591h-490z" />
<glyph unicode="w" horiz-adv-x="1476" d="M-31 1540h447l57 -590l98 590h332l96 -590l58 590h450l-290 -1591h-394l-86 563l-84 -563h-395z" />
<glyph unicode="x" horiz-adv-x="1085" d="M-49 -51l317 819l-303 772h459l119 -391l119 391h458l-303 -772l318 -819h-469l-123 407l-123 -407h-469z" />
<glyph unicode="y" horiz-adv-x="1173" d="M-49 1540h473l164 -522l157 522h480l-424 -1067v-524h-432v526z" />
<glyph unicode="z" horiz-adv-x="933" d="M0 -51v252l432 956h-395v383h897v-274l-406 -924h336v-393h-864z" />
<glyph unicode="{" d="M68 731q0 150 56 282t154.5 230t230.5 155.5t282 57.5t281.5 -57.5t230 -155.5t156 -230t57.5 -282t-57.5 -282t-156 -230t-230 -155.5t-281.5 -57.5t-282 57.5t-230.5 155.5t-154.5 230.5t-56 281.5zM164 731q0 -129 49 -242.5t135 -199.5t200 -135.5t243 -49.5 q131 0 244.5 49.5t197.5 135.5t133 199.5t49 242.5t-49 242.5t-133 198.5t-197.5 134.5t-244.5 49.5q-129 0 -243 -49.5t-200 -134.5t-135 -198.5t-49 -242.5zM207 731q0 119 46 224.5t126 184.5t185.5 124t226.5 45q119 0 225 -45t185 -124t125 -184.5t46 -224.5 q0 -121 -46 -227.5t-125 -185t-185 -125t-225 -46.5q-121 0 -226.5 46.5t-185.5 125t-126 185t-46 227.5zM330 664l112 -177q346 -80 699 0l110 177h-921zM451 1063l151 -189q4 -4 15.5 -0.5t23.5 9.5t20.5 12t8.5 8q-29 57 -47.5 118.5t-53.5 111.5q-6 8 -26.5 -0.5 t-42 -22.5t-38 -28.5t-11.5 -18.5zM463 457q20 -35 51 -74t73 -70.5t92.5 -53t111.5 -21.5q59 0 110 21.5t92 53t73 70.5t52 74q-164 -43 -326.5 -42t-328.5 42zM715 731h155l-77 187zM918 903q-4 -2 4 -8t19 -12t23.5 -9.5t18.5 0.5l147 189q4 4 -11 18.5t-36.5 28.5 t-42 22.5t-26.5 0.5q-39 -49 -55.5 -110.5t-40.5 -119.5zM1290 102v23h84v-23h-31v-77h-22v77h-31zM1384 25v100h31l19 -78l18 78h29v-100h-19v77l-20 -77h-19l-20 77v-77h-19z" />
<glyph unicode="|" d="M68 731q0 150 56 282t154.5 230t230.5 155.5t282 57.5t281.5 -57.5t230 -155.5t156 -230t57.5 -282t-57.5 -282t-156 -230t-230 -155.5t-281.5 -57.5t-282 57.5t-230.5 155.5t-154.5 230.5t-56 281.5zM164 731q0 -129 49 -242.5t135 -199.5t200 -135.5t243 -49.5 q131 0 244.5 49.5t197.5 135.5t133 199.5t49 242.5t-49 242.5t-133 198.5t-197.5 134.5t-244.5 49.5q-129 0 -243 -49.5t-200 -134.5t-135 -198.5t-49 -242.5zM207 731q0 119 46 224.5t126 184.5t185.5 124t226.5 45q119 0 225 -45t185 -124t125 -184.5t46 -224.5 q0 -121 -46 -227.5t-125 -185t-185 -125t-225 -46.5q-121 0 -226.5 46.5t-185.5 125t-126 185t-46 227.5zM330 664l112 -177q346 -80 699 0l110 177h-921zM451 1063l151 -189q4 -4 15.5 -0.5t23.5 9.5t20.5 12t8.5 8q-29 57 -47.5 118.5t-53.5 111.5q-6 8 -26.5 -0.5 t-42 -22.5t-38 -28.5t-11.5 -18.5zM463 457q20 -35 51 -74t73 -70.5t92.5 -53t111.5 -21.5q59 0 110 21.5t92 53t73 70.5t52 74q-164 -43 -326.5 -42t-328.5 42zM715 731h155l-77 187zM918 903q-4 -2 4 -8t19 -12t23.5 -9.5t18.5 0.5l147 189q4 4 -11 18.5t-36.5 28.5 t-42 22.5t-26.5 0.5q-39 -49 -55.5 -110.5t-40.5 -119.5zM1290 102v23h84v-23h-31v-77h-22v77h-31zM1384 25v100h31l19 -78l18 78h29v-100h-19v77l-20 -77h-19l-20 77v-77h-19z" />
<glyph unicode="}" d="M68 731q0 150 56 282t154.5 230t230.5 155.5t282 57.5t281.5 -57.5t230 -155.5t156 -230t57.5 -282t-57.5 -282t-156 -230t-230 -155.5t-281.5 -57.5t-282 57.5t-230.5 155.5t-154.5 230.5t-56 281.5zM164 731q0 -129 49 -242.5t135 -199.5t200 -135.5t243 -49.5 q131 0 244.5 49.5t197.5 135.5t133 199.5t49 242.5t-49 242.5t-133 198.5t-197.5 134.5t-244.5 49.5q-129 0 -243 -49.5t-200 -134.5t-135 -198.5t-49 -242.5zM207 731q0 119 46 224.5t126 184.5t185.5 124t226.5 45q119 0 225 -45t185 -124t125 -184.5t46 -224.5 q0 -121 -46 -227.5t-125 -185t-185 -125t-225 -46.5q-121 0 -226.5 46.5t-185.5 125t-126 185t-46 227.5zM330 664l112 -177q346 -80 699 0l110 177h-921zM451 1063l151 -189q4 -4 15.5 -0.5t23.5 9.5t20.5 12t8.5 8q-29 57 -47.5 118.5t-53.5 111.5q-6 8 -26.5 -0.5 t-42 -22.5t-38 -28.5t-11.5 -18.5zM463 457q20 -35 51 -74t73 -70.5t92.5 -53t111.5 -21.5q59 0 110 21.5t92 53t73 70.5t52 74q-164 -43 -326.5 -42t-328.5 42zM715 731h155l-77 187zM918 903q-4 -2 4 -8t19 -12t23.5 -9.5t18.5 0.5l147 189q4 4 -11 18.5t-36.5 28.5 t-42 22.5t-26.5 0.5q-39 -49 -55.5 -110.5t-40.5 -119.5zM1290 102v23h84v-23h-31v-77h-22v77h-31zM1384 25v100h31l19 -78l18 78h29v-100h-19v77l-20 -77h-19l-20 77v-77h-19z" />
<glyph unicode="~" d="M68 731q0 150 56 282t154.5 230t230.5 155.5t282 57.5t281.5 -57.5t230 -155.5t156 -230t57.5 -282t-57.5 -282t-156 -230t-230 -155.5t-281.5 -57.5t-282 57.5t-230.5 155.5t-154.5 230.5t-56 281.5zM164 731q0 -129 49 -242.5t135 -199.5t200 -135.5t243 -49.5 q131 0 244.5 49.5t197.5 135.5t133 199.5t49 242.5t-49 242.5t-133 198.5t-197.5 134.5t-244.5 49.5q-129 0 -243 -49.5t-200 -134.5t-135 -198.5t-49 -242.5zM207 731q0 119 46 224.5t126 184.5t185.5 124t226.5 45q119 0 225 -45t185 -124t125 -184.5t46 -224.5 q0 -121 -46 -227.5t-125 -185t-185 -125t-225 -46.5q-121 0 -226.5 46.5t-185.5 125t-126 185t-46 227.5zM330 664l112 -177q346 -80 699 0l110 177h-921zM451 1063l151 -189q4 -4 15.5 -0.5t23.5 9.5t20.5 12t8.5 8q-29 57 -47.5 118.5t-53.5 111.5q-6 8 -26.5 -0.5 t-42 -22.5t-38 -28.5t-11.5 -18.5zM463 457q20 -35 51 -74t73 -70.5t92.5 -53t111.5 -21.5q59 0 110 21.5t92 53t73 70.5t52 74q-164 -43 -326.5 -42t-328.5 42zM715 731h155l-77 187zM918 903q-4 -2 4 -8t19 -12t23.5 -9.5t18.5 0.5l147 189q4 4 -11 18.5t-36.5 28.5 t-42 22.5t-26.5 0.5q-39 -49 -55.5 -110.5t-40.5 -119.5zM1290 102v23h84v-23h-31v-77h-22v77h-31zM1384 25v100h31l19 -78l18 78h29v-100h-19v77l-20 -77h-19l-20 77v-77h-19z" />
<glyph unicode="&#xa1;" d="M68 731q0 150 56 282t154.5 230t230.5 155.5t282 57.5t281.5 -57.5t230 -155.5t156 -230t57.5 -282t-57.5 -282t-156 -230t-230 -155.5t-281.5 -57.5t-282 57.5t-230.5 155.5t-154.5 230.5t-56 281.5zM164 731q0 -129 49 -242.5t135 -199.5t200 -135.5t243 -49.5 q131 0 244.5 49.5t197.5 135.5t133 199.5t49 242.5t-49 242.5t-133 198.5t-197.5 134.5t-244.5 49.5q-129 0 -243 -49.5t-200 -134.5t-135 -198.5t-49 -242.5zM207 731q0 119 46 224.5t126 184.5t185.5 124t226.5 45q119 0 225 -45t185 -124t125 -184.5t46 -224.5 q0 -121 -46 -227.5t-125 -185t-185 -125t-225 -46.5q-121 0 -226.5 46.5t-185.5 125t-126 185t-46 227.5zM330 664l112 -177q346 -80 699 0l110 177h-921zM451 1063l151 -189q4 -4 15.5 -0.5t23.5 9.5t20.5 12t8.5 8q-29 57 -47.5 118.5t-53.5 111.5q-6 8 -26.5 -0.5 t-42 -22.5t-38 -28.5t-11.5 -18.5zM463 457q20 -35 51 -74t73 -70.5t92.5 -53t111.5 -21.5q59 0 110 21.5t92 53t73 70.5t52 74q-164 -43 -326.5 -42t-328.5 42zM715 731h155l-77 187zM918 903q-4 -2 4 -8t19 -12t23.5 -9.5t18.5 0.5l147 189q4 4 -11 18.5t-36.5 28.5 t-42 22.5t-26.5 0.5q-39 -49 -55.5 -110.5t-40.5 -119.5zM1290 102v23h84v-23h-31v-77h-22v77h-31zM1384 25v100h31l19 -78l18 78h29v-100h-19v77l-20 -77h-19l-20 77v-77h-19z" />
<glyph unicode="&#xa2;" d="M68 731q0 150 56 282t154.5 230t230.5 155.5t282 57.5t281.5 -57.5t230 -155.5t156 -230t57.5 -282t-57.5 -282t-156 -230t-230 -155.5t-281.5 -57.5t-282 57.5t-230.5 155.5t-154.5 230.5t-56 281.5zM164 731q0 -129 49 -242.5t135 -199.5t200 -135.5t243 -49.5 q131 0 244.5 49.5t197.5 135.5t133 199.5t49 242.5t-49 242.5t-133 198.5t-197.5 134.5t-244.5 49.5q-129 0 -243 -49.5t-200 -134.5t-135 -198.5t-49 -242.5zM207 731q0 119 46 224.5t126 184.5t185.5 124t226.5 45q119 0 225 -45t185 -124t125 -184.5t46 -224.5 q0 -121 -46 -227.5t-125 -185t-185 -125t-225 -46.5q-121 0 -226.5 46.5t-185.5 125t-126 185t-46 227.5zM330 664l112 -177q346 -80 699 0l110 177h-921zM451 1063l151 -189q4 -4 15.5 -0.5t23.5 9.5t20.5 12t8.5 8q-29 57 -47.5 118.5t-53.5 111.5q-6 8 -26.5 -0.5 t-42 -22.5t-38 -28.5t-11.5 -18.5zM463 457q20 -35 51 -74t73 -70.5t92.5 -53t111.5 -21.5q59 0 110 21.5t92 53t73 70.5t52 74q-164 -43 -326.5 -42t-328.5 42zM715 731h155l-77 187zM918 903q-4 -2 4 -8t19 -12t23.5 -9.5t18.5 0.5l147 189q4 4 -11 18.5t-36.5 28.5 t-42 22.5t-26.5 0.5q-39 -49 -55.5 -110.5t-40.5 -119.5zM1290 102v23h84v-23h-31v-77h-22v77h-31zM1384 25v100h31l19 -78l18 78h29v-100h-19v77l-20 -77h-19l-20 77v-77h-19z" />
<glyph unicode="&#xa3;" d="M68 731q0 150 56 282t154.5 230t230.5 155.5t282 57.5t281.5 -57.5t230 -155.5t156 -230t57.5 -282t-57.5 -282t-156 -230t-230 -155.5t-281.5 -57.5t-282 57.5t-230.5 155.5t-154.5 230.5t-56 281.5zM164 731q0 -129 49 -242.5t135 -199.5t200 -135.5t243 -49.5 q131 0 244.5 49.5t197.5 135.5t133 199.5t49 242.5t-49 242.5t-133 198.5t-197.5 134.5t-244.5 49.5q-129 0 -243 -49.5t-200 -134.5t-135 -198.5t-49 -242.5zM207 731q0 119 46 224.5t126 184.5t185.5 124t226.5 45q119 0 225 -45t185 -124t125 -184.5t46 -224.5 q0 -121 -46 -227.5t-125 -185t-185 -125t-225 -46.5q-121 0 -226.5 46.5t-185.5 125t-126 185t-46 227.5zM330 664l112 -177q346 -80 699 0l110 177h-921zM451 1063l151 -189q4 -4 15.5 -0.5t23.5 9.5t20.5 12t8.5 8q-29 57 -47.5 118.5t-53.5 111.5q-6 8 -26.5 -0.5 t-42 -22.5t-38 -28.5t-11.5 -18.5zM463 457q20 -35 51 -74t73 -70.5t92.5 -53t111.5 -21.5q59 0 110 21.5t92 53t73 70.5t52 74q-164 -43 -326.5 -42t-328.5 42zM715 731h155l-77 187zM918 903q-4 -2 4 -8t19 -12t23.5 -9.5t18.5 0.5l147 189q4 4 -11 18.5t-36.5 28.5 t-42 22.5t-26.5 0.5q-39 -49 -55.5 -110.5t-40.5 -119.5zM1290 102v23h84v-23h-31v-77h-22v77h-31zM1384 25v100h31l19 -78l18 78h29v-100h-19v77l-20 -77h-19l-20 77v-77h-19z" />
<glyph unicode="&#xa4;" d="M68 731q0 150 56 282t154.5 230t230.5 155.5t282 57.5t281.5 -57.5t230 -155.5t156 -230t57.5 -282t-57.5 -282t-156 -230t-230 -155.5t-281.5 -57.5t-282 57.5t-230.5 155.5t-154.5 230.5t-56 281.5zM164 731q0 -129 49 -242.5t135 -199.5t200 -135.5t243 -49.5 q131 0 244.5 49.5t197.5 135.5t133 199.5t49 242.5t-49 242.5t-133 198.5t-197.5 134.5t-244.5 49.5q-129 0 -243 -49.5t-200 -134.5t-135 -198.5t-49 -242.5zM207 731q0 119 46 224.5t126 184.5t185.5 124t226.5 45q119 0 225 -45t185 -124t125 -184.5t46 -224.5 q0 -121 -46 -227.5t-125 -185t-185 -125t-225 -46.5q-121 0 -226.5 46.5t-185.5 125t-126 185t-46 227.5zM330 664l112 -177q346 -80 699 0l110 177h-921zM451 1063l151 -189q4 -4 15.5 -0.5t23.5 9.5t20.5 12t8.5 8q-29 57 -47.5 118.5t-53.5 111.5q-6 8 -26.5 -0.5 t-42 -22.5t-38 -28.5t-11.5 -18.5zM463 457q20 -35 51 -74t73 -70.5t92.5 -53t111.5 -21.5q59 0 110 21.5t92 53t73 70.5t52 74q-164 -43 -326.5 -42t-328.5 42zM715 731h155l-77 187zM918 903q-4 -2 4 -8t19 -12t23.5 -9.5t18.5 0.5l147 189q4 4 -11 18.5t-36.5 28.5 t-42 22.5t-26.5 0.5q-39 -49 -55.5 -110.5t-40.5 -119.5zM1290 102v23h84v-23h-31v-77h-22v77h-31zM1384 25v100h31l19 -78l18 78h29v-100h-19v77l-20 -77h-19l-20 77v-77h-19z" />
<glyph unicode="&#xa5;" d="M68 731q0 150 56 282t154.5 230t230.5 155.5t282 57.5t281.5 -57.5t230 -155.5t156 -230t57.5 -282t-57.5 -282t-156 -230t-230 -155.5t-281.5 -57.5t-282 57.5t-230.5 155.5t-154.5 230.5t-56 281.5zM164 731q0 -129 49 -242.5t135 -199.5t200 -135.5t243 -49.5 q131 0 244.5 49.5t197.5 135.5t133 199.5t49 242.5t-49 242.5t-133 198.5t-197.5 134.5t-244.5 49.5q-129 0 -243 -49.5t-200 -134.5t-135 -198.5t-49 -242.5zM207 731q0 119 46 224.5t126 184.5t185.5 124t226.5 45q119 0 225 -45t185 -124t125 -184.5t46 -224.5 q0 -121 -46 -227.5t-125 -185t-185 -125t-225 -46.5q-121 0 -226.5 46.5t-185.5 125t-126 185t-46 227.5zM330 664l112 -177q346 -80 699 0l110 177h-921zM451 1063l151 -189q4 -4 15.5 -0.5t23.5 9.5t20.5 12t8.5 8q-29 57 -47.5 118.5t-53.5 111.5q-6 8 -26.5 -0.5 t-42 -22.5t-38 -28.5t-11.5 -18.5zM463 457q20 -35 51 -74t73 -70.5t92.5 -53t111.5 -21.5q59 0 110 21.5t92 53t73 70.5t52 74q-164 -43 -326.5 -42t-328.5 42zM715 731h155l-77 187zM918 903q-4 -2 4 -8t19 -12t23.5 -9.5t18.5 0.5l147 189q4 4 -11 18.5t-36.5 28.5 t-42 22.5t-26.5 0.5q-39 -49 -55.5 -110.5t-40.5 -119.5zM1290 102v23h84v-23h-31v-77h-22v77h-31zM1384 25v100h31l19 -78l18 78h29v-100h-19v77l-20 -77h-19l-20 77v-77h-19z" />
<glyph unicode="&#xa6;" d="M68 731q0 150 56 282t154.5 230t230.5 155.5t282 57.5t281.5 -57.5t230 -155.5t156 -230t57.5 -282t-57.5 -282t-156 -230t-230 -155.5t-281.5 -57.5t-282 57.5t-230.5 155.5t-154.5 230.5t-56 281.5zM164 731q0 -129 49 -242.5t135 -199.5t200 -135.5t243 -49.5 q131 0 244.5 49.5t197.5 135.5t133 199.5t49 242.5t-49 242.5t-133 198.5t-197.5 134.5t-244.5 49.5q-129 0 -243 -49.5t-200 -134.5t-135 -198.5t-49 -242.5zM207 731q0 119 46 224.5t126 184.5t185.5 124t226.5 45q119 0 225 -45t185 -124t125 -184.5t46 -224.5 q0 -121 -46 -227.5t-125 -185t-185 -125t-225 -46.5q-121 0 -226.5 46.5t-185.5 125t-126 185t-46 227.5zM330 664l112 -177q346 -80 699 0l110 177h-921zM451 1063l151 -189q4 -4 15.5 -0.5t23.5 9.5t20.5 12t8.5 8q-29 57 -47.5 118.5t-53.5 111.5q-6 8 -26.5 -0.5 t-42 -22.5t-38 -28.5t-11.5 -18.5zM463 457q20 -35 51 -74t73 -70.5t92.5 -53t111.5 -21.5q59 0 110 21.5t92 53t73 70.5t52 74q-164 -43 -326.5 -42t-328.5 42zM715 731h155l-77 187zM918 903q-4 -2 4 -8t19 -12t23.5 -9.5t18.5 0.5l147 189q4 4 -11 18.5t-36.5 28.5 t-42 22.5t-26.5 0.5q-39 -49 -55.5 -110.5t-40.5 -119.5zM1290 102v23h84v-23h-31v-77h-22v77h-31zM1384 25v100h31l19 -78l18 78h29v-100h-19v77l-20 -77h-19l-20 77v-77h-19z" />
<glyph unicode="&#xa7;" d="M68 731q0 150 56 282t154.5 230t230.5 155.5t282 57.5t281.5 -57.5t230 -155.5t156 -230t57.5 -282t-57.5 -282t-156 -230t-230 -155.5t-281.5 -57.5t-282 57.5t-230.5 155.5t-154.5 230.5t-56 281.5zM164 731q0 -129 49 -242.5t135 -199.5t200 -135.5t243 -49.5 q131 0 244.5 49.5t197.5 135.5t133 199.5t49 242.5t-49 242.5t-133 198.5t-197.5 134.5t-244.5 49.5q-129 0 -243 -49.5t-200 -134.5t-135 -198.5t-49 -242.5zM207 731q0 119 46 224.5t126 184.5t185.5 124t226.5 45q119 0 225 -45t185 -124t125 -184.5t46 -224.5 q0 -121 -46 -227.5t-125 -185t-185 -125t-225 -46.5q-121 0 -226.5 46.5t-185.5 125t-126 185t-46 227.5zM330 664l112 -177q346 -80 699 0l110 177h-921zM451 1063l151 -189q4 -4 15.5 -0.5t23.5 9.5t20.5 12t8.5 8q-29 57 -47.5 118.5t-53.5 111.5q-6 8 -26.5 -0.5 t-42 -22.5t-38 -28.5t-11.5 -18.5zM463 457q20 -35 51 -74t73 -70.5t92.5 -53t111.5 -21.5q59 0 110 21.5t92 53t73 70.5t52 74q-164 -43 -326.5 -42t-328.5 42zM715 731h155l-77 187zM918 903q-4 -2 4 -8t19 -12t23.5 -9.5t18.5 0.5l147 189q4 4 -11 18.5t-36.5 28.5 t-42 22.5t-26.5 0.5q-39 -49 -55.5 -110.5t-40.5 -119.5zM1290 102v23h84v-23h-31v-77h-22v77h-31zM1384 25v100h31l19 -78l18 78h29v-100h-19v77l-20 -77h-19l-20 77v-77h-19z" />
<glyph unicode="&#xa8;" d="M68 731q0 150 56 282t154.5 230t230.5 155.5t282 57.5t281.5 -57.5t230 -155.5t156 -230t57.5 -282t-57.5 -282t-156 -230t-230 -155.5t-281.5 -57.5t-282 57.5t-230.5 155.5t-154.5 230.5t-56 281.5zM164 731q0 -129 49 -242.5t135 -199.5t200 -135.5t243 -49.5 q131 0 244.5 49.5t197.5 135.5t133 199.5t49 242.5t-49 242.5t-133 198.5t-197.5 134.5t-244.5 49.5q-129 0 -243 -49.5t-200 -134.5t-135 -198.5t-49 -242.5zM207 731q0 119 46 224.5t126 184.5t185.5 124t226.5 45q119 0 225 -45t185 -124t125 -184.5t46 -224.5 q0 -121 -46 -227.5t-125 -185t-185 -125t-225 -46.5q-121 0 -226.5 46.5t-185.5 125t-126 185t-46 227.5zM330 664l112 -177q346 -80 699 0l110 177h-921zM451 1063l151 -189q4 -4 15.5 -0.5t23.5 9.5t20.5 12t8.5 8q-29 57 -47.5 118.5t-53.5 111.5q-6 8 -26.5 -0.5 t-42 -22.5t-38 -28.5t-11.5 -18.5zM463 457q20 -35 51 -74t73 -70.5t92.5 -53t111.5 -21.5q59 0 110 21.5t92 53t73 70.5t52 74q-164 -43 -326.5 -42t-328.5 42zM715 731h155l-77 187zM918 903q-4 -2 4 -8t19 -12t23.5 -9.5t18.5 0.5l147 189q4 4 -11 18.5t-36.5 28.5 t-42 22.5t-26.5 0.5q-39 -49 -55.5 -110.5t-40.5 -119.5zM1290 102v23h84v-23h-31v-77h-22v77h-31zM1384 25v100h31l19 -78l18 78h29v-100h-19v77l-20 -77h-19l-20 77v-77h-19z" />
<glyph unicode="&#xa9;" d="M68 731q0 150 56 282t154.5 230t230.5 155.5t282 57.5t281.5 -57.5t230 -155.5t156 -230t57.5 -282t-57.5 -282t-156 -230t-230 -155.5t-281.5 -57.5t-282 57.5t-230.5 155.5t-154.5 230.5t-56 281.5zM164 731q0 -129 49 -242.5t135 -199.5t200 -135.5t243 -49.5 q131 0 244.5 49.5t197.5 135.5t133 199.5t49 242.5t-49 242.5t-133 198.5t-197.5 134.5t-244.5 49.5q-129 0 -243 -49.5t-200 -134.5t-135 -198.5t-49 -242.5zM207 731q0 119 46 224.5t126 184.5t185.5 124t226.5 45q119 0 225 -45t185 -124t125 -184.5t46 -224.5 q0 -121 -46 -227.5t-125 -185t-185 -125t-225 -46.5q-121 0 -226.5 46.5t-185.5 125t-126 185t-46 227.5zM330 664l112 -177q346 -80 699 0l110 177h-921zM451 1063l151 -189q4 -4 15.5 -0.5t23.5 9.5t20.5 12t8.5 8q-29 57 -47.5 118.5t-53.5 111.5q-6 8 -26.5 -0.5 t-42 -22.5t-38 -28.5t-11.5 -18.5zM463 457q20 -35 51 -74t73 -70.5t92.5 -53t111.5 -21.5q59 0 110 21.5t92 53t73 70.5t52 74q-164 -43 -326.5 -42t-328.5 42zM715 731h155l-77 187zM918 903q-4 -2 4 -8t19 -12t23.5 -9.5t18.5 0.5l147 189q4 4 -11 18.5t-36.5 28.5 t-42 22.5t-26.5 0.5q-39 -49 -55.5 -110.5t-40.5 -119.5zM1290 102v23h84v-23h-31v-77h-22v77h-31zM1384 25v100h31l19 -78l18 78h29v-100h-19v77l-20 -77h-19l-20 77v-77h-19z" />
<glyph unicode="&#xaa;" d="M68 731q0 150 56 282t154.5 230t230.5 155.5t282 57.5t281.5 -57.5t230 -155.5t156 -230t57.5 -282t-57.5 -282t-156 -230t-230 -155.5t-281.5 -57.5t-282 57.5t-230.5 155.5t-154.5 230.5t-56 281.5zM164 731q0 -129 49 -242.5t135 -199.5t200 -135.5t243 -49.5 q131 0 244.5 49.5t197.5 135.5t133 199.5t49 242.5t-49 242.5t-133 198.5t-197.5 134.5t-244.5 49.5q-129 0 -243 -49.5t-200 -134.5t-135 -198.5t-49 -242.5zM207 731q0 119 46 224.5t126 184.5t185.5 124t226.5 45q119 0 225 -45t185 -124t125 -184.5t46 -224.5 q0 -121 -46 -227.5t-125 -185t-185 -125t-225 -46.5q-121 0 -226.5 46.5t-185.5 125t-126 185t-46 227.5zM330 664l112 -177q346 -80 699 0l110 177h-921zM451 1063l151 -189q4 -4 15.5 -0.5t23.5 9.5t20.5 12t8.5 8q-29 57 -47.5 118.5t-53.5 111.5q-6 8 -26.5 -0.5 t-42 -22.5t-38 -28.5t-11.5 -18.5zM463 457q20 -35 51 -74t73 -70.5t92.5 -53t111.5 -21.5q59 0 110 21.5t92 53t73 70.5t52 74q-164 -43 -326.5 -42t-328.5 42zM715 731h155l-77 187zM918 903q-4 -2 4 -8t19 -12t23.5 -9.5t18.5 0.5l147 189q4 4 -11 18.5t-36.5 28.5 t-42 22.5t-26.5 0.5q-39 -49 -55.5 -110.5t-40.5 -119.5zM1290 102v23h84v-23h-31v-77h-22v77h-31zM1384 25v100h31l19 -78l18 78h29v-100h-19v77l-20 -77h-19l-20 77v-77h-19z" />
<glyph unicode="&#xab;" d="M68 731q0 150 56 282t154.5 230t230.5 155.5t282 57.5t281.5 -57.5t230 -155.5t156 -230t57.5 -282t-57.5 -282t-156 -230t-230 -155.5t-281.5 -57.5t-282 57.5t-230.5 155.5t-154.5 230.5t-56 281.5zM164 731q0 -129 49 -242.5t135 -199.5t200 -135.5t243 -49.5 q131 0 244.5 49.5t197.5 135.5t133 199.5t49 242.5t-49 242.5t-133 198.5t-197.5 134.5t-244.5 49.5q-129 0 -243 -49.5t-200 -134.5t-135 -198.5t-49 -242.5zM207 731q0 119 46 224.5t126 184.5t185.5 124t226.5 45q119 0 225 -45t185 -124t125 -184.5t46 -224.5 q0 -121 -46 -227.5t-125 -185t-185 -125t-225 -46.5q-121 0 -226.5 46.5t-185.5 125t-126 185t-46 227.5zM330 664l112 -177q346 -80 699 0l110 177h-921zM451 1063l151 -189q4 -4 15.5 -0.5t23.5 9.5t20.5 12t8.5 8q-29 57 -47.5 118.5t-53.5 111.5q-6 8 -26.5 -0.5 t-42 -22.5t-38 -28.5t-11.5 -18.5zM463 457q20 -35 51 -74t73 -70.5t92.5 -53t111.5 -21.5q59 0 110 21.5t92 53t73 70.5t52 74q-164 -43 -326.5 -42t-328.5 42zM715 731h155l-77 187zM918 903q-4 -2 4 -8t19 -12t23.5 -9.5t18.5 0.5l147 189q4 4 -11 18.5t-36.5 28.5 t-42 22.5t-26.5 0.5q-39 -49 -55.5 -110.5t-40.5 -119.5zM1290 102v23h84v-23h-31v-77h-22v77h-31zM1384 25v100h31l19 -78l18 78h29v-100h-19v77l-20 -77h-19l-20 77v-77h-19z" />
<glyph unicode="&#xac;" d="M68 731q0 150 56 282t154.5 230t230.5 155.5t282 57.5t281.5 -57.5t230 -155.5t156 -230t57.5 -282t-57.5 -282t-156 -230t-230 -155.5t-281.5 -57.5t-282 57.5t-230.5 155.5t-154.5 230.5t-56 281.5zM164 731q0 -129 49 -242.5t135 -199.5t200 -135.5t243 -49.5 q131 0 244.5 49.5t197.5 135.5t133 199.5t49 242.5t-49 242.5t-133 198.5t-197.5 134.5t-244.5 49.5q-129 0 -243 -49.5t-200 -134.5t-135 -198.5t-49 -242.5zM207 731q0 119 46 224.5t126 184.5t185.5 124t226.5 45q119 0 225 -45t185 -124t125 -184.5t46 -224.5 q0 -121 -46 -227.5t-125 -185t-185 -125t-225 -46.5q-121 0 -226.5 46.5t-185.5 125t-126 185t-46 227.5zM330 664l112 -177q346 -80 699 0l110 177h-921zM451 1063l151 -189q4 -4 15.5 -0.5t23.5 9.5t20.5 12t8.5 8q-29 57 -47.5 118.5t-53.5 111.5q-6 8 -26.5 -0.5 t-42 -22.5t-38 -28.5t-11.5 -18.5zM463 457q20 -35 51 -74t73 -70.5t92.5 -53t111.5 -21.5q59 0 110 21.5t92 53t73 70.5t52 74q-164 -43 -326.5 -42t-328.5 42zM715 731h155l-77 187zM918 903q-4 -2 4 -8t19 -12t23.5 -9.5t18.5 0.5l147 189q4 4 -11 18.5t-36.5 28.5 t-42 22.5t-26.5 0.5q-39 -49 -55.5 -110.5t-40.5 -119.5zM1290 102v23h84v-23h-31v-77h-22v77h-31zM1384 25v100h31l19 -78l18 78h29v-100h-19v77l-20 -77h-19l-20 77v-77h-19z" />
<glyph unicode="&#xad;" d="M68 731q0 150 56 282t154.5 230t230.5 155.5t282 57.5t281.5 -57.5t230 -155.5t156 -230t57.5 -282t-57.5 -282t-156 -230t-230 -155.5t-281.5 -57.5t-282 57.5t-230.5 155.5t-154.5 230.5t-56 281.5zM164 731q0 -129 49 -242.5t135 -199.5t200 -135.5t243 -49.5 q131 0 244.5 49.5t197.5 135.5t133 199.5t49 242.5t-49 242.5t-133 198.5t-197.5 134.5t-244.5 49.5q-129 0 -243 -49.5t-200 -134.5t-135 -198.5t-49 -242.5zM207 731q0 119 46 224.5t126 184.5t185.5 124t226.5 45q119 0 225 -45t185 -124t125 -184.5t46 -224.5 q0 -121 -46 -227.5t-125 -185t-185 -125t-225 -46.5q-121 0 -226.5 46.5t-185.5 125t-126 185t-46 227.5zM330 664l112 -177q346 -80 699 0l110 177h-921zM451 1063l151 -189q4 -4 15.5 -0.5t23.5 9.5t20.5 12t8.5 8q-29 57 -47.5 118.5t-53.5 111.5q-6 8 -26.5 -0.5 t-42 -22.5t-38 -28.5t-11.5 -18.5zM463 457q20 -35 51 -74t73 -70.5t92.5 -53t111.5 -21.5q59 0 110 21.5t92 53t73 70.5t52 74q-164 -43 -326.5 -42t-328.5 42zM715 731h155l-77 187zM918 903q-4 -2 4 -8t19 -12t23.5 -9.5t18.5 0.5l147 189q4 4 -11 18.5t-36.5 28.5 t-42 22.5t-26.5 0.5q-39 -49 -55.5 -110.5t-40.5 -119.5zM1290 102v23h84v-23h-31v-77h-22v77h-31zM1384 25v100h31l19 -78l18 78h29v-100h-19v77l-20 -77h-19l-20 77v-77h-19z" />
<glyph unicode="&#xae;" d="M68 731q0 150 56 282t154.5 230t230.5 155.5t282 57.5t281.5 -57.5t230 -155.5t156 -230t57.5 -282t-57.5 -282t-156 -230t-230 -155.5t-281.5 -57.5t-282 57.5t-230.5 155.5t-154.5 230.5t-56 281.5zM164 731q0 -129 49 -242.5t135 -199.5t200 -135.5t243 -49.5 q131 0 244.5 49.5t197.5 135.5t133 199.5t49 242.5t-49 242.5t-133 198.5t-197.5 134.5t-244.5 49.5q-129 0 -243 -49.5t-200 -134.5t-135 -198.5t-49 -242.5zM207 731q0 119 46 224.5t126 184.5t185.5 124t226.5 45q119 0 225 -45t185 -124t125 -184.5t46 -224.5 q0 -121 -46 -227.5t-125 -185t-185 -125t-225 -46.5q-121 0 -226.5 46.5t-185.5 125t-126 185t-46 227.5zM330 664l112 -177q346 -80 699 0l110 177h-921zM451 1063l151 -189q4 -4 15.5 -0.5t23.5 9.5t20.5 12t8.5 8q-29 57 -47.5 118.5t-53.5 111.5q-6 8 -26.5 -0.5 t-42 -22.5t-38 -28.5t-11.5 -18.5zM463 457q20 -35 51 -74t73 -70.5t92.5 -53t111.5 -21.5q59 0 110 21.5t92 53t73 70.5t52 74q-164 -43 -326.5 -42t-328.5 42zM715 731h155l-77 187zM918 903q-4 -2 4 -8t19 -12t23.5 -9.5t18.5 0.5l147 189q4 4 -11 18.5t-36.5 28.5 t-42 22.5t-26.5 0.5q-39 -49 -55.5 -110.5t-40.5 -119.5zM1290 102v23h84v-23h-31v-77h-22v77h-31zM1384 25v100h31l19 -78l18 78h29v-100h-19v77l-20 -77h-19l-20 77v-77h-19z" />
<glyph unicode="&#xaf;" d="M68 731q0 150 56 282t154.5 230t230.5 155.5t282 57.5t281.5 -57.5t230 -155.5t156 -230t57.5 -282t-57.5 -282t-156 -230t-230 -155.5t-281.5 -57.5t-282 57.5t-230.5 155.5t-154.5 230.5t-56 281.5zM164 731q0 -129 49 -242.5t135 -199.5t200 -135.5t243 -49.5 q131 0 244.5 49.5t197.5 135.5t133 199.5t49 242.5t-49 242.5t-133 198.5t-197.5 134.5t-244.5 49.5q-129 0 -243 -49.5t-200 -134.5t-135 -198.5t-49 -242.5zM207 731q0 119 46 224.5t126 184.5t185.5 124t226.5 45q119 0 225 -45t185 -124t125 -184.5t46 -224.5 q0 -121 -46 -227.5t-125 -185t-185 -125t-225 -46.5q-121 0 -226.5 46.5t-185.5 125t-126 185t-46 227.5zM330 664l112 -177q346 -80 699 0l110 177h-921zM451 1063l151 -189q4 -4 15.5 -0.5t23.5 9.5t20.5 12t8.5 8q-29 57 -47.5 118.5t-53.5 111.5q-6 8 -26.5 -0.5 t-42 -22.5t-38 -28.5t-11.5 -18.5zM463 457q20 -35 51 -74t73 -70.5t92.5 -53t111.5 -21.5q59 0 110 21.5t92 53t73 70.5t52 74q-164 -43 -326.5 -42t-328.5 42zM715 731h155l-77 187zM918 903q-4 -2 4 -8t19 -12t23.5 -9.5t18.5 0.5l147 189q4 4 -11 18.5t-36.5 28.5 t-42 22.5t-26.5 0.5q-39 -49 -55.5 -110.5t-40.5 -119.5zM1290 102v23h84v-23h-31v-77h-22v77h-31zM1384 25v100h31l19 -78l18 78h29v-100h-19v77l-20 -77h-19l-20 77v-77h-19z" />
<glyph unicode="&#xb0;" d="M68 731q0 150 56 282t154.5 230t230.5 155.5t282 57.5t281.5 -57.5t230 -155.5t156 -230t57.5 -282t-57.5 -282t-156 -230t-230 -155.5t-281.5 -57.5t-282 57.5t-230.5 155.5t-154.5 230.5t-56 281.5zM164 731q0 -129 49 -242.5t135 -199.5t200 -135.5t243 -49.5 q131 0 244.5 49.5t197.5 135.5t133 199.5t49 242.5t-49 242.5t-133 198.5t-197.5 134.5t-244.5 49.5q-129 0 -243 -49.5t-200 -134.5t-135 -198.5t-49 -242.5zM207 731q0 119 46 224.5t126 184.5t185.5 124t226.5 45q119 0 225 -45t185 -124t125 -184.5t46 -224.5 q0 -121 -46 -227.5t-125 -185t-185 -125t-225 -46.5q-121 0 -226.5 46.5t-185.5 125t-126 185t-46 227.5zM330 664l112 -177q346 -80 699 0l110 177h-921zM451 1063l151 -189q4 -4 15.5 -0.5t23.5 9.5t20.5 12t8.5 8q-29 57 -47.5 118.5t-53.5 111.5q-6 8 -26.5 -0.5 t-42 -22.5t-38 -28.5t-11.5 -18.5zM463 457q20 -35 51 -74t73 -70.5t92.5 -53t111.5 -21.5q59 0 110 21.5t92 53t73 70.5t52 74q-164 -43 -326.5 -42t-328.5 42zM715 731h155l-77 187zM918 903q-4 -2 4 -8t19 -12t23.5 -9.5t18.5 0.5l147 189q4 4 -11 18.5t-36.5 28.5 t-42 22.5t-26.5 0.5q-39 -49 -55.5 -110.5t-40.5 -119.5zM1290 102v23h84v-23h-31v-77h-22v77h-31zM1384 25v100h31l19 -78l18 78h29v-100h-19v77l-20 -77h-19l-20 77v-77h-19z" />
<glyph unicode="&#xb1;" d="M68 731q0 150 56 282t154.5 230t230.5 155.5t282 57.5t281.5 -57.5t230 -155.5t156 -230t57.5 -282t-57.5 -282t-156 -230t-230 -155.5t-281.5 -57.5t-282 57.5t-230.5 155.5t-154.5 230.5t-56 281.5zM164 731q0 -129 49 -242.5t135 -199.5t200 -135.5t243 -49.5 q131 0 244.5 49.5t197.5 135.5t133 199.5t49 242.5t-49 242.5t-133 198.5t-197.5 134.5t-244.5 49.5q-129 0 -243 -49.5t-200 -134.5t-135 -198.5t-49 -242.5zM207 731q0 119 46 224.5t126 184.5t185.5 124t226.5 45q119 0 225 -45t185 -124t125 -184.5t46 -224.5 q0 -121 -46 -227.5t-125 -185t-185 -125t-225 -46.5q-121 0 -226.5 46.5t-185.5 125t-126 185t-46 227.5zM330 664l112 -177q346 -80 699 0l110 177h-921zM451 1063l151 -189q4 -4 15.5 -0.5t23.5 9.5t20.5 12t8.5 8q-29 57 -47.5 118.5t-53.5 111.5q-6 8 -26.5 -0.5 t-42 -22.5t-38 -28.5t-11.5 -18.5zM463 457q20 -35 51 -74t73 -70.5t92.5 -53t111.5 -21.5q59 0 110 21.5t92 53t73 70.5t52 74q-164 -43 -326.5 -42t-328.5 42zM715 731h155l-77 187zM918 903q-4 -2 4 -8t19 -12t23.5 -9.5t18.5 0.5l147 189q4 4 -11 18.5t-36.5 28.5 t-42 22.5t-26.5 0.5q-39 -49 -55.5 -110.5t-40.5 -119.5zM1290 102v23h84v-23h-31v-77h-22v77h-31zM1384 25v100h31l19 -78l18 78h29v-100h-19v77l-20 -77h-19l-20 77v-77h-19z" />
<glyph unicode="&#xb2;" d="M68 731q0 150 56 282t154.5 230t230.5 155.5t282 57.5t281.5 -57.5t230 -155.5t156 -230t57.5 -282t-57.5 -282t-156 -230t-230 -155.5t-281.5 -57.5t-282 57.5t-230.5 155.5t-154.5 230.5t-56 281.5zM164 731q0 -129 49 -242.5t135 -199.5t200 -135.5t243 -49.5 q131 0 244.5 49.5t197.5 135.5t133 199.5t49 242.5t-49 242.5t-133 198.5t-197.5 134.5t-244.5 49.5q-129 0 -243 -49.5t-200 -134.5t-135 -198.5t-49 -242.5zM207 731q0 119 46 224.5t126 184.5t185.5 124t226.5 45q119 0 225 -45t185 -124t125 -184.5t46 -224.5 q0 -121 -46 -227.5t-125 -185t-185 -125t-225 -46.5q-121 0 -226.5 46.5t-185.5 125t-126 185t-46 227.5zM330 664l112 -177q346 -80 699 0l110 177h-921zM451 1063l151 -189q4 -4 15.5 -0.5t23.5 9.5t20.5 12t8.5 8q-29 57 -47.5 118.5t-53.5 111.5q-6 8 -26.5 -0.5 t-42 -22.5t-38 -28.5t-11.5 -18.5zM463 457q20 -35 51 -74t73 -70.5t92.5 -53t111.5 -21.5q59 0 110 21.5t92 53t73 70.5t52 74q-164 -43 -326.5 -42t-328.5 42zM715 731h155l-77 187zM918 903q-4 -2 4 -8t19 -12t23.5 -9.5t18.5 0.5l147 189q4 4 -11 18.5t-36.5 28.5 t-42 22.5t-26.5 0.5q-39 -49 -55.5 -110.5t-40.5 -119.5zM1290 102v23h84v-23h-31v-77h-22v77h-31zM1384 25v100h31l19 -78l18 78h29v-100h-19v77l-20 -77h-19l-20 77v-77h-19z" />
<glyph unicode="&#xb3;" d="M68 731q0 150 56 282t154.5 230t230.5 155.5t282 57.5t281.5 -57.5t230 -155.5t156 -230t57.5 -282t-57.5 -282t-156 -230t-230 -155.5t-281.5 -57.5t-282 57.5t-230.5 155.5t-154.5 230.5t-56 281.5zM164 731q0 -129 49 -242.5t135 -199.5t200 -135.5t243 -49.5 q131 0 244.5 49.5t197.5 135.5t133 199.5t49 242.5t-49 242.5t-133 198.5t-197.5 134.5t-244.5 49.5q-129 0 -243 -49.5t-200 -134.5t-135 -198.5t-49 -242.5zM207 731q0 119 46 224.5t126 184.5t185.5 124t226.5 45q119 0 225 -45t185 -124t125 -184.5t46 -224.5 q0 -121 -46 -227.5t-125 -185t-185 -125t-225 -46.5q-121 0 -226.5 46.5t-185.5 125t-126 185t-46 227.5zM330 664l112 -177q346 -80 699 0l110 177h-921zM451 1063l151 -189q4 -4 15.5 -0.5t23.5 9.5t20.5 12t8.5 8q-29 57 -47.5 118.5t-53.5 111.5q-6 8 -26.5 -0.5 t-42 -22.5t-38 -28.5t-11.5 -18.5zM463 457q20 -35 51 -74t73 -70.5t92.5 -53t111.5 -21.5q59 0 110 21.5t92 53t73 70.5t52 74q-164 -43 -326.5 -42t-328.5 42zM715 731h155l-77 187zM918 903q-4 -2 4 -8t19 -12t23.5 -9.5t18.5 0.5l147 189q4 4 -11 18.5t-36.5 28.5 t-42 22.5t-26.5 0.5q-39 -49 -55.5 -110.5t-40.5 -119.5zM1290 102v23h84v-23h-31v-77h-22v77h-31zM1384 25v100h31l19 -78l18 78h29v-100h-19v77l-20 -77h-19l-20 77v-77h-19z" />
<glyph unicode="&#xb4;" d="M68 731q0 150 56 282t154.5 230t230.5 155.5t282 57.5t281.5 -57.5t230 -155.5t156 -230t57.5 -282t-57.5 -282t-156 -230t-230 -155.5t-281.5 -57.5t-282 57.5t-230.5 155.5t-154.5 230.5t-56 281.5zM164 731q0 -129 49 -242.5t135 -199.5t200 -135.5t243 -49.5 q131 0 244.5 49.5t197.5 135.5t133 199.5t49 242.5t-49 242.5t-133 198.5t-197.5 134.5t-244.5 49.5q-129 0 -243 -49.5t-200 -134.5t-135 -198.5t-49 -242.5zM207 731q0 119 46 224.5t126 184.5t185.5 124t226.5 45q119 0 225 -45t185 -124t125 -184.5t46 -224.5 q0 -121 -46 -227.5t-125 -185t-185 -125t-225 -46.5q-121 0 -226.5 46.5t-185.5 125t-126 185t-46 227.5zM330 664l112 -177q346 -80 699 0l110 177h-921zM451 1063l151 -189q4 -4 15.5 -0.5t23.5 9.5t20.5 12t8.5 8q-29 57 -47.5 118.5t-53.5 111.5q-6 8 -26.5 -0.5 t-42 -22.5t-38 -28.5t-11.5 -18.5zM463 457q20 -35 51 -74t73 -70.5t92.5 -53t111.5 -21.5q59 0 110 21.5t92 53t73 70.5t52 74q-164 -43 -326.5 -42t-328.5 42zM715 731h155l-77 187zM918 903q-4 -2 4 -8t19 -12t23.5 -9.5t18.5 0.5l147 189q4 4 -11 18.5t-36.5 28.5 t-42 22.5t-26.5 0.5q-39 -49 -55.5 -110.5t-40.5 -119.5zM1290 102v23h84v-23h-31v-77h-22v77h-31zM1384 25v100h31l19 -78l18 78h29v-100h-19v77l-20 -77h-19l-20 77v-77h-19z" />
<glyph unicode="&#xb6;" d="M68 731q0 150 56 282t154.5 230t230.5 155.5t282 57.5t281.5 -57.5t230 -155.5t156 -230t57.5 -282t-57.5 -282t-156 -230t-230 -155.5t-281.5 -57.5t-282 57.5t-230.5 155.5t-154.5 230.5t-56 281.5zM164 731q0 -129 49 -242.5t135 -199.5t200 -135.5t243 -49.5 q131 0 244.5 49.5t197.5 135.5t133 199.5t49 242.5t-49 242.5t-133 198.5t-197.5 134.5t-244.5 49.5q-129 0 -243 -49.5t-200 -134.5t-135 -198.5t-49 -242.5zM207 731q0 119 46 224.5t126 184.5t185.5 124t226.5 45q119 0 225 -45t185 -124t125 -184.5t46 -224.5 q0 -121 -46 -227.5t-125 -185t-185 -125t-225 -46.5q-121 0 -226.5 46.5t-185.5 125t-126 185t-46 227.5zM330 664l112 -177q346 -80 699 0l110 177h-921zM451 1063l151 -189q4 -4 15.5 -0.5t23.5 9.5t20.5 12t8.5 8q-29 57 -47.5 118.5t-53.5 111.5q-6 8 -26.5 -0.5 t-42 -22.5t-38 -28.5t-11.5 -18.5zM463 457q20 -35 51 -74t73 -70.5t92.5 -53t111.5 -21.5q59 0 110 21.5t92 53t73 70.5t52 74q-164 -43 -326.5 -42t-328.5 42zM715 731h155l-77 187zM918 903q-4 -2 4 -8t19 -12t23.5 -9.5t18.5 0.5l147 189q4 4 -11 18.5t-36.5 28.5 t-42 22.5t-26.5 0.5q-39 -49 -55.5 -110.5t-40.5 -119.5zM1290 102v23h84v-23h-31v-77h-22v77h-31zM1384 25v100h31l19 -78l18 78h29v-100h-19v77l-20 -77h-19l-20 77v-77h-19z" />
<glyph unicode="&#xb7;" d="M68 731q0 150 56 282t154.5 230t230.5 155.5t282 57.5t281.5 -57.5t230 -155.5t156 -230t57.5 -282t-57.5 -282t-156 -230t-230 -155.5t-281.5 -57.5t-282 57.5t-230.5 155.5t-154.5 230.5t-56 281.5zM164 731q0 -129 49 -242.5t135 -199.5t200 -135.5t243 -49.5 q131 0 244.5 49.5t197.5 135.5t133 199.5t49 242.5t-49 242.5t-133 198.5t-197.5 134.5t-244.5 49.5q-129 0 -243 -49.5t-200 -134.5t-135 -198.5t-49 -242.5zM207 731q0 119 46 224.5t126 184.5t185.5 124t226.5 45q119 0 225 -45t185 -124t125 -184.5t46 -224.5 q0 -121 -46 -227.5t-125 -185t-185 -125t-225 -46.5q-121 0 -226.5 46.5t-185.5 125t-126 185t-46 227.5zM330 664l112 -177q346 -80 699 0l110 177h-921zM451 1063l151 -189q4 -4 15.5 -0.5t23.5 9.5t20.5 12t8.5 8q-29 57 -47.5 118.5t-53.5 111.5q-6 8 -26.5 -0.5 t-42 -22.5t-38 -28.5t-11.5 -18.5zM463 457q20 -35 51 -74t73 -70.5t92.5 -53t111.5 -21.5q59 0 110 21.5t92 53t73 70.5t52 74q-164 -43 -326.5 -42t-328.5 42zM715 731h155l-77 187zM918 903q-4 -2 4 -8t19 -12t23.5 -9.5t18.5 0.5l147 189q4 4 -11 18.5t-36.5 28.5 t-42 22.5t-26.5 0.5q-39 -49 -55.5 -110.5t-40.5 -119.5zM1290 102v23h84v-23h-31v-77h-22v77h-31zM1384 25v100h31l19 -78l18 78h29v-100h-19v77l-20 -77h-19l-20 77v-77h-19z" />
<glyph unicode="&#xb8;" d="M68 731q0 150 56 282t154.5 230t230.5 155.5t282 57.5t281.5 -57.5t230 -155.5t156 -230t57.5 -282t-57.5 -282t-156 -230t-230 -155.5t-281.5 -57.5t-282 57.5t-230.5 155.5t-154.5 230.5t-56 281.5zM164 731q0 -129 49 -242.5t135 -199.5t200 -135.5t243 -49.5 q131 0 244.5 49.5t197.5 135.5t133 199.5t49 242.5t-49 242.5t-133 198.5t-197.5 134.5t-244.5 49.5q-129 0 -243 -49.5t-200 -134.5t-135 -198.5t-49 -242.5zM207 731q0 119 46 224.5t126 184.5t185.5 124t226.5 45q119 0 225 -45t185 -124t125 -184.5t46 -224.5 q0 -121 -46 -227.5t-125 -185t-185 -125t-225 -46.5q-121 0 -226.5 46.5t-185.5 125t-126 185t-46 227.5zM330 664l112 -177q346 -80 699 0l110 177h-921zM451 1063l151 -189q4 -4 15.5 -0.5t23.5 9.5t20.5 12t8.5 8q-29 57 -47.5 118.5t-53.5 111.5q-6 8 -26.5 -0.5 t-42 -22.5t-38 -28.5t-11.5 -18.5zM463 457q20 -35 51 -74t73 -70.5t92.5 -53t111.5 -21.5q59 0 110 21.5t92 53t73 70.5t52 74q-164 -43 -326.5 -42t-328.5 42zM715 731h155l-77 187zM918 903q-4 -2 4 -8t19 -12t23.5 -9.5t18.5 0.5l147 189q4 4 -11 18.5t-36.5 28.5 t-42 22.5t-26.5 0.5q-39 -49 -55.5 -110.5t-40.5 -119.5zM1290 102v23h84v-23h-31v-77h-22v77h-31zM1384 25v100h31l19 -78l18 78h29v-100h-19v77l-20 -77h-19l-20 77v-77h-19z" />
<glyph unicode="&#xb9;" d="M68 731q0 150 56 282t154.5 230t230.5 155.5t282 57.5t281.5 -57.5t230 -155.5t156 -230t57.5 -282t-57.5 -282t-156 -230t-230 -155.5t-281.5 -57.5t-282 57.5t-230.5 155.5t-154.5 230.5t-56 281.5zM164 731q0 -129 49 -242.5t135 -199.5t200 -135.5t243 -49.5 q131 0 244.5 49.5t197.5 135.5t133 199.5t49 242.5t-49 242.5t-133 198.5t-197.5 134.5t-244.5 49.5q-129 0 -243 -49.5t-200 -134.5t-135 -198.5t-49 -242.5zM207 731q0 119 46 224.5t126 184.5t185.5 124t226.5 45q119 0 225 -45t185 -124t125 -184.5t46 -224.5 q0 -121 -46 -227.5t-125 -185t-185 -125t-225 -46.5q-121 0 -226.5 46.5t-185.5 125t-126 185t-46 227.5zM330 664l112 -177q346 -80 699 0l110 177h-921zM451 1063l151 -189q4 -4 15.5 -0.5t23.5 9.5t20.5 12t8.5 8q-29 57 -47.5 118.5t-53.5 111.5q-6 8 -26.5 -0.5 t-42 -22.5t-38 -28.5t-11.5 -18.5zM463 457q20 -35 51 -74t73 -70.5t92.5 -53t111.5 -21.5q59 0 110 21.5t92 53t73 70.5t52 74q-164 -43 -326.5 -42t-328.5 42zM715 731h155l-77 187zM918 903q-4 -2 4 -8t19 -12t23.5 -9.5t18.5 0.5l147 189q4 4 -11 18.5t-36.5 28.5 t-42 22.5t-26.5 0.5q-39 -49 -55.5 -110.5t-40.5 -119.5zM1290 102v23h84v-23h-31v-77h-22v77h-31zM1384 25v100h31l19 -78l18 78h29v-100h-19v77l-20 -77h-19l-20 77v-77h-19z" />
<glyph unicode="&#xba;" d="M68 731q0 150 56 282t154.5 230t230.5 155.5t282 57.5t281.5 -57.5t230 -155.5t156 -230t57.5 -282t-57.5 -282t-156 -230t-230 -155.5t-281.5 -57.5t-282 57.5t-230.5 155.5t-154.5 230.5t-56 281.5zM164 731q0 -129 49 -242.5t135 -199.5t200 -135.5t243 -49.5 q131 0 244.5 49.5t197.5 135.5t133 199.5t49 242.5t-49 242.5t-133 198.5t-197.5 134.5t-244.5 49.5q-129 0 -243 -49.5t-200 -134.5t-135 -198.5t-49 -242.5zM207 731q0 119 46 224.5t126 184.5t185.5 124t226.5 45q119 0 225 -45t185 -124t125 -184.5t46 -224.5 q0 -121 -46 -227.5t-125 -185t-185 -125t-225 -46.5q-121 0 -226.5 46.5t-185.5 125t-126 185t-46 227.5zM330 664l112 -177q346 -80 699 0l110 177h-921zM451 1063l151 -189q4 -4 15.5 -0.5t23.5 9.5t20.5 12t8.5 8q-29 57 -47.5 118.5t-53.5 111.5q-6 8 -26.5 -0.5 t-42 -22.5t-38 -28.5t-11.5 -18.5zM463 457q20 -35 51 -74t73 -70.5t92.5 -53t111.5 -21.5q59 0 110 21.5t92 53t73 70.5t52 74q-164 -43 -326.5 -42t-328.5 42zM715 731h155l-77 187zM918 903q-4 -2 4 -8t19 -12t23.5 -9.5t18.5 0.5l147 189q4 4 -11 18.5t-36.5 28.5 t-42 22.5t-26.5 0.5q-39 -49 -55.5 -110.5t-40.5 -119.5zM1290 102v23h84v-23h-31v-77h-22v77h-31zM1384 25v100h31l19 -78l18 78h29v-100h-19v77l-20 -77h-19l-20 77v-77h-19z" />
<glyph unicode="&#xbb;" d="M68 731q0 150 56 282t154.5 230t230.5 155.5t282 57.5t281.5 -57.5t230 -155.5t156 -230t57.5 -282t-57.5 -282t-156 -230t-230 -155.5t-281.5 -57.5t-282 57.5t-230.5 155.5t-154.5 230.5t-56 281.5zM164 731q0 -129 49 -242.5t135 -199.5t200 -135.5t243 -49.5 q131 0 244.5 49.5t197.5 135.5t133 199.5t49 242.5t-49 242.5t-133 198.5t-197.5 134.5t-244.5 49.5q-129 0 -243 -49.5t-200 -134.5t-135 -198.5t-49 -242.5zM207 731q0 119 46 224.5t126 184.5t185.5 124t226.5 45q119 0 225 -45t185 -124t125 -184.5t46 -224.5 q0 -121 -46 -227.5t-125 -185t-185 -125t-225 -46.5q-121 0 -226.5 46.5t-185.5 125t-126 185t-46 227.5zM330 664l112 -177q346 -80 699 0l110 177h-921zM451 1063l151 -189q4 -4 15.5 -0.5t23.5 9.5t20.5 12t8.5 8q-29 57 -47.5 118.5t-53.5 111.5q-6 8 -26.5 -0.5 t-42 -22.5t-38 -28.5t-11.5 -18.5zM463 457q20 -35 51 -74t73 -70.5t92.5 -53t111.5 -21.5q59 0 110 21.5t92 53t73 70.5t52 74q-164 -43 -326.5 -42t-328.5 42zM715 731h155l-77 187zM918 903q-4 -2 4 -8t19 -12t23.5 -9.5t18.5 0.5l147 189q4 4 -11 18.5t-36.5 28.5 t-42 22.5t-26.5 0.5q-39 -49 -55.5 -110.5t-40.5 -119.5zM1290 102v23h84v-23h-31v-77h-22v77h-31zM1384 25v100h31l19 -78l18 78h29v-100h-19v77l-20 -77h-19l-20 77v-77h-19z" />
<glyph unicode="&#xbc;" d="M68 731q0 150 56 282t154.5 230t230.5 155.5t282 57.5t281.5 -57.5t230 -155.5t156 -230t57.5 -282t-57.5 -282t-156 -230t-230 -155.5t-281.5 -57.5t-282 57.5t-230.5 155.5t-154.5 230.5t-56 281.5zM164 731q0 -129 49 -242.5t135 -199.5t200 -135.5t243 -49.5 q131 0 244.5 49.5t197.5 135.5t133 199.5t49 242.5t-49 242.5t-133 198.5t-197.5 134.5t-244.5 49.5q-129 0 -243 -49.5t-200 -134.5t-135 -198.5t-49 -242.5zM207 731q0 119 46 224.5t126 184.5t185.5 124t226.5 45q119 0 225 -45t185 -124t125 -184.5t46 -224.5 q0 -121 -46 -227.5t-125 -185t-185 -125t-225 -46.5q-121 0 -226.5 46.5t-185.5 125t-126 185t-46 227.5zM330 664l112 -177q346 -80 699 0l110 177h-921zM451 1063l151 -189q4 -4 15.5 -0.5t23.5 9.5t20.5 12t8.5 8q-29 57 -47.5 118.5t-53.5 111.5q-6 8 -26.5 -0.5 t-42 -22.5t-38 -28.5t-11.5 -18.5zM463 457q20 -35 51 -74t73 -70.5t92.5 -53t111.5 -21.5q59 0 110 21.5t92 53t73 70.5t52 74q-164 -43 -326.5 -42t-328.5 42zM715 731h155l-77 187zM918 903q-4 -2 4 -8t19 -12t23.5 -9.5t18.5 0.5l147 189q4 4 -11 18.5t-36.5 28.5 t-42 22.5t-26.5 0.5q-39 -49 -55.5 -110.5t-40.5 -119.5zM1290 102v23h84v-23h-31v-77h-22v77h-31zM1384 25v100h31l19 -78l18 78h29v-100h-19v77l-20 -77h-19l-20 77v-77h-19z" />
<glyph unicode="&#xbd;" d="M68 731q0 150 56 282t154.5 230t230.5 155.5t282 57.5t281.5 -57.5t230 -155.5t156 -230t57.5 -282t-57.5 -282t-156 -230t-230 -155.5t-281.5 -57.5t-282 57.5t-230.5 155.5t-154.5 230.5t-56 281.5zM164 731q0 -129 49 -242.5t135 -199.5t200 -135.5t243 -49.5 q131 0 244.5 49.5t197.5 135.5t133 199.5t49 242.5t-49 242.5t-133 198.5t-197.5 134.5t-244.5 49.5q-129 0 -243 -49.5t-200 -134.5t-135 -198.5t-49 -242.5zM207 731q0 119 46 224.5t126 184.5t185.5 124t226.5 45q119 0 225 -45t185 -124t125 -184.5t46 -224.5 q0 -121 -46 -227.5t-125 -185t-185 -125t-225 -46.5q-121 0 -226.5 46.5t-185.5 125t-126 185t-46 227.5zM330 664l112 -177q346 -80 699 0l110 177h-921zM451 1063l151 -189q4 -4 15.5 -0.5t23.5 9.5t20.5 12t8.5 8q-29 57 -47.5 118.5t-53.5 111.5q-6 8 -26.5 -0.5 t-42 -22.5t-38 -28.5t-11.5 -18.5zM463 457q20 -35 51 -74t73 -70.5t92.5 -53t111.5 -21.5q59 0 110 21.5t92 53t73 70.5t52 74q-164 -43 -326.5 -42t-328.5 42zM715 731h155l-77 187zM918 903q-4 -2 4 -8t19 -12t23.5 -9.5t18.5 0.5l147 189q4 4 -11 18.5t-36.5 28.5 t-42 22.5t-26.5 0.5q-39 -49 -55.5 -110.5t-40.5 -119.5zM1290 102v23h84v-23h-31v-77h-22v77h-31zM1384 25v100h31l19 -78l18 78h29v-100h-19v77l-20 -77h-19l-20 77v-77h-19z" />
<glyph unicode="&#xbe;" d="M68 731q0 150 56 282t154.5 230t230.5 155.5t282 57.5t281.5 -57.5t230 -155.5t156 -230t57.5 -282t-57.5 -282t-156 -230t-230 -155.5t-281.5 -57.5t-282 57.5t-230.5 155.5t-154.5 230.5t-56 281.5zM164 731q0 -129 49 -242.5t135 -199.5t200 -135.5t243 -49.5 q131 0 244.5 49.5t197.5 135.5t133 199.5t49 242.5t-49 242.5t-133 198.5t-197.5 134.5t-244.5 49.5q-129 0 -243 -49.5t-200 -134.5t-135 -198.5t-49 -242.5zM207 731q0 119 46 224.5t126 184.5t185.5 124t226.5 45q119 0 225 -45t185 -124t125 -184.5t46 -224.5 q0 -121 -46 -227.5t-125 -185t-185 -125t-225 -46.5q-121 0 -226.5 46.5t-185.5 125t-126 185t-46 227.5zM330 664l112 -177q346 -80 699 0l110 177h-921zM451 1063l151 -189q4 -4 15.5 -0.5t23.5 9.5t20.5 12t8.5 8q-29 57 -47.5 118.5t-53.5 111.5q-6 8 -26.5 -0.5 t-42 -22.5t-38 -28.5t-11.5 -18.5zM463 457q20 -35 51 -74t73 -70.5t92.5 -53t111.5 -21.5q59 0 110 21.5t92 53t73 70.5t52 74q-164 -43 -326.5 -42t-328.5 42zM715 731h155l-77 187zM918 903q-4 -2 4 -8t19 -12t23.5 -9.5t18.5 0.5l147 189q4 4 -11 18.5t-36.5 28.5 t-42 22.5t-26.5 0.5q-39 -49 -55.5 -110.5t-40.5 -119.5zM1290 102v23h84v-23h-31v-77h-22v77h-31zM1384 25v100h31l19 -78l18 78h29v-100h-19v77l-20 -77h-19l-20 77v-77h-19z" />
<glyph unicode="&#xbf;" d="M68 731q0 150 56 282t154.5 230t230.5 155.5t282 57.5t281.5 -57.5t230 -155.5t156 -230t57.5 -282t-57.5 -282t-156 -230t-230 -155.5t-281.5 -57.5t-282 57.5t-230.5 155.5t-154.5 230.5t-56 281.5zM164 731q0 -129 49 -242.5t135 -199.5t200 -135.5t243 -49.5 q131 0 244.5 49.5t197.5 135.5t133 199.5t49 242.5t-49 242.5t-133 198.5t-197.5 134.5t-244.5 49.5q-129 0 -243 -49.5t-200 -134.5t-135 -198.5t-49 -242.5zM207 731q0 119 46 224.5t126 184.5t185.5 124t226.5 45q119 0 225 -45t185 -124t125 -184.5t46 -224.5 q0 -121 -46 -227.5t-125 -185t-185 -125t-225 -46.5q-121 0 -226.5 46.5t-185.5 125t-126 185t-46 227.5zM330 664l112 -177q346 -80 699 0l110 177h-921zM451 1063l151 -189q4 -4 15.5 -0.5t23.5 9.5t20.5 12t8.5 8q-29 57 -47.5 118.5t-53.5 111.5q-6 8 -26.5 -0.5 t-42 -22.5t-38 -28.5t-11.5 -18.5zM463 457q20 -35 51 -74t73 -70.5t92.5 -53t111.5 -21.5q59 0 110 21.5t92 53t73 70.5t52 74q-164 -43 -326.5 -42t-328.5 42zM715 731h155l-77 187zM918 903q-4 -2 4 -8t19 -12t23.5 -9.5t18.5 0.5l147 189q4 4 -11 18.5t-36.5 28.5 t-42 22.5t-26.5 0.5q-39 -49 -55.5 -110.5t-40.5 -119.5zM1290 102v23h84v-23h-31v-77h-22v77h-31zM1384 25v100h31l19 -78l18 78h29v-100h-19v77l-20 -77h-19l-20 77v-77h-19z" />
<glyph unicode="&#xc0;" d="M68 731q0 150 56 282t154.5 230t230.5 155.5t282 57.5t281.5 -57.5t230 -155.5t156 -230t57.5 -282t-57.5 -282t-156 -230t-230 -155.5t-281.5 -57.5t-282 57.5t-230.5 155.5t-154.5 230.5t-56 281.5zM164 731q0 -129 49 -242.5t135 -199.5t200 -135.5t243 -49.5 q131 0 244.5 49.5t197.5 135.5t133 199.5t49 242.5t-49 242.5t-133 198.5t-197.5 134.5t-244.5 49.5q-129 0 -243 -49.5t-200 -134.5t-135 -198.5t-49 -242.5zM207 731q0 119 46 224.5t126 184.5t185.5 124t226.5 45q119 0 225 -45t185 -124t125 -184.5t46 -224.5 q0 -121 -46 -227.5t-125 -185t-185 -125t-225 -46.5q-121 0 -226.5 46.5t-185.5 125t-126 185t-46 227.5zM330 664l112 -177q346 -80 699 0l110 177h-921zM451 1063l151 -189q4 -4 15.5 -0.5t23.5 9.5t20.5 12t8.5 8q-29 57 -47.5 118.5t-53.5 111.5q-6 8 -26.5 -0.5 t-42 -22.5t-38 -28.5t-11.5 -18.5zM463 457q20 -35 51 -74t73 -70.5t92.5 -53t111.5 -21.5q59 0 110 21.5t92 53t73 70.5t52 74q-164 -43 -326.5 -42t-328.5 42zM715 731h155l-77 187zM918 903q-4 -2 4 -8t19 -12t23.5 -9.5t18.5 0.5l147 189q4 4 -11 18.5t-36.5 28.5 t-42 22.5t-26.5 0.5q-39 -49 -55.5 -110.5t-40.5 -119.5zM1290 102v23h84v-23h-31v-77h-22v77h-31zM1384 25v100h31l19 -78l18 78h29v-100h-19v77l-20 -77h-19l-20 77v-77h-19z" />
<glyph unicode="&#xc1;" d="M68 731q0 150 56 282t154.5 230t230.5 155.5t282 57.5t281.5 -57.5t230 -155.5t156 -230t57.5 -282t-57.5 -282t-156 -230t-230 -155.5t-281.5 -57.5t-282 57.5t-230.5 155.5t-154.5 230.5t-56 281.5zM164 731q0 -129 49 -242.5t135 -199.5t200 -135.5t243 -49.5 q131 0 244.5 49.5t197.5 135.5t133 199.5t49 242.5t-49 242.5t-133 198.5t-197.5 134.5t-244.5 49.5q-129 0 -243 -49.5t-200 -134.5t-135 -198.5t-49 -242.5zM207 731q0 119 46 224.5t126 184.5t185.5 124t226.5 45q119 0 225 -45t185 -124t125 -184.5t46 -224.5 q0 -121 -46 -227.5t-125 -185t-185 -125t-225 -46.5q-121 0 -226.5 46.5t-185.5 125t-126 185t-46 227.5zM330 664l112 -177q346 -80 699 0l110 177h-921zM451 1063l151 -189q4 -4 15.5 -0.5t23.5 9.5t20.5 12t8.5 8q-29 57 -47.5 118.5t-53.5 111.5q-6 8 -26.5 -0.5 t-42 -22.5t-38 -28.5t-11.5 -18.5zM463 457q20 -35 51 -74t73 -70.5t92.5 -53t111.5 -21.5q59 0 110 21.5t92 53t73 70.5t52 74q-164 -43 -326.5 -42t-328.5 42zM715 731h155l-77 187zM918 903q-4 -2 4 -8t19 -12t23.5 -9.5t18.5 0.5l147 189q4 4 -11 18.5t-36.5 28.5 t-42 22.5t-26.5 0.5q-39 -49 -55.5 -110.5t-40.5 -119.5zM1290 102v23h84v-23h-31v-77h-22v77h-31zM1384 25v100h31l19 -78l18 78h29v-100h-19v77l-20 -77h-19l-20 77v-77h-19z" />
<glyph unicode="&#xc2;" d="M68 731q0 150 56 282t154.5 230t230.5 155.5t282 57.5t281.5 -57.5t230 -155.5t156 -230t57.5 -282t-57.5 -282t-156 -230t-230 -155.5t-281.5 -57.5t-282 57.5t-230.5 155.5t-154.5 230.5t-56 281.5zM164 731q0 -129 49 -242.5t135 -199.5t200 -135.5t243 -49.5 q131 0 244.5 49.5t197.5 135.5t133 199.5t49 242.5t-49 242.5t-133 198.5t-197.5 134.5t-244.5 49.5q-129 0 -243 -49.5t-200 -134.5t-135 -198.5t-49 -242.5zM207 731q0 119 46 224.5t126 184.5t185.5 124t226.5 45q119 0 225 -45t185 -124t125 -184.5t46 -224.5 q0 -121 -46 -227.5t-125 -185t-185 -125t-225 -46.5q-121 0 -226.5 46.5t-185.5 125t-126 185t-46 227.5zM330 664l112 -177q346 -80 699 0l110 177h-921zM451 1063l151 -189q4 -4 15.5 -0.5t23.5 9.5t20.5 12t8.5 8q-29 57 -47.5 118.5t-53.5 111.5q-6 8 -26.5 -0.5 t-42 -22.5t-38 -28.5t-11.5 -18.5zM463 457q20 -35 51 -74t73 -70.5t92.5 -53t111.5 -21.5q59 0 110 21.5t92 53t73 70.5t52 74q-164 -43 -326.5 -42t-328.5 42zM715 731h155l-77 187zM918 903q-4 -2 4 -8t19 -12t23.5 -9.5t18.5 0.5l147 189q4 4 -11 18.5t-36.5 28.5 t-42 22.5t-26.5 0.5q-39 -49 -55.5 -110.5t-40.5 -119.5zM1290 102v23h84v-23h-31v-77h-22v77h-31zM1384 25v100h31l19 -78l18 78h29v-100h-19v77l-20 -77h-19l-20 77v-77h-19z" />
<glyph unicode="&#xc3;" d="M68 731q0 150 56 282t154.5 230t230.5 155.5t282 57.5t281.5 -57.5t230 -155.5t156 -230t57.5 -282t-57.5 -282t-156 -230t-230 -155.5t-281.5 -57.5t-282 57.5t-230.5 155.5t-154.5 230.5t-56 281.5zM164 731q0 -129 49 -242.5t135 -199.5t200 -135.5t243 -49.5 q131 0 244.5 49.5t197.5 135.5t133 199.5t49 242.5t-49 242.5t-133 198.5t-197.5 134.5t-244.5 49.5q-129 0 -243 -49.5t-200 -134.5t-135 -198.5t-49 -242.5zM207 731q0 119 46 224.5t126 184.5t185.5 124t226.5 45q119 0 225 -45t185 -124t125 -184.5t46 -224.5 q0 -121 -46 -227.5t-125 -185t-185 -125t-225 -46.5q-121 0 -226.5 46.5t-185.5 125t-126 185t-46 227.5zM330 664l112 -177q346 -80 699 0l110 177h-921zM451 1063l151 -189q4 -4 15.5 -0.5t23.5 9.5t20.5 12t8.5 8q-29 57 -47.5 118.5t-53.5 111.5q-6 8 -26.5 -0.5 t-42 -22.5t-38 -28.5t-11.5 -18.5zM463 457q20 -35 51 -74t73 -70.5t92.5 -53t111.5 -21.5q59 0 110 21.5t92 53t73 70.5t52 74q-164 -43 -326.5 -42t-328.5 42zM715 731h155l-77 187zM918 903q-4 -2 4 -8t19 -12t23.5 -9.5t18.5 0.5l147 189q4 4 -11 18.5t-36.5 28.5 t-42 22.5t-26.5 0.5q-39 -49 -55.5 -110.5t-40.5 -119.5zM1290 102v23h84v-23h-31v-77h-22v77h-31zM1384 25v100h31l19 -78l18 78h29v-100h-19v77l-20 -77h-19l-20 77v-77h-19z" />
<glyph unicode="&#xc4;" d="M68 731q0 150 56 282t154.5 230t230.5 155.5t282 57.5t281.5 -57.5t230 -155.5t156 -230t57.5 -282t-57.5 -282t-156 -230t-230 -155.5t-281.5 -57.5t-282 57.5t-230.5 155.5t-154.5 230.5t-56 281.5zM164 731q0 -129 49 -242.5t135 -199.5t200 -135.5t243 -49.5 q131 0 244.5 49.5t197.5 135.5t133 199.5t49 242.5t-49 242.5t-133 198.5t-197.5 134.5t-244.5 49.5q-129 0 -243 -49.5t-200 -134.5t-135 -198.5t-49 -242.5zM207 731q0 119 46 224.5t126 184.5t185.5 124t226.5 45q119 0 225 -45t185 -124t125 -184.5t46 -224.5 q0 -121 -46 -227.5t-125 -185t-185 -125t-225 -46.5q-121 0 -226.5 46.5t-185.5 125t-126 185t-46 227.5zM330 664l112 -177q346 -80 699 0l110 177h-921zM451 1063l151 -189q4 -4 15.5 -0.5t23.5 9.5t20.5 12t8.5 8q-29 57 -47.5 118.5t-53.5 111.5q-6 8 -26.5 -0.5 t-42 -22.5t-38 -28.5t-11.5 -18.5zM463 457q20 -35 51 -74t73 -70.5t92.5 -53t111.5 -21.5q59 0 110 21.5t92 53t73 70.5t52 74q-164 -43 -326.5 -42t-328.5 42zM715 731h155l-77 187zM918 903q-4 -2 4 -8t19 -12t23.5 -9.5t18.5 0.5l147 189q4 4 -11 18.5t-36.5 28.5 t-42 22.5t-26.5 0.5q-39 -49 -55.5 -110.5t-40.5 -119.5zM1290 102v23h84v-23h-31v-77h-22v77h-31zM1384 25v100h31l19 -78l18 78h29v-100h-19v77l-20 -77h-19l-20 77v-77h-19z" />
<glyph unicode="&#xc5;" d="M68 731q0 150 56 282t154.5 230t230.5 155.5t282 57.5t281.5 -57.5t230 -155.5t156 -230t57.5 -282t-57.5 -282t-156 -230t-230 -155.5t-281.5 -57.5t-282 57.5t-230.5 155.5t-154.5 230.5t-56 281.5zM164 731q0 -129 49 -242.5t135 -199.5t200 -135.5t243 -49.5 q131 0 244.5 49.5t197.5 135.5t133 199.5t49 242.5t-49 242.5t-133 198.5t-197.5 134.5t-244.5 49.5q-129 0 -243 -49.5t-200 -134.5t-135 -198.5t-49 -242.5zM207 731q0 119 46 224.5t126 184.5t185.5 124t226.5 45q119 0 225 -45t185 -124t125 -184.5t46 -224.5 q0 -121 -46 -227.5t-125 -185t-185 -125t-225 -46.5q-121 0 -226.5 46.5t-185.5 125t-126 185t-46 227.5zM330 664l112 -177q346 -80 699 0l110 177h-921zM451 1063l151 -189q4 -4 15.5 -0.5t23.5 9.5t20.5 12t8.5 8q-29 57 -47.5 118.5t-53.5 111.5q-6 8 -26.5 -0.5 t-42 -22.5t-38 -28.5t-11.5 -18.5zM463 457q20 -35 51 -74t73 -70.5t92.5 -53t111.5 -21.5q59 0 110 21.5t92 53t73 70.5t52 74q-164 -43 -326.5 -42t-328.5 42zM715 731h155l-77 187zM918 903q-4 -2 4 -8t19 -12t23.5 -9.5t18.5 0.5l147 189q4 4 -11 18.5t-36.5 28.5 t-42 22.5t-26.5 0.5q-39 -49 -55.5 -110.5t-40.5 -119.5zM1290 102v23h84v-23h-31v-77h-22v77h-31zM1384 25v100h31l19 -78l18 78h29v-100h-19v77l-20 -77h-19l-20 77v-77h-19z" />
<glyph unicode="&#xc6;" d="M68 731q0 150 56 282t154.5 230t230.5 155.5t282 57.5t281.5 -57.5t230 -155.5t156 -230t57.5 -282t-57.5 -282t-156 -230t-230 -155.5t-281.5 -57.5t-282 57.5t-230.5 155.5t-154.5 230.5t-56 281.5zM164 731q0 -129 49 -242.5t135 -199.5t200 -135.5t243 -49.5 q131 0 244.5 49.5t197.5 135.5t133 199.5t49 242.5t-49 242.5t-133 198.5t-197.5 134.5t-244.5 49.5q-129 0 -243 -49.5t-200 -134.5t-135 -198.5t-49 -242.5zM207 731q0 119 46 224.5t126 184.5t185.5 124t226.5 45q119 0 225 -45t185 -124t125 -184.5t46 -224.5 q0 -121 -46 -227.5t-125 -185t-185 -125t-225 -46.5q-121 0 -226.5 46.5t-185.5 125t-126 185t-46 227.5zM330 664l112 -177q346 -80 699 0l110 177h-921zM451 1063l151 -189q4 -4 15.5 -0.5t23.5 9.5t20.5 12t8.5 8q-29 57 -47.5 118.5t-53.5 111.5q-6 8 -26.5 -0.5 t-42 -22.5t-38 -28.5t-11.5 -18.5zM463 457q20 -35 51 -74t73 -70.5t92.5 -53t111.5 -21.5q59 0 110 21.5t92 53t73 70.5t52 74q-164 -43 -326.5 -42t-328.5 42zM715 731h155l-77 187zM918 903q-4 -2 4 -8t19 -12t23.5 -9.5t18.5 0.5l147 189q4 4 -11 18.5t-36.5 28.5 t-42 22.5t-26.5 0.5q-39 -49 -55.5 -110.5t-40.5 -119.5zM1290 102v23h84v-23h-31v-77h-22v77h-31zM1384 25v100h31l19 -78l18 78h29v-100h-19v77l-20 -77h-19l-20 77v-77h-19z" />
<glyph unicode="&#xc7;" d="M68 731q0 150 56 282t154.5 230t230.5 155.5t282 57.5t281.5 -57.5t230 -155.5t156 -230t57.5 -282t-57.5 -282t-156 -230t-230 -155.5t-281.5 -57.5t-282 57.5t-230.5 155.5t-154.5 230.5t-56 281.5zM164 731q0 -129 49 -242.5t135 -199.5t200 -135.5t243 -49.5 q131 0 244.5 49.5t197.5 135.5t133 199.5t49 242.5t-49 242.5t-133 198.5t-197.5 134.5t-244.5 49.5q-129 0 -243 -49.5t-200 -134.5t-135 -198.5t-49 -242.5zM207 731q0 119 46 224.5t126 184.5t185.5 124t226.5 45q119 0 225 -45t185 -124t125 -184.5t46 -224.5 q0 -121 -46 -227.5t-125 -185t-185 -125t-225 -46.5q-121 0 -226.5 46.5t-185.5 125t-126 185t-46 227.5zM330 664l112 -177q346 -80 699 0l110 177h-921zM451 1063l151 -189q4 -4 15.5 -0.5t23.5 9.5t20.5 12t8.5 8q-29 57 -47.5 118.5t-53.5 111.5q-6 8 -26.5 -0.5 t-42 -22.5t-38 -28.5t-11.5 -18.5zM463 457q20 -35 51 -74t73 -70.5t92.5 -53t111.5 -21.5q59 0 110 21.5t92 53t73 70.5t52 74q-164 -43 -326.5 -42t-328.5 42zM715 731h155l-77 187zM918 903q-4 -2 4 -8t19 -12t23.5 -9.5t18.5 0.5l147 189q4 4 -11 18.5t-36.5 28.5 t-42 22.5t-26.5 0.5q-39 -49 -55.5 -110.5t-40.5 -119.5zM1290 102v23h84v-23h-31v-77h-22v77h-31zM1384 25v100h31l19 -78l18 78h29v-100h-19v77l-20 -77h-19l-20 77v-77h-19z" />
<glyph unicode="&#xc8;" d="M68 731q0 150 56 282t154.5 230t230.5 155.5t282 57.5t281.5 -57.5t230 -155.5t156 -230t57.5 -282t-57.5 -282t-156 -230t-230 -155.5t-281.5 -57.5t-282 57.5t-230.5 155.5t-154.5 230.5t-56 281.5zM164 731q0 -129 49 -242.5t135 -199.5t200 -135.5t243 -49.5 q131 0 244.5 49.5t197.5 135.5t133 199.5t49 242.5t-49 242.5t-133 198.5t-197.5 134.5t-244.5 49.5q-129 0 -243 -49.5t-200 -134.5t-135 -198.5t-49 -242.5zM207 731q0 119 46 224.5t126 184.5t185.5 124t226.5 45q119 0 225 -45t185 -124t125 -184.5t46 -224.5 q0 -121 -46 -227.5t-125 -185t-185 -125t-225 -46.5q-121 0 -226.5 46.5t-185.5 125t-126 185t-46 227.5zM330 664l112 -177q346 -80 699 0l110 177h-921zM451 1063l151 -189q4 -4 15.5 -0.5t23.5 9.5t20.5 12t8.5 8q-29 57 -47.5 118.5t-53.5 111.5q-6 8 -26.5 -0.5 t-42 -22.5t-38 -28.5t-11.5 -18.5zM463 457q20 -35 51 -74t73 -70.5t92.5 -53t111.5 -21.5q59 0 110 21.5t92 53t73 70.5t52 74q-164 -43 -326.5 -42t-328.5 42zM715 731h155l-77 187zM918 903q-4 -2 4 -8t19 -12t23.5 -9.5t18.5 0.5l147 189q4 4 -11 18.5t-36.5 28.5 t-42 22.5t-26.5 0.5q-39 -49 -55.5 -110.5t-40.5 -119.5zM1290 102v23h84v-23h-31v-77h-22v77h-31zM1384 25v100h31l19 -78l18 78h29v-100h-19v77l-20 -77h-19l-20 77v-77h-19z" />
<glyph unicode="&#xc9;" d="M68 731q0 150 56 282t154.5 230t230.5 155.5t282 57.5t281.5 -57.5t230 -155.5t156 -230t57.5 -282t-57.5 -282t-156 -230t-230 -155.5t-281.5 -57.5t-282 57.5t-230.5 155.5t-154.5 230.5t-56 281.5zM164 731q0 -129 49 -242.5t135 -199.5t200 -135.5t243 -49.5 q131 0 244.5 49.5t197.5 135.5t133 199.5t49 242.5t-49 242.5t-133 198.5t-197.5 134.5t-244.5 49.5q-129 0 -243 -49.5t-200 -134.5t-135 -198.5t-49 -242.5zM207 731q0 119 46 224.5t126 184.5t185.5 124t226.5 45q119 0 225 -45t185 -124t125 -184.5t46 -224.5 q0 -121 -46 -227.5t-125 -185t-185 -125t-225 -46.5q-121 0 -226.5 46.5t-185.5 125t-126 185t-46 227.5zM330 664l112 -177q346 -80 699 0l110 177h-921zM451 1063l151 -189q4 -4 15.5 -0.5t23.5 9.5t20.5 12t8.5 8q-29 57 -47.5 118.5t-53.5 111.5q-6 8 -26.5 -0.5 t-42 -22.5t-38 -28.5t-11.5 -18.5zM463 457q20 -35 51 -74t73 -70.5t92.5 -53t111.5 -21.5q59 0 110 21.5t92 53t73 70.5t52 74q-164 -43 -326.5 -42t-328.5 42zM715 731h155l-77 187zM918 903q-4 -2 4 -8t19 -12t23.5 -9.5t18.5 0.5l147 189q4 4 -11 18.5t-36.5 28.5 t-42 22.5t-26.5 0.5q-39 -49 -55.5 -110.5t-40.5 -119.5zM1290 102v23h84v-23h-31v-77h-22v77h-31zM1384 25v100h31l19 -78l18 78h29v-100h-19v77l-20 -77h-19l-20 77v-77h-19z" />
<glyph unicode="&#xca;" d="M68 731q0 150 56 282t154.5 230t230.5 155.5t282 57.5t281.5 -57.5t230 -155.5t156 -230t57.5 -282t-57.5 -282t-156 -230t-230 -155.5t-281.5 -57.5t-282 57.5t-230.5 155.5t-154.5 230.5t-56 281.5zM164 731q0 -129 49 -242.5t135 -199.5t200 -135.5t243 -49.5 q131 0 244.5 49.5t197.5 135.5t133 199.5t49 242.5t-49 242.5t-133 198.5t-197.5 134.5t-244.5 49.5q-129 0 -243 -49.5t-200 -134.5t-135 -198.5t-49 -242.5zM207 731q0 119 46 224.5t126 184.5t185.5 124t226.5 45q119 0 225 -45t185 -124t125 -184.5t46 -224.5 q0 -121 -46 -227.5t-125 -185t-185 -125t-225 -46.5q-121 0 -226.5 46.5t-185.5 125t-126 185t-46 227.5zM330 664l112 -177q346 -80 699 0l110 177h-921zM451 1063l151 -189q4 -4 15.5 -0.5t23.5 9.5t20.5 12t8.5 8q-29 57 -47.5 118.5t-53.5 111.5q-6 8 -26.5 -0.5 t-42 -22.5t-38 -28.5t-11.5 -18.5zM463 457q20 -35 51 -74t73 -70.5t92.5 -53t111.5 -21.5q59 0 110 21.5t92 53t73 70.5t52 74q-164 -43 -326.5 -42t-328.5 42zM715 731h155l-77 187zM918 903q-4 -2 4 -8t19 -12t23.5 -9.5t18.5 0.5l147 189q4 4 -11 18.5t-36.5 28.5 t-42 22.5t-26.5 0.5q-39 -49 -55.5 -110.5t-40.5 -119.5zM1290 102v23h84v-23h-31v-77h-22v77h-31zM1384 25v100h31l19 -78l18 78h29v-100h-19v77l-20 -77h-19l-20 77v-77h-19z" />
<glyph unicode="&#xcb;" d="M68 731q0 150 56 282t154.5 230t230.5 155.5t282 57.5t281.5 -57.5t230 -155.5t156 -230t57.5 -282t-57.5 -282t-156 -230t-230 -155.5t-281.5 -57.5t-282 57.5t-230.5 155.5t-154.5 230.5t-56 281.5zM164 731q0 -129 49 -242.5t135 -199.5t200 -135.5t243 -49.5 q131 0 244.5 49.5t197.5 135.5t133 199.5t49 242.5t-49 242.5t-133 198.5t-197.5 134.5t-244.5 49.5q-129 0 -243 -49.5t-200 -134.5t-135 -198.5t-49 -242.5zM207 731q0 119 46 224.5t126 184.5t185.5 124t226.5 45q119 0 225 -45t185 -124t125 -184.5t46 -224.5 q0 -121 -46 -227.5t-125 -185t-185 -125t-225 -46.5q-121 0 -226.5 46.5t-185.5 125t-126 185t-46 227.5zM330 664l112 -177q346 -80 699 0l110 177h-921zM451 1063l151 -189q4 -4 15.5 -0.5t23.5 9.5t20.5 12t8.5 8q-29 57 -47.5 118.5t-53.5 111.5q-6 8 -26.5 -0.5 t-42 -22.5t-38 -28.5t-11.5 -18.5zM463 457q20 -35 51 -74t73 -70.5t92.5 -53t111.5 -21.5q59 0 110 21.5t92 53t73 70.5t52 74q-164 -43 -326.5 -42t-328.5 42zM715 731h155l-77 187zM918 903q-4 -2 4 -8t19 -12t23.5 -9.5t18.5 0.5l147 189q4 4 -11 18.5t-36.5 28.5 t-42 22.5t-26.5 0.5q-39 -49 -55.5 -110.5t-40.5 -119.5zM1290 102v23h84v-23h-31v-77h-22v77h-31zM1384 25v100h31l19 -78l18 78h29v-100h-19v77l-20 -77h-19l-20 77v-77h-19z" />
<glyph unicode="&#xcc;" d="M68 731q0 150 56 282t154.5 230t230.5 155.5t282 57.5t281.5 -57.5t230 -155.5t156 -230t57.5 -282t-57.5 -282t-156 -230t-230 -155.5t-281.5 -57.5t-282 57.5t-230.5 155.5t-154.5 230.5t-56 281.5zM164 731q0 -129 49 -242.5t135 -199.5t200 -135.5t243 -49.5 q131 0 244.5 49.5t197.5 135.5t133 199.5t49 242.5t-49 242.5t-133 198.5t-197.5 134.5t-244.5 49.5q-129 0 -243 -49.5t-200 -134.5t-135 -198.5t-49 -242.5zM207 731q0 119 46 224.5t126 184.5t185.5 124t226.5 45q119 0 225 -45t185 -124t125 -184.5t46 -224.5 q0 -121 -46 -227.5t-125 -185t-185 -125t-225 -46.5q-121 0 -226.5 46.5t-185.5 125t-126 185t-46 227.5zM330 664l112 -177q346 -80 699 0l110 177h-921zM451 1063l151 -189q4 -4 15.5 -0.5t23.5 9.5t20.5 12t8.5 8q-29 57 -47.5 118.5t-53.5 111.5q-6 8 -26.5 -0.5 t-42 -22.5t-38 -28.5t-11.5 -18.5zM463 457q20 -35 51 -74t73 -70.5t92.5 -53t111.5 -21.5q59 0 110 21.5t92 53t73 70.5t52 74q-164 -43 -326.5 -42t-328.5 42zM715 731h155l-77 187zM918 903q-4 -2 4 -8t19 -12t23.5 -9.5t18.5 0.5l147 189q4 4 -11 18.5t-36.5 28.5 t-42 22.5t-26.5 0.5q-39 -49 -55.5 -110.5t-40.5 -119.5zM1290 102v23h84v-23h-31v-77h-22v77h-31zM1384 25v100h31l19 -78l18 78h29v-100h-19v77l-20 -77h-19l-20 77v-77h-19z" />
<glyph unicode="&#xcd;" d="M68 731q0 150 56 282t154.5 230t230.5 155.5t282 57.5t281.5 -57.5t230 -155.5t156 -230t57.5 -282t-57.5 -282t-156 -230t-230 -155.5t-281.5 -57.5t-282 57.5t-230.5 155.5t-154.5 230.5t-56 281.5zM164 731q0 -129 49 -242.5t135 -199.5t200 -135.5t243 -49.5 q131 0 244.5 49.5t197.5 135.5t133 199.5t49 242.5t-49 242.5t-133 198.5t-197.5 134.5t-244.5 49.5q-129 0 -243 -49.5t-200 -134.5t-135 -198.5t-49 -242.5zM207 731q0 119 46 224.5t126 184.5t185.5 124t226.5 45q119 0 225 -45t185 -124t125 -184.5t46 -224.5 q0 -121 -46 -227.5t-125 -185t-185 -125t-225 -46.5q-121 0 -226.5 46.5t-185.5 125t-126 185t-46 227.5zM330 664l112 -177q346 -80 699 0l110 177h-921zM451 1063l151 -189q4 -4 15.5 -0.5t23.5 9.5t20.5 12t8.5 8q-29 57 -47.5 118.5t-53.5 111.5q-6 8 -26.5 -0.5 t-42 -22.5t-38 -28.5t-11.5 -18.5zM463 457q20 -35 51 -74t73 -70.5t92.5 -53t111.5 -21.5q59 0 110 21.5t92 53t73 70.5t52 74q-164 -43 -326.5 -42t-328.5 42zM715 731h155l-77 187zM918 903q-4 -2 4 -8t19 -12t23.5 -9.5t18.5 0.5l147 189q4 4 -11 18.5t-36.5 28.5 t-42 22.5t-26.5 0.5q-39 -49 -55.5 -110.5t-40.5 -119.5zM1290 102v23h84v-23h-31v-77h-22v77h-31zM1384 25v100h31l19 -78l18 78h29v-100h-19v77l-20 -77h-19l-20 77v-77h-19z" />
<glyph unicode="&#xce;" d="M68 731q0 150 56 282t154.5 230t230.5 155.5t282 57.5t281.5 -57.5t230 -155.5t156 -230t57.5 -282t-57.5 -282t-156 -230t-230 -155.5t-281.5 -57.5t-282 57.5t-230.5 155.5t-154.5 230.5t-56 281.5zM164 731q0 -129 49 -242.5t135 -199.5t200 -135.5t243 -49.5 q131 0 244.5 49.5t197.5 135.5t133 199.5t49 242.5t-49 242.5t-133 198.5t-197.5 134.5t-244.5 49.5q-129 0 -243 -49.5t-200 -134.5t-135 -198.5t-49 -242.5zM207 731q0 119 46 224.5t126 184.5t185.5 124t226.5 45q119 0 225 -45t185 -124t125 -184.5t46 -224.5 q0 -121 -46 -227.5t-125 -185t-185 -125t-225 -46.5q-121 0 -226.5 46.5t-185.5 125t-126 185t-46 227.5zM330 664l112 -177q346 -80 699 0l110 177h-921zM451 1063l151 -189q4 -4 15.5 -0.5t23.5 9.5t20.5 12t8.5 8q-29 57 -47.5 118.5t-53.5 111.5q-6 8 -26.5 -0.5 t-42 -22.5t-38 -28.5t-11.5 -18.5zM463 457q20 -35 51 -74t73 -70.5t92.5 -53t111.5 -21.5q59 0 110 21.5t92 53t73 70.5t52 74q-164 -43 -326.5 -42t-328.5 42zM715 731h155l-77 187zM918 903q-4 -2 4 -8t19 -12t23.5 -9.5t18.5 0.5l147 189q4 4 -11 18.5t-36.5 28.5 t-42 22.5t-26.5 0.5q-39 -49 -55.5 -110.5t-40.5 -119.5zM1290 102v23h84v-23h-31v-77h-22v77h-31zM1384 25v100h31l19 -78l18 78h29v-100h-19v77l-20 -77h-19l-20 77v-77h-19z" />
<glyph unicode="&#xcf;" d="M68 731q0 150 56 282t154.5 230t230.5 155.5t282 57.5t281.5 -57.5t230 -155.5t156 -230t57.5 -282t-57.5 -282t-156 -230t-230 -155.5t-281.5 -57.5t-282 57.5t-230.5 155.5t-154.5 230.5t-56 281.5zM164 731q0 -129 49 -242.5t135 -199.5t200 -135.5t243 -49.5 q131 0 244.5 49.5t197.5 135.5t133 199.5t49 242.5t-49 242.5t-133 198.5t-197.5 134.5t-244.5 49.5q-129 0 -243 -49.5t-200 -134.5t-135 -198.5t-49 -242.5zM207 731q0 119 46 224.5t126 184.5t185.5 124t226.5 45q119 0 225 -45t185 -124t125 -184.5t46 -224.5 q0 -121 -46 -227.5t-125 -185t-185 -125t-225 -46.5q-121 0 -226.5 46.5t-185.5 125t-126 185t-46 227.5zM330 664l112 -177q346 -80 699 0l110 177h-921zM451 1063l151 -189q4 -4 15.5 -0.5t23.5 9.5t20.5 12t8.5 8q-29 57 -47.5 118.5t-53.5 111.5q-6 8 -26.5 -0.5 t-42 -22.5t-38 -28.5t-11.5 -18.5zM463 457q20 -35 51 -74t73 -70.5t92.5 -53t111.5 -21.5q59 0 110 21.5t92 53t73 70.5t52 74q-164 -43 -326.5 -42t-328.5 42zM715 731h155l-77 187zM918 903q-4 -2 4 -8t19 -12t23.5 -9.5t18.5 0.5l147 189q4 4 -11 18.5t-36.5 28.5 t-42 22.5t-26.5 0.5q-39 -49 -55.5 -110.5t-40.5 -119.5zM1290 102v23h84v-23h-31v-77h-22v77h-31zM1384 25v100h31l19 -78l18 78h29v-100h-19v77l-20 -77h-19l-20 77v-77h-19z" />
<glyph unicode="&#xd0;" d="M68 731q0 150 56 282t154.5 230t230.5 155.5t282 57.5t281.5 -57.5t230 -155.5t156 -230t57.5 -282t-57.5 -282t-156 -230t-230 -155.5t-281.5 -57.5t-282 57.5t-230.5 155.5t-154.5 230.5t-56 281.5zM164 731q0 -129 49 -242.5t135 -199.5t200 -135.5t243 -49.5 q131 0 244.5 49.5t197.5 135.5t133 199.5t49 242.5t-49 242.5t-133 198.5t-197.5 134.5t-244.5 49.5q-129 0 -243 -49.5t-200 -134.5t-135 -198.5t-49 -242.5zM207 731q0 119 46 224.5t126 184.5t185.5 124t226.5 45q119 0 225 -45t185 -124t125 -184.5t46 -224.5 q0 -121 -46 -227.5t-125 -185t-185 -125t-225 -46.5q-121 0 -226.5 46.5t-185.5 125t-126 185t-46 227.5zM330 664l112 -177q346 -80 699 0l110 177h-921zM451 1063l151 -189q4 -4 15.5 -0.5t23.5 9.5t20.5 12t8.5 8q-29 57 -47.5 118.5t-53.5 111.5q-6 8 -26.5 -0.5 t-42 -22.5t-38 -28.5t-11.5 -18.5zM463 457q20 -35 51 -74t73 -70.5t92.5 -53t111.5 -21.5q59 0 110 21.5t92 53t73 70.5t52 74q-164 -43 -326.5 -42t-328.5 42zM715 731h155l-77 187zM918 903q-4 -2 4 -8t19 -12t23.5 -9.5t18.5 0.5l147 189q4 4 -11 18.5t-36.5 28.5 t-42 22.5t-26.5 0.5q-39 -49 -55.5 -110.5t-40.5 -119.5zM1290 102v23h84v-23h-31v-77h-22v77h-31zM1384 25v100h31l19 -78l18 78h29v-100h-19v77l-20 -77h-19l-20 77v-77h-19z" />
<glyph unicode="&#xd1;" d="M68 731q0 150 56 282t154.5 230t230.5 155.5t282 57.5t281.5 -57.5t230 -155.5t156 -230t57.5 -282t-57.5 -282t-156 -230t-230 -155.5t-281.5 -57.5t-282 57.5t-230.5 155.5t-154.5 230.5t-56 281.5zM164 731q0 -129 49 -242.5t135 -199.5t200 -135.5t243 -49.5 q131 0 244.5 49.5t197.5 135.5t133 199.5t49 242.5t-49 242.5t-133 198.5t-197.5 134.5t-244.5 49.5q-129 0 -243 -49.5t-200 -134.5t-135 -198.5t-49 -242.5zM207 731q0 119 46 224.5t126 184.5t185.5 124t226.5 45q119 0 225 -45t185 -124t125 -184.5t46 -224.5 q0 -121 -46 -227.5t-125 -185t-185 -125t-225 -46.5q-121 0 -226.5 46.5t-185.5 125t-126 185t-46 227.5zM330 664l112 -177q346 -80 699 0l110 177h-921zM451 1063l151 -189q4 -4 15.5 -0.5t23.5 9.5t20.5 12t8.5 8q-29 57 -47.5 118.5t-53.5 111.5q-6 8 -26.5 -0.5 t-42 -22.5t-38 -28.5t-11.5 -18.5zM463 457q20 -35 51 -74t73 -70.5t92.5 -53t111.5 -21.5q59 0 110 21.5t92 53t73 70.5t52 74q-164 -43 -326.5 -42t-328.5 42zM715 731h155l-77 187zM918 903q-4 -2 4 -8t19 -12t23.5 -9.5t18.5 0.5l147 189q4 4 -11 18.5t-36.5 28.5 t-42 22.5t-26.5 0.5q-39 -49 -55.5 -110.5t-40.5 -119.5zM1290 102v23h84v-23h-31v-77h-22v77h-31zM1384 25v100h31l19 -78l18 78h29v-100h-19v77l-20 -77h-19l-20 77v-77h-19z" />
<glyph unicode="&#xd2;" d="M68 731q0 150 56 282t154.5 230t230.5 155.5t282 57.5t281.5 -57.5t230 -155.5t156 -230t57.5 -282t-57.5 -282t-156 -230t-230 -155.5t-281.5 -57.5t-282 57.5t-230.5 155.5t-154.5 230.5t-56 281.5zM164 731q0 -129 49 -242.5t135 -199.5t200 -135.5t243 -49.5 q131 0 244.5 49.5t197.5 135.5t133 199.5t49 242.5t-49 242.5t-133 198.5t-197.5 134.5t-244.5 49.5q-129 0 -243 -49.5t-200 -134.5t-135 -198.5t-49 -242.5zM207 731q0 119 46 224.5t126 184.5t185.5 124t226.5 45q119 0 225 -45t185 -124t125 -184.5t46 -224.5 q0 -121 -46 -227.5t-125 -185t-185 -125t-225 -46.5q-121 0 -226.5 46.5t-185.5 125t-126 185t-46 227.5zM330 664l112 -177q346 -80 699 0l110 177h-921zM451 1063l151 -189q4 -4 15.5 -0.5t23.5 9.5t20.5 12t8.5 8q-29 57 -47.5 118.5t-53.5 111.5q-6 8 -26.5 -0.5 t-42 -22.5t-38 -28.5t-11.5 -18.5zM463 457q20 -35 51 -74t73 -70.5t92.5 -53t111.5 -21.5q59 0 110 21.5t92 53t73 70.5t52 74q-164 -43 -326.5 -42t-328.5 42zM715 731h155l-77 187zM918 903q-4 -2 4 -8t19 -12t23.5 -9.5t18.5 0.5l147 189q4 4 -11 18.5t-36.5 28.5 t-42 22.5t-26.5 0.5q-39 -49 -55.5 -110.5t-40.5 -119.5zM1290 102v23h84v-23h-31v-77h-22v77h-31zM1384 25v100h31l19 -78l18 78h29v-100h-19v77l-20 -77h-19l-20 77v-77h-19z" />
<glyph unicode="&#xd3;" d="M68 731q0 150 56 282t154.5 230t230.5 155.5t282 57.5t281.5 -57.5t230 -155.5t156 -230t57.5 -282t-57.5 -282t-156 -230t-230 -155.5t-281.5 -57.5t-282 57.5t-230.5 155.5t-154.5 230.5t-56 281.5zM164 731q0 -129 49 -242.5t135 -199.5t200 -135.5t243 -49.5 q131 0 244.5 49.5t197.5 135.5t133 199.5t49 242.5t-49 242.5t-133 198.5t-197.5 134.5t-244.5 49.5q-129 0 -243 -49.5t-200 -134.5t-135 -198.5t-49 -242.5zM207 731q0 119 46 224.5t126 184.5t185.5 124t226.5 45q119 0 225 -45t185 -124t125 -184.5t46 -224.5 q0 -121 -46 -227.5t-125 -185t-185 -125t-225 -46.5q-121 0 -226.5 46.5t-185.5 125t-126 185t-46 227.5zM330 664l112 -177q346 -80 699 0l110 177h-921zM451 1063l151 -189q4 -4 15.5 -0.5t23.5 9.5t20.5 12t8.5 8q-29 57 -47.5 118.5t-53.5 111.5q-6 8 -26.5 -0.5 t-42 -22.5t-38 -28.5t-11.5 -18.5zM463 457q20 -35 51 -74t73 -70.5t92.5 -53t111.5 -21.5q59 0 110 21.5t92 53t73 70.5t52 74q-164 -43 -326.5 -42t-328.5 42zM715 731h155l-77 187zM918 903q-4 -2 4 -8t19 -12t23.5 -9.5t18.5 0.5l147 189q4 4 -11 18.5t-36.5 28.5 t-42 22.5t-26.5 0.5q-39 -49 -55.5 -110.5t-40.5 -119.5zM1290 102v23h84v-23h-31v-77h-22v77h-31zM1384 25v100h31l19 -78l18 78h29v-100h-19v77l-20 -77h-19l-20 77v-77h-19z" />
<glyph unicode="&#xd4;" d="M68 731q0 150 56 282t154.5 230t230.5 155.5t282 57.5t281.5 -57.5t230 -155.5t156 -230t57.5 -282t-57.5 -282t-156 -230t-230 -155.5t-281.5 -57.5t-282 57.5t-230.5 155.5t-154.5 230.5t-56 281.5zM164 731q0 -129 49 -242.5t135 -199.5t200 -135.5t243 -49.5 q131 0 244.5 49.5t197.5 135.5t133 199.5t49 242.5t-49 242.5t-133 198.5t-197.5 134.5t-244.5 49.5q-129 0 -243 -49.5t-200 -134.5t-135 -198.5t-49 -242.5zM207 731q0 119 46 224.5t126 184.5t185.5 124t226.5 45q119 0 225 -45t185 -124t125 -184.5t46 -224.5 q0 -121 -46 -227.5t-125 -185t-185 -125t-225 -46.5q-121 0 -226.5 46.5t-185.5 125t-126 185t-46 227.5zM330 664l112 -177q346 -80 699 0l110 177h-921zM451 1063l151 -189q4 -4 15.5 -0.5t23.5 9.5t20.5 12t8.5 8q-29 57 -47.5 118.5t-53.5 111.5q-6 8 -26.5 -0.5 t-42 -22.5t-38 -28.5t-11.5 -18.5zM463 457q20 -35 51 -74t73 -70.5t92.5 -53t111.5 -21.5q59 0 110 21.5t92 53t73 70.5t52 74q-164 -43 -326.5 -42t-328.5 42zM715 731h155l-77 187zM918 903q-4 -2 4 -8t19 -12t23.5 -9.5t18.5 0.5l147 189q4 4 -11 18.5t-36.5 28.5 t-42 22.5t-26.5 0.5q-39 -49 -55.5 -110.5t-40.5 -119.5zM1290 102v23h84v-23h-31v-77h-22v77h-31zM1384 25v100h31l19 -78l18 78h29v-100h-19v77l-20 -77h-19l-20 77v-77h-19z" />
<glyph unicode="&#xd5;" d="M68 731q0 150 56 282t154.5 230t230.5 155.5t282 57.5t281.5 -57.5t230 -155.5t156 -230t57.5 -282t-57.5 -282t-156 -230t-230 -155.5t-281.5 -57.5t-282 57.5t-230.5 155.5t-154.5 230.5t-56 281.5zM164 731q0 -129 49 -242.5t135 -199.5t200 -135.5t243 -49.5 q131 0 244.5 49.5t197.5 135.5t133 199.5t49 242.5t-49 242.5t-133 198.5t-197.5 134.5t-244.5 49.5q-129 0 -243 -49.5t-200 -134.5t-135 -198.5t-49 -242.5zM207 731q0 119 46 224.5t126 184.5t185.5 124t226.5 45q119 0 225 -45t185 -124t125 -184.5t46 -224.5 q0 -121 -46 -227.5t-125 -185t-185 -125t-225 -46.5q-121 0 -226.5 46.5t-185.5 125t-126 185t-46 227.5zM330 664l112 -177q346 -80 699 0l110 177h-921zM451 1063l151 -189q4 -4 15.5 -0.5t23.5 9.5t20.5 12t8.5 8q-29 57 -47.5 118.5t-53.5 111.5q-6 8 -26.5 -0.5 t-42 -22.5t-38 -28.5t-11.5 -18.5zM463 457q20 -35 51 -74t73 -70.5t92.5 -53t111.5 -21.5q59 0 110 21.5t92 53t73 70.5t52 74q-164 -43 -326.5 -42t-328.5 42zM715 731h155l-77 187zM918 903q-4 -2 4 -8t19 -12t23.5 -9.5t18.5 0.5l147 189q4 4 -11 18.5t-36.5 28.5 t-42 22.5t-26.5 0.5q-39 -49 -55.5 -110.5t-40.5 -119.5zM1290 102v23h84v-23h-31v-77h-22v77h-31zM1384 25v100h31l19 -78l18 78h29v-100h-19v77l-20 -77h-19l-20 77v-77h-19z" />
<glyph unicode="&#xd6;" d="M68 731q0 150 56 282t154.5 230t230.5 155.5t282 57.5t281.5 -57.5t230 -155.5t156 -230t57.5 -282t-57.5 -282t-156 -230t-230 -155.5t-281.5 -57.5t-282 57.5t-230.5 155.5t-154.5 230.5t-56 281.5zM164 731q0 -129 49 -242.5t135 -199.5t200 -135.5t243 -49.5 q131 0 244.5 49.5t197.5 135.5t133 199.5t49 242.5t-49 242.5t-133 198.5t-197.5 134.5t-244.5 49.5q-129 0 -243 -49.5t-200 -134.5t-135 -198.5t-49 -242.5zM207 731q0 119 46 224.5t126 184.5t185.5 124t226.5 45q119 0 225 -45t185 -124t125 -184.5t46 -224.5 q0 -121 -46 -227.5t-125 -185t-185 -125t-225 -46.5q-121 0 -226.5 46.5t-185.5 125t-126 185t-46 227.5zM330 664l112 -177q346 -80 699 0l110 177h-921zM451 1063l151 -189q4 -4 15.5 -0.5t23.5 9.5t20.5 12t8.5 8q-29 57 -47.5 118.5t-53.5 111.5q-6 8 -26.5 -0.5 t-42 -22.5t-38 -28.5t-11.5 -18.5zM463 457q20 -35 51 -74t73 -70.5t92.5 -53t111.5 -21.5q59 0 110 21.5t92 53t73 70.5t52 74q-164 -43 -326.5 -42t-328.5 42zM715 731h155l-77 187zM918 903q-4 -2 4 -8t19 -12t23.5 -9.5t18.5 0.5l147 189q4 4 -11 18.5t-36.5 28.5 t-42 22.5t-26.5 0.5q-39 -49 -55.5 -110.5t-40.5 -119.5zM1290 102v23h84v-23h-31v-77h-22v77h-31zM1384 25v100h31l19 -78l18 78h29v-100h-19v77l-20 -77h-19l-20 77v-77h-19z" />
<glyph unicode="&#xd7;" d="M68 731q0 150 56 282t154.5 230t230.5 155.5t282 57.5t281.5 -57.5t230 -155.5t156 -230t57.5 -282t-57.5 -282t-156 -230t-230 -155.5t-281.5 -57.5t-282 57.5t-230.5 155.5t-154.5 230.5t-56 281.5zM164 731q0 -129 49 -242.5t135 -199.5t200 -135.5t243 -49.5 q131 0 244.5 49.5t197.5 135.5t133 199.5t49 242.5t-49 242.5t-133 198.5t-197.5 134.5t-244.5 49.5q-129 0 -243 -49.5t-200 -134.5t-135 -198.5t-49 -242.5zM207 731q0 119 46 224.5t126 184.5t185.5 124t226.5 45q119 0 225 -45t185 -124t125 -184.5t46 -224.5 q0 -121 -46 -227.5t-125 -185t-185 -125t-225 -46.5q-121 0 -226.5 46.5t-185.5 125t-126 185t-46 227.5zM330 664l112 -177q346 -80 699 0l110 177h-921zM451 1063l151 -189q4 -4 15.5 -0.5t23.5 9.5t20.5 12t8.5 8q-29 57 -47.5 118.5t-53.5 111.5q-6 8 -26.5 -0.5 t-42 -22.5t-38 -28.5t-11.5 -18.5zM463 457q20 -35 51 -74t73 -70.5t92.5 -53t111.5 -21.5q59 0 110 21.5t92 53t73 70.5t52 74q-164 -43 -326.5 -42t-328.5 42zM715 731h155l-77 187zM918 903q-4 -2 4 -8t19 -12t23.5 -9.5t18.5 0.5l147 189q4 4 -11 18.5t-36.5 28.5 t-42 22.5t-26.5 0.5q-39 -49 -55.5 -110.5t-40.5 -119.5zM1290 102v23h84v-23h-31v-77h-22v77h-31zM1384 25v100h31l19 -78l18 78h29v-100h-19v77l-20 -77h-19l-20 77v-77h-19z" />
<glyph unicode="&#xd8;" d="M68 731q0 150 56 282t154.5 230t230.5 155.5t282 57.5t281.5 -57.5t230 -155.5t156 -230t57.5 -282t-57.5 -282t-156 -230t-230 -155.5t-281.5 -57.5t-282 57.5t-230.5 155.5t-154.5 230.5t-56 281.5zM164 731q0 -129 49 -242.5t135 -199.5t200 -135.5t243 -49.5 q131 0 244.5 49.5t197.5 135.5t133 199.5t49 242.5t-49 242.5t-133 198.5t-197.5 134.5t-244.5 49.5q-129 0 -243 -49.5t-200 -134.5t-135 -198.5t-49 -242.5zM207 731q0 119 46 224.5t126 184.5t185.5 124t226.5 45q119 0 225 -45t185 -124t125 -184.5t46 -224.5 q0 -121 -46 -227.5t-125 -185t-185 -125t-225 -46.5q-121 0 -226.5 46.5t-185.5 125t-126 185t-46 227.5zM330 664l112 -177q346 -80 699 0l110 177h-921zM451 1063l151 -189q4 -4 15.5 -0.5t23.5 9.5t20.5 12t8.5 8q-29 57 -47.5 118.5t-53.5 111.5q-6 8 -26.5 -0.5 t-42 -22.5t-38 -28.5t-11.5 -18.5zM463 457q20 -35 51 -74t73 -70.5t92.5 -53t111.5 -21.5q59 0 110 21.5t92 53t73 70.5t52 74q-164 -43 -326.5 -42t-328.5 42zM715 731h155l-77 187zM918 903q-4 -2 4 -8t19 -12t23.5 -9.5t18.5 0.5l147 189q4 4 -11 18.5t-36.5 28.5 t-42 22.5t-26.5 0.5q-39 -49 -55.5 -110.5t-40.5 -119.5zM1290 102v23h84v-23h-31v-77h-22v77h-31zM1384 25v100h31l19 -78l18 78h29v-100h-19v77l-20 -77h-19l-20 77v-77h-19z" />
<glyph unicode="&#xd9;" d="M68 731q0 150 56 282t154.5 230t230.5 155.5t282 57.5t281.5 -57.5t230 -155.5t156 -230t57.5 -282t-57.5 -282t-156 -230t-230 -155.5t-281.5 -57.5t-282 57.5t-230.5 155.5t-154.5 230.5t-56 281.5zM164 731q0 -129 49 -242.5t135 -199.5t200 -135.5t243 -49.5 q131 0 244.5 49.5t197.5 135.5t133 199.5t49 242.5t-49 242.5t-133 198.5t-197.5 134.5t-244.5 49.5q-129 0 -243 -49.5t-200 -134.5t-135 -198.5t-49 -242.5zM207 731q0 119 46 224.5t126 184.5t185.5 124t226.5 45q119 0 225 -45t185 -124t125 -184.5t46 -224.5 q0 -121 -46 -227.5t-125 -185t-185 -125t-225 -46.5q-121 0 -226.5 46.5t-185.5 125t-126 185t-46 227.5zM330 664l112 -177q346 -80 699 0l110 177h-921zM451 1063l151 -189q4 -4 15.5 -0.5t23.5 9.5t20.5 12t8.5 8q-29 57 -47.5 118.5t-53.5 111.5q-6 8 -26.5 -0.5 t-42 -22.5t-38 -28.5t-11.5 -18.5zM463 457q20 -35 51 -74t73 -70.5t92.5 -53t111.5 -21.5q59 0 110 21.5t92 53t73 70.5t52 74q-164 -43 -326.5 -42t-328.5 42zM715 731h155l-77 187zM918 903q-4 -2 4 -8t19 -12t23.5 -9.5t18.5 0.5l147 189q4 4 -11 18.5t-36.5 28.5 t-42 22.5t-26.5 0.5q-39 -49 -55.5 -110.5t-40.5 -119.5zM1290 102v23h84v-23h-31v-77h-22v77h-31zM1384 25v100h31l19 -78l18 78h29v-100h-19v77l-20 -77h-19l-20 77v-77h-19z" />
<glyph unicode="&#xda;" d="M68 731q0 150 56 282t154.5 230t230.5 155.5t282 57.5t281.5 -57.5t230 -155.5t156 -230t57.5 -282t-57.5 -282t-156 -230t-230 -155.5t-281.5 -57.5t-282 57.5t-230.5 155.5t-154.5 230.5t-56 281.5zM164 731q0 -129 49 -242.5t135 -199.5t200 -135.5t243 -49.5 q131 0 244.5 49.5t197.5 135.5t133 199.5t49 242.5t-49 242.5t-133 198.5t-197.5 134.5t-244.5 49.5q-129 0 -243 -49.5t-200 -134.5t-135 -198.5t-49 -242.5zM207 731q0 119 46 224.5t126 184.5t185.5 124t226.5 45q119 0 225 -45t185 -124t125 -184.5t46 -224.5 q0 -121 -46 -227.5t-125 -185t-185 -125t-225 -46.5q-121 0 -226.5 46.5t-185.5 125t-126 185t-46 227.5zM330 664l112 -177q346 -80 699 0l110 177h-921zM451 1063l151 -189q4 -4 15.5 -0.5t23.5 9.5t20.5 12t8.5 8q-29 57 -47.5 118.5t-53.5 111.5q-6 8 -26.5 -0.5 t-42 -22.5t-38 -28.5t-11.5 -18.5zM463 457q20 -35 51 -74t73 -70.5t92.5 -53t111.5 -21.5q59 0 110 21.5t92 53t73 70.5t52 74q-164 -43 -326.5 -42t-328.5 42zM715 731h155l-77 187zM918 903q-4 -2 4 -8t19 -12t23.5 -9.5t18.5 0.5l147 189q4 4 -11 18.5t-36.5 28.5 t-42 22.5t-26.5 0.5q-39 -49 -55.5 -110.5t-40.5 -119.5zM1290 102v23h84v-23h-31v-77h-22v77h-31zM1384 25v100h31l19 -78l18 78h29v-100h-19v77l-20 -77h-19l-20 77v-77h-19z" />
<glyph unicode="&#xdb;" d="M68 731q0 150 56 282t154.5 230t230.5 155.5t282 57.5t281.5 -57.5t230 -155.5t156 -230t57.5 -282t-57.5 -282t-156 -230t-230 -155.5t-281.5 -57.5t-282 57.5t-230.5 155.5t-154.5 230.5t-56 281.5zM164 731q0 -129 49 -242.5t135 -199.5t200 -135.5t243 -49.5 q131 0 244.5 49.5t197.5 135.5t133 199.5t49 242.5t-49 242.5t-133 198.5t-197.5 134.5t-244.5 49.5q-129 0 -243 -49.5t-200 -134.5t-135 -198.5t-49 -242.5zM207 731q0 119 46 224.5t126 184.5t185.5 124t226.5 45q119 0 225 -45t185 -124t125 -184.5t46 -224.5 q0 -121 -46 -227.5t-125 -185t-185 -125t-225 -46.5q-121 0 -226.5 46.5t-185.5 125t-126 185t-46 227.5zM330 664l112 -177q346 -80 699 0l110 177h-921zM451 1063l151 -189q4 -4 15.5 -0.5t23.5 9.5t20.5 12t8.5 8q-29 57 -47.5 118.5t-53.5 111.5q-6 8 -26.5 -0.5 t-42 -22.5t-38 -28.5t-11.5 -18.5zM463 457q20 -35 51 -74t73 -70.5t92.5 -53t111.5 -21.5q59 0 110 21.5t92 53t73 70.5t52 74q-164 -43 -326.5 -42t-328.5 42zM715 731h155l-77 187zM918 903q-4 -2 4 -8t19 -12t23.5 -9.5t18.5 0.5l147 189q4 4 -11 18.5t-36.5 28.5 t-42 22.5t-26.5 0.5q-39 -49 -55.5 -110.5t-40.5 -119.5zM1290 102v23h84v-23h-31v-77h-22v77h-31zM1384 25v100h31l19 -78l18 78h29v-100h-19v77l-20 -77h-19l-20 77v-77h-19z" />
<glyph unicode="&#xdc;" d="M68 731q0 150 56 282t154.5 230t230.5 155.5t282 57.5t281.5 -57.5t230 -155.5t156 -230t57.5 -282t-57.5 -282t-156 -230t-230 -155.5t-281.5 -57.5t-282 57.5t-230.5 155.5t-154.5 230.5t-56 281.5zM164 731q0 -129 49 -242.5t135 -199.5t200 -135.5t243 -49.5 q131 0 244.5 49.5t197.5 135.5t133 199.5t49 242.5t-49 242.5t-133 198.5t-197.5 134.5t-244.5 49.5q-129 0 -243 -49.5t-200 -134.5t-135 -198.5t-49 -242.5zM207 731q0 119 46 224.5t126 184.5t185.5 124t226.5 45q119 0 225 -45t185 -124t125 -184.5t46 -224.5 q0 -121 -46 -227.5t-125 -185t-185 -125t-225 -46.5q-121 0 -226.5 46.5t-185.5 125t-126 185t-46 227.5zM330 664l112 -177q346 -80 699 0l110 177h-921zM451 1063l151 -189q4 -4 15.5 -0.5t23.5 9.5t20.5 12t8.5 8q-29 57 -47.5 118.5t-53.5 111.5q-6 8 -26.5 -0.5 t-42 -22.5t-38 -28.5t-11.5 -18.5zM463 457q20 -35 51 -74t73 -70.5t92.5 -53t111.5 -21.5q59 0 110 21.5t92 53t73 70.5t52 74q-164 -43 -326.5 -42t-328.5 42zM715 731h155l-77 187zM918 903q-4 -2 4 -8t19 -12t23.5 -9.5t18.5 0.5l147 189q4 4 -11 18.5t-36.5 28.5 t-42 22.5t-26.5 0.5q-39 -49 -55.5 -110.5t-40.5 -119.5zM1290 102v23h84v-23h-31v-77h-22v77h-31zM1384 25v100h31l19 -78l18 78h29v-100h-19v77l-20 -77h-19l-20 77v-77h-19z" />
<glyph unicode="&#xdd;" d="M68 731q0 150 56 282t154.5 230t230.5 155.5t282 57.5t281.5 -57.5t230 -155.5t156 -230t57.5 -282t-57.5 -282t-156 -230t-230 -155.5t-281.5 -57.5t-282 57.5t-230.5 155.5t-154.5 230.5t-56 281.5zM164 731q0 -129 49 -242.5t135 -199.5t200 -135.5t243 -49.5 q131 0 244.5 49.5t197.5 135.5t133 199.5t49 242.5t-49 242.5t-133 198.5t-197.5 134.5t-244.5 49.5q-129 0 -243 -49.5t-200 -134.5t-135 -198.5t-49 -242.5zM207 731q0 119 46 224.5t126 184.5t185.5 124t226.5 45q119 0 225 -45t185 -124t125 -184.5t46 -224.5 q0 -121 -46 -227.5t-125 -185t-185 -125t-225 -46.5q-121 0 -226.5 46.5t-185.5 125t-126 185t-46 227.5zM330 664l112 -177q346 -80 699 0l110 177h-921zM451 1063l151 -189q4 -4 15.5 -0.5t23.5 9.5t20.5 12t8.5 8q-29 57 -47.5 118.5t-53.5 111.5q-6 8 -26.5 -0.5 t-42 -22.5t-38 -28.5t-11.5 -18.5zM463 457q20 -35 51 -74t73 -70.5t92.5 -53t111.5 -21.5q59 0 110 21.5t92 53t73 70.5t52 74q-164 -43 -326.5 -42t-328.5 42zM715 731h155l-77 187zM918 903q-4 -2 4 -8t19 -12t23.5 -9.5t18.5 0.5l147 189q4 4 -11 18.5t-36.5 28.5 t-42 22.5t-26.5 0.5q-39 -49 -55.5 -110.5t-40.5 -119.5zM1290 102v23h84v-23h-31v-77h-22v77h-31zM1384 25v100h31l19 -78l18 78h29v-100h-19v77l-20 -77h-19l-20 77v-77h-19z" />
<glyph unicode="&#xde;" d="M68 731q0 150 56 282t154.5 230t230.5 155.5t282 57.5t281.5 -57.5t230 -155.5t156 -230t57.5 -282t-57.5 -282t-156 -230t-230 -155.5t-281.5 -57.5t-282 57.5t-230.5 155.5t-154.5 230.5t-56 281.5zM164 731q0 -129 49 -242.5t135 -199.5t200 -135.5t243 -49.5 q131 0 244.5 49.5t197.5 135.5t133 199.5t49 242.5t-49 242.5t-133 198.5t-197.5 134.5t-244.5 49.5q-129 0 -243 -49.5t-200 -134.5t-135 -198.5t-49 -242.5zM207 731q0 119 46 224.5t126 184.5t185.5 124t226.5 45q119 0 225 -45t185 -124t125 -184.5t46 -224.5 q0 -121 -46 -227.5t-125 -185t-185 -125t-225 -46.5q-121 0 -226.5 46.5t-185.5 125t-126 185t-46 227.5zM330 664l112 -177q346 -80 699 0l110 177h-921zM451 1063l151 -189q4 -4 15.5 -0.5t23.5 9.5t20.5 12t8.5 8q-29 57 -47.5 118.5t-53.5 111.5q-6 8 -26.5 -0.5 t-42 -22.5t-38 -28.5t-11.5 -18.5zM463 457q20 -35 51 -74t73 -70.5t92.5 -53t111.5 -21.5q59 0 110 21.5t92 53t73 70.5t52 74q-164 -43 -326.5 -42t-328.5 42zM715 731h155l-77 187zM918 903q-4 -2 4 -8t19 -12t23.5 -9.5t18.5 0.5l147 189q4 4 -11 18.5t-36.5 28.5 t-42 22.5t-26.5 0.5q-39 -49 -55.5 -110.5t-40.5 -119.5zM1290 102v23h84v-23h-31v-77h-22v77h-31zM1384 25v100h31l19 -78l18 78h29v-100h-19v77l-20 -77h-19l-20 77v-77h-19z" />
<glyph unicode="&#xdf;" d="M68 731q0 150 56 282t154.5 230t230.5 155.5t282 57.5t281.5 -57.5t230 -155.5t156 -230t57.5 -282t-57.5 -282t-156 -230t-230 -155.5t-281.5 -57.5t-282 57.5t-230.5 155.5t-154.5 230.5t-56 281.5zM164 731q0 -129 49 -242.5t135 -199.5t200 -135.5t243 -49.5 q131 0 244.5 49.5t197.5 135.5t133 199.5t49 242.5t-49 242.5t-133 198.5t-197.5 134.5t-244.5 49.5q-129 0 -243 -49.5t-200 -134.5t-135 -198.5t-49 -242.5zM207 731q0 119 46 224.5t126 184.5t185.5 124t226.5 45q119 0 225 -45t185 -124t125 -184.5t46 -224.5 q0 -121 -46 -227.5t-125 -185t-185 -125t-225 -46.5q-121 0 -226.5 46.5t-185.5 125t-126 185t-46 227.5zM330 664l112 -177q346 -80 699 0l110 177h-921zM451 1063l151 -189q4 -4 15.5 -0.5t23.5 9.5t20.5 12t8.5 8q-29 57 -47.5 118.5t-53.5 111.5q-6 8 -26.5 -0.5 t-42 -22.5t-38 -28.5t-11.5 -18.5zM463 457q20 -35 51 -74t73 -70.5t92.5 -53t111.5 -21.5q59 0 110 21.5t92 53t73 70.5t52 74q-164 -43 -326.5 -42t-328.5 42zM715 731h155l-77 187zM918 903q-4 -2 4 -8t19 -12t23.5 -9.5t18.5 0.5l147 189q4 4 -11 18.5t-36.5 28.5 t-42 22.5t-26.5 0.5q-39 -49 -55.5 -110.5t-40.5 -119.5zM1290 102v23h84v-23h-31v-77h-22v77h-31zM1384 25v100h31l19 -78l18 78h29v-100h-19v77l-20 -77h-19l-20 77v-77h-19z" />
<glyph unicode="&#xe0;" d="M68 731q0 150 56 282t154.5 230t230.5 155.5t282 57.5t281.5 -57.5t230 -155.5t156 -230t57.5 -282t-57.5 -282t-156 -230t-230 -155.5t-281.5 -57.5t-282 57.5t-230.5 155.5t-154.5 230.5t-56 281.5zM164 731q0 -129 49 -242.5t135 -199.5t200 -135.5t243 -49.5 q131 0 244.5 49.5t197.5 135.5t133 199.5t49 242.5t-49 242.5t-133 198.5t-197.5 134.5t-244.5 49.5q-129 0 -243 -49.5t-200 -134.5t-135 -198.5t-49 -242.5zM207 731q0 119 46 224.5t126 184.5t185.5 124t226.5 45q119 0 225 -45t185 -124t125 -184.5t46 -224.5 q0 -121 -46 -227.5t-125 -185t-185 -125t-225 -46.5q-121 0 -226.5 46.5t-185.5 125t-126 185t-46 227.5zM330 664l112 -177q346 -80 699 0l110 177h-921zM451 1063l151 -189q4 -4 15.5 -0.5t23.5 9.5t20.5 12t8.5 8q-29 57 -47.5 118.5t-53.5 111.5q-6 8 -26.5 -0.5 t-42 -22.5t-38 -28.5t-11.5 -18.5zM463 457q20 -35 51 -74t73 -70.5t92.5 -53t111.5 -21.5q59 0 110 21.5t92 53t73 70.5t52 74q-164 -43 -326.5 -42t-328.5 42zM715 731h155l-77 187zM918 903q-4 -2 4 -8t19 -12t23.5 -9.5t18.5 0.5l147 189q4 4 -11 18.5t-36.5 28.5 t-42 22.5t-26.5 0.5q-39 -49 -55.5 -110.5t-40.5 -119.5zM1290 102v23h84v-23h-31v-77h-22v77h-31zM1384 25v100h31l19 -78l18 78h29v-100h-19v77l-20 -77h-19l-20 77v-77h-19z" />
<glyph unicode="&#xe1;" d="M68 731q0 150 56 282t154.5 230t230.5 155.5t282 57.5t281.5 -57.5t230 -155.5t156 -230t57.5 -282t-57.5 -282t-156 -230t-230 -155.5t-281.5 -57.5t-282 57.5t-230.5 155.5t-154.5 230.5t-56 281.5zM164 731q0 -129 49 -242.5t135 -199.5t200 -135.5t243 -49.5 q131 0 244.5 49.5t197.5 135.5t133 199.5t49 242.5t-49 242.5t-133 198.5t-197.5 134.5t-244.5 49.5q-129 0 -243 -49.5t-200 -134.5t-135 -198.5t-49 -242.5zM207 731q0 119 46 224.5t126 184.5t185.5 124t226.5 45q119 0 225 -45t185 -124t125 -184.5t46 -224.5 q0 -121 -46 -227.5t-125 -185t-185 -125t-225 -46.5q-121 0 -226.5 46.5t-185.5 125t-126 185t-46 227.5zM330 664l112 -177q346 -80 699 0l110 177h-921zM451 1063l151 -189q4 -4 15.5 -0.5t23.5 9.5t20.5 12t8.5 8q-29 57 -47.5 118.5t-53.5 111.5q-6 8 -26.5 -0.5 t-42 -22.5t-38 -28.5t-11.5 -18.5zM463 457q20 -35 51 -74t73 -70.5t92.5 -53t111.5 -21.5q59 0 110 21.5t92 53t73 70.5t52 74q-164 -43 -326.5 -42t-328.5 42zM715 731h155l-77 187zM918 903q-4 -2 4 -8t19 -12t23.5 -9.5t18.5 0.5l147 189q4 4 -11 18.5t-36.5 28.5 t-42 22.5t-26.5 0.5q-39 -49 -55.5 -110.5t-40.5 -119.5zM1290 102v23h84v-23h-31v-77h-22v77h-31zM1384 25v100h31l19 -78l18 78h29v-100h-19v77l-20 -77h-19l-20 77v-77h-19z" />
<glyph unicode="&#xe2;" d="M68 731q0 150 56 282t154.5 230t230.5 155.5t282 57.5t281.5 -57.5t230 -155.5t156 -230t57.5 -282t-57.5 -282t-156 -230t-230 -155.5t-281.5 -57.5t-282 57.5t-230.5 155.5t-154.5 230.5t-56 281.5zM164 731q0 -129 49 -242.5t135 -199.5t200 -135.5t243 -49.5 q131 0 244.5 49.5t197.5 135.5t133 199.5t49 242.5t-49 242.5t-133 198.5t-197.5 134.5t-244.5 49.5q-129 0 -243 -49.5t-200 -134.5t-135 -198.5t-49 -242.5zM207 731q0 119 46 224.5t126 184.5t185.5 124t226.5 45q119 0 225 -45t185 -124t125 -184.5t46 -224.5 q0 -121 -46 -227.5t-125 -185t-185 -125t-225 -46.5q-121 0 -226.5 46.5t-185.5 125t-126 185t-46 227.5zM330 664l112 -177q346 -80 699 0l110 177h-921zM451 1063l151 -189q4 -4 15.5 -0.5t23.5 9.5t20.5 12t8.5 8q-29 57 -47.5 118.5t-53.5 111.5q-6 8 -26.5 -0.5 t-42 -22.5t-38 -28.5t-11.5 -18.5zM463 457q20 -35 51 -74t73 -70.5t92.5 -53t111.5 -21.5q59 0 110 21.5t92 53t73 70.5t52 74q-164 -43 -326.5 -42t-328.5 42zM715 731h155l-77 187zM918 903q-4 -2 4 -8t19 -12t23.5 -9.5t18.5 0.5l147 189q4 4 -11 18.5t-36.5 28.5 t-42 22.5t-26.5 0.5q-39 -49 -55.5 -110.5t-40.5 -119.5zM1290 102v23h84v-23h-31v-77h-22v77h-31zM1384 25v100h31l19 -78l18 78h29v-100h-19v77l-20 -77h-19l-20 77v-77h-19z" />
<glyph unicode="&#xe3;" d="M68 731q0 150 56 282t154.5 230t230.5 155.5t282 57.5t281.5 -57.5t230 -155.5t156 -230t57.5 -282t-57.5 -282t-156 -230t-230 -155.5t-281.5 -57.5t-282 57.5t-230.5 155.5t-154.5 230.5t-56 281.5zM164 731q0 -129 49 -242.5t135 -199.5t200 -135.5t243 -49.5 q131 0 244.5 49.5t197.5 135.5t133 199.5t49 242.5t-49 242.5t-133 198.5t-197.5 134.5t-244.5 49.5q-129 0 -243 -49.5t-200 -134.5t-135 -198.5t-49 -242.5zM207 731q0 119 46 224.5t126 184.5t185.5 124t226.5 45q119 0 225 -45t185 -124t125 -184.5t46 -224.5 q0 -121 -46 -227.5t-125 -185t-185 -125t-225 -46.5q-121 0 -226.5 46.5t-185.5 125t-126 185t-46 227.5zM330 664l112 -177q346 -80 699 0l110 177h-921zM451 1063l151 -189q4 -4 15.5 -0.5t23.5 9.5t20.5 12t8.5 8q-29 57 -47.5 118.5t-53.5 111.5q-6 8 -26.5 -0.5 t-42 -22.5t-38 -28.5t-11.5 -18.5zM463 457q20 -35 51 -74t73 -70.5t92.5 -53t111.5 -21.5q59 0 110 21.5t92 53t73 70.5t52 74q-164 -43 -326.5 -42t-328.5 42zM715 731h155l-77 187zM918 903q-4 -2 4 -8t19 -12t23.5 -9.5t18.5 0.5l147 189q4 4 -11 18.5t-36.5 28.5 t-42 22.5t-26.5 0.5q-39 -49 -55.5 -110.5t-40.5 -119.5zM1290 102v23h84v-23h-31v-77h-22v77h-31zM1384 25v100h31l19 -78l18 78h29v-100h-19v77l-20 -77h-19l-20 77v-77h-19z" />
<glyph unicode="&#xe4;" d="M68 731q0 150 56 282t154.5 230t230.5 155.5t282 57.5t281.5 -57.5t230 -155.5t156 -230t57.5 -282t-57.5 -282t-156 -230t-230 -155.5t-281.5 -57.5t-282 57.5t-230.5 155.5t-154.5 230.5t-56 281.5zM164 731q0 -129 49 -242.5t135 -199.5t200 -135.5t243 -49.5 q131 0 244.5 49.5t197.5 135.5t133 199.5t49 242.5t-49 242.5t-133 198.5t-197.5 134.5t-244.5 49.5q-129 0 -243 -49.5t-200 -134.5t-135 -198.5t-49 -242.5zM207 731q0 119 46 224.5t126 184.5t185.5 124t226.5 45q119 0 225 -45t185 -124t125 -184.5t46 -224.5 q0 -121 -46 -227.5t-125 -185t-185 -125t-225 -46.5q-121 0 -226.5 46.5t-185.5 125t-126 185t-46 227.5zM330 664l112 -177q346 -80 699 0l110 177h-921zM451 1063l151 -189q4 -4 15.5 -0.5t23.5 9.5t20.5 12t8.5 8q-29 57 -47.5 118.5t-53.5 111.5q-6 8 -26.5 -0.5 t-42 -22.5t-38 -28.5t-11.5 -18.5zM463 457q20 -35 51 -74t73 -70.5t92.5 -53t111.5 -21.5q59 0 110 21.5t92 53t73 70.5t52 74q-164 -43 -326.5 -42t-328.5 42zM715 731h155l-77 187zM918 903q-4 -2 4 -8t19 -12t23.5 -9.5t18.5 0.5l147 189q4 4 -11 18.5t-36.5 28.5 t-42 22.5t-26.5 0.5q-39 -49 -55.5 -110.5t-40.5 -119.5zM1290 102v23h84v-23h-31v-77h-22v77h-31zM1384 25v100h31l19 -78l18 78h29v-100h-19v77l-20 -77h-19l-20 77v-77h-19z" />
<glyph unicode="&#xe5;" d="M68 731q0 150 56 282t154.5 230t230.5 155.5t282 57.5t281.5 -57.5t230 -155.5t156 -230t57.5 -282t-57.5 -282t-156 -230t-230 -155.5t-281.5 -57.5t-282 57.5t-230.5 155.5t-154.5 230.5t-56 281.5zM164 731q0 -129 49 -242.5t135 -199.5t200 -135.5t243 -49.5 q131 0 244.5 49.5t197.5 135.5t133 199.5t49 242.5t-49 242.5t-133 198.5t-197.5 134.5t-244.5 49.5q-129 0 -243 -49.5t-200 -134.5t-135 -198.5t-49 -242.5zM207 731q0 119 46 224.5t126 184.5t185.5 124t226.5 45q119 0 225 -45t185 -124t125 -184.5t46 -224.5 q0 -121 -46 -227.5t-125 -185t-185 -125t-225 -46.5q-121 0 -226.5 46.5t-185.5 125t-126 185t-46 227.5zM330 664l112 -177q346 -80 699 0l110 177h-921zM451 1063l151 -189q4 -4 15.5 -0.5t23.5 9.5t20.5 12t8.5 8q-29 57 -47.5 118.5t-53.5 111.5q-6 8 -26.5 -0.5 t-42 -22.5t-38 -28.5t-11.5 -18.5zM463 457q20 -35 51 -74t73 -70.5t92.5 -53t111.5 -21.5q59 0 110 21.5t92 53t73 70.5t52 74q-164 -43 -326.5 -42t-328.5 42zM715 731h155l-77 187zM918 903q-4 -2 4 -8t19 -12t23.5 -9.5t18.5 0.5l147 189q4 4 -11 18.5t-36.5 28.5 t-42 22.5t-26.5 0.5q-39 -49 -55.5 -110.5t-40.5 -119.5zM1290 102v23h84v-23h-31v-77h-22v77h-31zM1384 25v100h31l19 -78l18 78h29v-100h-19v77l-20 -77h-19l-20 77v-77h-19z" />
<glyph unicode="&#xe6;" d="M68 731q0 150 56 282t154.5 230t230.5 155.5t282 57.5t281.5 -57.5t230 -155.5t156 -230t57.5 -282t-57.5 -282t-156 -230t-230 -155.5t-281.5 -57.5t-282 57.5t-230.5 155.5t-154.5 230.5t-56 281.5zM164 731q0 -129 49 -242.5t135 -199.5t200 -135.5t243 -49.5 q131 0 244.5 49.5t197.5 135.5t133 199.5t49 242.5t-49 242.5t-133 198.5t-197.5 134.5t-244.5 49.5q-129 0 -243 -49.5t-200 -134.5t-135 -198.5t-49 -242.5zM207 731q0 119 46 224.5t126 184.5t185.5 124t226.5 45q119 0 225 -45t185 -124t125 -184.5t46 -224.5 q0 -121 -46 -227.5t-125 -185t-185 -125t-225 -46.5q-121 0 -226.5 46.5t-185.5 125t-126 185t-46 227.5zM330 664l112 -177q346 -80 699 0l110 177h-921zM451 1063l151 -189q4 -4 15.5 -0.5t23.5 9.5t20.5 12t8.5 8q-29 57 -47.5 118.5t-53.5 111.5q-6 8 -26.5 -0.5 t-42 -22.5t-38 -28.5t-11.5 -18.5zM463 457q20 -35 51 -74t73 -70.5t92.5 -53t111.5 -21.5q59 0 110 21.5t92 53t73 70.5t52 74q-164 -43 -326.5 -42t-328.5 42zM715 731h155l-77 187zM918 903q-4 -2 4 -8t19 -12t23.5 -9.5t18.5 0.5l147 189q4 4 -11 18.5t-36.5 28.5 t-42 22.5t-26.5 0.5q-39 -49 -55.5 -110.5t-40.5 -119.5zM1290 102v23h84v-23h-31v-77h-22v77h-31zM1384 25v100h31l19 -78l18 78h29v-100h-19v77l-20 -77h-19l-20 77v-77h-19z" />
<glyph unicode="&#xe7;" d="M68 731q0 150 56 282t154.5 230t230.5 155.5t282 57.5t281.5 -57.5t230 -155.5t156 -230t57.5 -282t-57.5 -282t-156 -230t-230 -155.5t-281.5 -57.5t-282 57.5t-230.5 155.5t-154.5 230.5t-56 281.5zM164 731q0 -129 49 -242.5t135 -199.5t200 -135.5t243 -49.5 q131 0 244.5 49.5t197.5 135.5t133 199.5t49 242.5t-49 242.5t-133 198.5t-197.5 134.5t-244.5 49.5q-129 0 -243 -49.5t-200 -134.5t-135 -198.5t-49 -242.5zM207 731q0 119 46 224.5t126 184.5t185.5 124t226.5 45q119 0 225 -45t185 -124t125 -184.5t46 -224.5 q0 -121 -46 -227.5t-125 -185t-185 -125t-225 -46.5q-121 0 -226.5 46.5t-185.5 125t-126 185t-46 227.5zM330 664l112 -177q346 -80 699 0l110 177h-921zM451 1063l151 -189q4 -4 15.5 -0.5t23.5 9.5t20.5 12t8.5 8q-29 57 -47.5 118.5t-53.5 111.5q-6 8 -26.5 -0.5 t-42 -22.5t-38 -28.5t-11.5 -18.5zM463 457q20 -35 51 -74t73 -70.5t92.5 -53t111.5 -21.5q59 0 110 21.5t92 53t73 70.5t52 74q-164 -43 -326.5 -42t-328.5 42zM715 731h155l-77 187zM918 903q-4 -2 4 -8t19 -12t23.5 -9.5t18.5 0.5l147 189q4 4 -11 18.5t-36.5 28.5 t-42 22.5t-26.5 0.5q-39 -49 -55.5 -110.5t-40.5 -119.5zM1290 102v23h84v-23h-31v-77h-22v77h-31zM1384 25v100h31l19 -78l18 78h29v-100h-19v77l-20 -77h-19l-20 77v-77h-19z" />
<glyph unicode="&#xe8;" d="M68 731q0 150 56 282t154.5 230t230.5 155.5t282 57.5t281.5 -57.5t230 -155.5t156 -230t57.5 -282t-57.5 -282t-156 -230t-230 -155.5t-281.5 -57.5t-282 57.5t-230.5 155.5t-154.5 230.5t-56 281.5zM164 731q0 -129 49 -242.5t135 -199.5t200 -135.5t243 -49.5 q131 0 244.5 49.5t197.5 135.5t133 199.5t49 242.5t-49 242.5t-133 198.5t-197.5 134.5t-244.5 49.5q-129 0 -243 -49.5t-200 -134.5t-135 -198.5t-49 -242.5zM207 731q0 119 46 224.5t126 184.5t185.5 124t226.5 45q119 0 225 -45t185 -124t125 -184.5t46 -224.5 q0 -121 -46 -227.5t-125 -185t-185 -125t-225 -46.5q-121 0 -226.5 46.5t-185.5 125t-126 185t-46 227.5zM330 664l112 -177q346 -80 699 0l110 177h-921zM451 1063l151 -189q4 -4 15.5 -0.5t23.5 9.5t20.5 12t8.5 8q-29 57 -47.5 118.5t-53.5 111.5q-6 8 -26.5 -0.5 t-42 -22.5t-38 -28.5t-11.5 -18.5zM463 457q20 -35 51 -74t73 -70.5t92.5 -53t111.5 -21.5q59 0 110 21.5t92 53t73 70.5t52 74q-164 -43 -326.5 -42t-328.5 42zM715 731h155l-77 187zM918 903q-4 -2 4 -8t19 -12t23.5 -9.5t18.5 0.5l147 189q4 4 -11 18.5t-36.5 28.5 t-42 22.5t-26.5 0.5q-39 -49 -55.5 -110.5t-40.5 -119.5zM1290 102v23h84v-23h-31v-77h-22v77h-31zM1384 25v100h31l19 -78l18 78h29v-100h-19v77l-20 -77h-19l-20 77v-77h-19z" />
<glyph unicode="&#xe9;" d="M68 731q0 150 56 282t154.5 230t230.5 155.5t282 57.5t281.5 -57.5t230 -155.5t156 -230t57.5 -282t-57.5 -282t-156 -230t-230 -155.5t-281.5 -57.5t-282 57.5t-230.5 155.5t-154.5 230.5t-56 281.5zM164 731q0 -129 49 -242.5t135 -199.5t200 -135.5t243 -49.5 q131 0 244.5 49.5t197.5 135.5t133 199.5t49 242.5t-49 242.5t-133 198.5t-197.5 134.5t-244.5 49.5q-129 0 -243 -49.5t-200 -134.5t-135 -198.5t-49 -242.5zM207 731q0 119 46 224.5t126 184.5t185.5 124t226.5 45q119 0 225 -45t185 -124t125 -184.5t46 -224.5 q0 -121 -46 -227.5t-125 -185t-185 -125t-225 -46.5q-121 0 -226.5 46.5t-185.5 125t-126 185t-46 227.5zM330 664l112 -177q346 -80 699 0l110 177h-921zM451 1063l151 -189q4 -4 15.5 -0.5t23.5 9.5t20.5 12t8.5 8q-29 57 -47.5 118.5t-53.5 111.5q-6 8 -26.5 -0.5 t-42 -22.5t-38 -28.5t-11.5 -18.5zM463 457q20 -35 51 -74t73 -70.5t92.5 -53t111.5 -21.5q59 0 110 21.5t92 53t73 70.5t52 74q-164 -43 -326.5 -42t-328.5 42zM715 731h155l-77 187zM918 903q-4 -2 4 -8t19 -12t23.5 -9.5t18.5 0.5l147 189q4 4 -11 18.5t-36.5 28.5 t-42 22.5t-26.5 0.5q-39 -49 -55.5 -110.5t-40.5 -119.5zM1290 102v23h84v-23h-31v-77h-22v77h-31zM1384 25v100h31l19 -78l18 78h29v-100h-19v77l-20 -77h-19l-20 77v-77h-19z" />
<glyph unicode="&#xea;" d="M68 731q0 150 56 282t154.5 230t230.5 155.5t282 57.5t281.5 -57.5t230 -155.5t156 -230t57.5 -282t-57.5 -282t-156 -230t-230 -155.5t-281.5 -57.5t-282 57.5t-230.5 155.5t-154.5 230.5t-56 281.5zM164 731q0 -129 49 -242.5t135 -199.5t200 -135.5t243 -49.5 q131 0 244.5 49.5t197.5 135.5t133 199.5t49 242.5t-49 242.5t-133 198.5t-197.5 134.5t-244.5 49.5q-129 0 -243 -49.5t-200 -134.5t-135 -198.5t-49 -242.5zM207 731q0 119 46 224.5t126 184.5t185.5 124t226.5 45q119 0 225 -45t185 -124t125 -184.5t46 -224.5 q0 -121 -46 -227.5t-125 -185t-185 -125t-225 -46.5q-121 0 -226.5 46.5t-185.5 125t-126 185t-46 227.5zM330 664l112 -177q346 -80 699 0l110 177h-921zM451 1063l151 -189q4 -4 15.5 -0.5t23.5 9.5t20.5 12t8.5 8q-29 57 -47.5 118.5t-53.5 111.5q-6 8 -26.5 -0.5 t-42 -22.5t-38 -28.5t-11.5 -18.5zM463 457q20 -35 51 -74t73 -70.5t92.5 -53t111.5 -21.5q59 0 110 21.5t92 53t73 70.5t52 74q-164 -43 -326.5 -42t-328.5 42zM715 731h155l-77 187zM918 903q-4 -2 4 -8t19 -12t23.5 -9.5t18.5 0.5l147 189q4 4 -11 18.5t-36.5 28.5 t-42 22.5t-26.5 0.5q-39 -49 -55.5 -110.5t-40.5 -119.5zM1290 102v23h84v-23h-31v-77h-22v77h-31zM1384 25v100h31l19 -78l18 78h29v-100h-19v77l-20 -77h-19l-20 77v-77h-19z" />
<glyph unicode="&#xeb;" d="M68 731q0 150 56 282t154.5 230t230.5 155.5t282 57.5t281.5 -57.5t230 -155.5t156 -230t57.5 -282t-57.5 -282t-156 -230t-230 -155.5t-281.5 -57.5t-282 57.5t-230.5 155.5t-154.5 230.5t-56 281.5zM164 731q0 -129 49 -242.5t135 -199.5t200 -135.5t243 -49.5 q131 0 244.5 49.5t197.5 135.5t133 199.5t49 242.5t-49 242.5t-133 198.5t-197.5 134.5t-244.5 49.5q-129 0 -243 -49.5t-200 -134.5t-135 -198.5t-49 -242.5zM207 731q0 119 46 224.5t126 184.5t185.5 124t226.5 45q119 0 225 -45t185 -124t125 -184.5t46 -224.5 q0 -121 -46 -227.5t-125 -185t-185 -125t-225 -46.5q-121 0 -226.5 46.5t-185.5 125t-126 185t-46 227.5zM330 664l112 -177q346 -80 699 0l110 177h-921zM451 1063l151 -189q4 -4 15.5 -0.5t23.5 9.5t20.5 12t8.5 8q-29 57 -47.5 118.5t-53.5 111.5q-6 8 -26.5 -0.5 t-42 -22.5t-38 -28.5t-11.5 -18.5zM463 457q20 -35 51 -74t73 -70.5t92.5 -53t111.5 -21.5q59 0 110 21.5t92 53t73 70.5t52 74q-164 -43 -326.5 -42t-328.5 42zM715 731h155l-77 187zM918 903q-4 -2 4 -8t19 -12t23.5 -9.5t18.5 0.5l147 189q4 4 -11 18.5t-36.5 28.5 t-42 22.5t-26.5 0.5q-39 -49 -55.5 -110.5t-40.5 -119.5zM1290 102v23h84v-23h-31v-77h-22v77h-31zM1384 25v100h31l19 -78l18 78h29v-100h-19v77l-20 -77h-19l-20 77v-77h-19z" />
<glyph unicode="&#xec;" d="M68 731q0 150 56 282t154.5 230t230.5 155.5t282 57.5t281.5 -57.5t230 -155.5t156 -230t57.5 -282t-57.5 -282t-156 -230t-230 -155.5t-281.5 -57.5t-282 57.5t-230.5 155.5t-154.5 230.5t-56 281.5zM164 731q0 -129 49 -242.5t135 -199.5t200 -135.5t243 -49.5 q131 0 244.5 49.5t197.5 135.5t133 199.5t49 242.5t-49 242.5t-133 198.5t-197.5 134.5t-244.5 49.5q-129 0 -243 -49.5t-200 -134.5t-135 -198.5t-49 -242.5zM207 731q0 119 46 224.5t126 184.5t185.5 124t226.5 45q119 0 225 -45t185 -124t125 -184.5t46 -224.5 q0 -121 -46 -227.5t-125 -185t-185 -125t-225 -46.5q-121 0 -226.5 46.5t-185.5 125t-126 185t-46 227.5zM330 664l112 -177q346 -80 699 0l110 177h-921zM451 1063l151 -189q4 -4 15.5 -0.5t23.5 9.5t20.5 12t8.5 8q-29 57 -47.5 118.5t-53.5 111.5q-6 8 -26.5 -0.5 t-42 -22.5t-38 -28.5t-11.5 -18.5zM463 457q20 -35 51 -74t73 -70.5t92.5 -53t111.5 -21.5q59 0 110 21.5t92 53t73 70.5t52 74q-164 -43 -326.5 -42t-328.5 42zM715 731h155l-77 187zM918 903q-4 -2 4 -8t19 -12t23.5 -9.5t18.5 0.5l147 189q4 4 -11 18.5t-36.5 28.5 t-42 22.5t-26.5 0.5q-39 -49 -55.5 -110.5t-40.5 -119.5zM1290 102v23h84v-23h-31v-77h-22v77h-31zM1384 25v100h31l19 -78l18 78h29v-100h-19v77l-20 -77h-19l-20 77v-77h-19z" />
<glyph unicode="&#xed;" d="M68 731q0 150 56 282t154.5 230t230.5 155.5t282 57.5t281.5 -57.5t230 -155.5t156 -230t57.5 -282t-57.5 -282t-156 -230t-230 -155.5t-281.5 -57.5t-282 57.5t-230.5 155.5t-154.5 230.5t-56 281.5zM164 731q0 -129 49 -242.5t135 -199.5t200 -135.5t243 -49.5 q131 0 244.5 49.5t197.5 135.5t133 199.5t49 242.5t-49 242.5t-133 198.5t-197.5 134.5t-244.5 49.5q-129 0 -243 -49.5t-200 -134.5t-135 -198.5t-49 -242.5zM207 731q0 119 46 224.5t126 184.5t185.5 124t226.5 45q119 0 225 -45t185 -124t125 -184.5t46 -224.5 q0 -121 -46 -227.5t-125 -185t-185 -125t-225 -46.5q-121 0 -226.5 46.5t-185.5 125t-126 185t-46 227.5zM330 664l112 -177q346 -80 699 0l110 177h-921zM451 1063l151 -189q4 -4 15.5 -0.5t23.5 9.5t20.5 12t8.5 8q-29 57 -47.5 118.5t-53.5 111.5q-6 8 -26.5 -0.5 t-42 -22.5t-38 -28.5t-11.5 -18.5zM463 457q20 -35 51 -74t73 -70.5t92.5 -53t111.5 -21.5q59 0 110 21.5t92 53t73 70.5t52 74q-164 -43 -326.5 -42t-328.5 42zM715 731h155l-77 187zM918 903q-4 -2 4 -8t19 -12t23.5 -9.5t18.5 0.5l147 189q4 4 -11 18.5t-36.5 28.5 t-42 22.5t-26.5 0.5q-39 -49 -55.5 -110.5t-40.5 -119.5zM1290 102v23h84v-23h-31v-77h-22v77h-31zM1384 25v100h31l19 -78l18 78h29v-100h-19v77l-20 -77h-19l-20 77v-77h-19z" />
<glyph unicode="&#xee;" d="M68 731q0 150 56 282t154.5 230t230.5 155.5t282 57.5t281.5 -57.5t230 -155.5t156 -230t57.5 -282t-57.5 -282t-156 -230t-230 -155.5t-281.5 -57.5t-282 57.5t-230.5 155.5t-154.5 230.5t-56 281.5zM164 731q0 -129 49 -242.5t135 -199.5t200 -135.5t243 -49.5 q131 0 244.5 49.5t197.5 135.5t133 199.5t49 242.5t-49 242.5t-133 198.5t-197.5 134.5t-244.5 49.5q-129 0 -243 -49.5t-200 -134.5t-135 -198.5t-49 -242.5zM207 731q0 119 46 224.5t126 184.5t185.5 124t226.5 45q119 0 225 -45t185 -124t125 -184.5t46 -224.5 q0 -121 -46 -227.5t-125 -185t-185 -125t-225 -46.5q-121 0 -226.5 46.5t-185.5 125t-126 185t-46 227.5zM330 664l112 -177q346 -80 699 0l110 177h-921zM451 1063l151 -189q4 -4 15.5 -0.5t23.5 9.5t20.5 12t8.5 8q-29 57 -47.5 118.5t-53.5 111.5q-6 8 -26.5 -0.5 t-42 -22.5t-38 -28.5t-11.5 -18.5zM463 457q20 -35 51 -74t73 -70.5t92.5 -53t111.5 -21.5q59 0 110 21.5t92 53t73 70.5t52 74q-164 -43 -326.5 -42t-328.5 42zM715 731h155l-77 187zM918 903q-4 -2 4 -8t19 -12t23.5 -9.5t18.5 0.5l147 189q4 4 -11 18.5t-36.5 28.5 t-42 22.5t-26.5 0.5q-39 -49 -55.5 -110.5t-40.5 -119.5zM1290 102v23h84v-23h-31v-77h-22v77h-31zM1384 25v100h31l19 -78l18 78h29v-100h-19v77l-20 -77h-19l-20 77v-77h-19z" />
<glyph unicode="&#xef;" d="M68 731q0 150 56 282t154.5 230t230.5 155.5t282 57.5t281.5 -57.5t230 -155.5t156 -230t57.5 -282t-57.5 -282t-156 -230t-230 -155.5t-281.5 -57.5t-282 57.5t-230.5 155.5t-154.5 230.5t-56 281.5zM164 731q0 -129 49 -242.5t135 -199.5t200 -135.5t243 -49.5 q131 0 244.5 49.5t197.5 135.5t133 199.5t49 242.5t-49 242.5t-133 198.5t-197.5 134.5t-244.5 49.5q-129 0 -243 -49.5t-200 -134.5t-135 -198.5t-49 -242.5zM207 731q0 119 46 224.5t126 184.5t185.5 124t226.5 45q119 0 225 -45t185 -124t125 -184.5t46 -224.5 q0 -121 -46 -227.5t-125 -185t-185 -125t-225 -46.5q-121 0 -226.5 46.5t-185.5 125t-126 185t-46 227.5zM330 664l112 -177q346 -80 699 0l110 177h-921zM451 1063l151 -189q4 -4 15.5 -0.5t23.5 9.5t20.5 12t8.5 8q-29 57 -47.5 118.5t-53.5 111.5q-6 8 -26.5 -0.5 t-42 -22.5t-38 -28.5t-11.5 -18.5zM463 457q20 -35 51 -74t73 -70.5t92.5 -53t111.5 -21.5q59 0 110 21.5t92 53t73 70.5t52 74q-164 -43 -326.5 -42t-328.5 42zM715 731h155l-77 187zM918 903q-4 -2 4 -8t19 -12t23.5 -9.5t18.5 0.5l147 189q4 4 -11 18.5t-36.5 28.5 t-42 22.5t-26.5 0.5q-39 -49 -55.5 -110.5t-40.5 -119.5zM1290 102v23h84v-23h-31v-77h-22v77h-31zM1384 25v100h31l19 -78l18 78h29v-100h-19v77l-20 -77h-19l-20 77v-77h-19z" />
<glyph unicode="&#xf0;" d="M68 731q0 150 56 282t154.5 230t230.5 155.5t282 57.5t281.5 -57.5t230 -155.5t156 -230t57.5 -282t-57.5 -282t-156 -230t-230 -155.5t-281.5 -57.5t-282 57.5t-230.5 155.5t-154.5 230.5t-56 281.5zM164 731q0 -129 49 -242.5t135 -199.5t200 -135.5t243 -49.5 q131 0 244.5 49.5t197.5 135.5t133 199.5t49 242.5t-49 242.5t-133 198.5t-197.5 134.5t-244.5 49.5q-129 0 -243 -49.5t-200 -134.5t-135 -198.5t-49 -242.5zM207 731q0 119 46 224.5t126 184.5t185.5 124t226.5 45q119 0 225 -45t185 -124t125 -184.5t46 -224.5 q0 -121 -46 -227.5t-125 -185t-185 -125t-225 -46.5q-121 0 -226.5 46.5t-185.5 125t-126 185t-46 227.5zM330 664l112 -177q346 -80 699 0l110 177h-921zM451 1063l151 -189q4 -4 15.5 -0.5t23.5 9.5t20.5 12t8.5 8q-29 57 -47.5 118.5t-53.5 111.5q-6 8 -26.5 -0.5 t-42 -22.5t-38 -28.5t-11.5 -18.5zM463 457q20 -35 51 -74t73 -70.5t92.5 -53t111.5 -21.5q59 0 110 21.5t92 53t73 70.5t52 74q-164 -43 -326.5 -42t-328.5 42zM715 731h155l-77 187zM918 903q-4 -2 4 -8t19 -12t23.5 -9.5t18.5 0.5l147 189q4 4 -11 18.5t-36.5 28.5 t-42 22.5t-26.5 0.5q-39 -49 -55.5 -110.5t-40.5 -119.5zM1290 102v23h84v-23h-31v-77h-22v77h-31zM1384 25v100h31l19 -78l18 78h29v-100h-19v77l-20 -77h-19l-20 77v-77h-19z" />
<glyph unicode="&#xf1;" d="M68 731q0 150 56 282t154.5 230t230.5 155.5t282 57.5t281.5 -57.5t230 -155.5t156 -230t57.5 -282t-57.5 -282t-156 -230t-230 -155.5t-281.5 -57.5t-282 57.5t-230.5 155.5t-154.5 230.5t-56 281.5zM164 731q0 -129 49 -242.5t135 -199.5t200 -135.5t243 -49.5 q131 0 244.5 49.5t197.5 135.5t133 199.5t49 242.5t-49 242.5t-133 198.5t-197.5 134.5t-244.5 49.5q-129 0 -243 -49.5t-200 -134.5t-135 -198.5t-49 -242.5zM207 731q0 119 46 224.5t126 184.5t185.5 124t226.5 45q119 0 225 -45t185 -124t125 -184.5t46 -224.5 q0 -121 -46 -227.5t-125 -185t-185 -125t-225 -46.5q-121 0 -226.5 46.5t-185.5 125t-126 185t-46 227.5zM330 664l112 -177q346 -80 699 0l110 177h-921zM451 1063l151 -189q4 -4 15.5 -0.5t23.5 9.5t20.5 12t8.5 8q-29 57 -47.5 118.5t-53.5 111.5q-6 8 -26.5 -0.5 t-42 -22.5t-38 -28.5t-11.5 -18.5zM463 457q20 -35 51 -74t73 -70.5t92.5 -53t111.5 -21.5q59 0 110 21.5t92 53t73 70.5t52 74q-164 -43 -326.5 -42t-328.5 42zM715 731h155l-77 187zM918 903q-4 -2 4 -8t19 -12t23.5 -9.5t18.5 0.5l147 189q4 4 -11 18.5t-36.5 28.5 t-42 22.5t-26.5 0.5q-39 -49 -55.5 -110.5t-40.5 -119.5zM1290 102v23h84v-23h-31v-77h-22v77h-31zM1384 25v100h31l19 -78l18 78h29v-100h-19v77l-20 -77h-19l-20 77v-77h-19z" />
<glyph unicode="&#xf2;" d="M68 731q0 150 56 282t154.5 230t230.5 155.5t282 57.5t281.5 -57.5t230 -155.5t156 -230t57.5 -282t-57.5 -282t-156 -230t-230 -155.5t-281.5 -57.5t-282 57.5t-230.5 155.5t-154.5 230.5t-56 281.5zM164 731q0 -129 49 -242.5t135 -199.5t200 -135.5t243 -49.5 q131 0 244.5 49.5t197.5 135.5t133 199.5t49 242.5t-49 242.5t-133 198.5t-197.5 134.5t-244.5 49.5q-129 0 -243 -49.5t-200 -134.5t-135 -198.5t-49 -242.5zM207 731q0 119 46 224.5t126 184.5t185.5 124t226.5 45q119 0 225 -45t185 -124t125 -184.5t46 -224.5 q0 -121 -46 -227.5t-125 -185t-185 -125t-225 -46.5q-121 0 -226.5 46.5t-185.5 125t-126 185t-46 227.5zM330 664l112 -177q346 -80 699 0l110 177h-921zM451 1063l151 -189q4 -4 15.5 -0.5t23.5 9.5t20.5 12t8.5 8q-29 57 -47.5 118.5t-53.5 111.5q-6 8 -26.5 -0.5 t-42 -22.5t-38 -28.5t-11.5 -18.5zM463 457q20 -35 51 -74t73 -70.5t92.5 -53t111.5 -21.5q59 0 110 21.5t92 53t73 70.5t52 74q-164 -43 -326.5 -42t-328.5 42zM715 731h155l-77 187zM918 903q-4 -2 4 -8t19 -12t23.5 -9.5t18.5 0.5l147 189q4 4 -11 18.5t-36.5 28.5 t-42 22.5t-26.5 0.5q-39 -49 -55.5 -110.5t-40.5 -119.5zM1290 102v23h84v-23h-31v-77h-22v77h-31zM1384 25v100h31l19 -78l18 78h29v-100h-19v77l-20 -77h-19l-20 77v-77h-19z" />
<glyph unicode="&#xf3;" d="M68 731q0 150 56 282t154.5 230t230.5 155.5t282 57.5t281.5 -57.5t230 -155.5t156 -230t57.5 -282t-57.5 -282t-156 -230t-230 -155.5t-281.5 -57.5t-282 57.5t-230.5 155.5t-154.5 230.5t-56 281.5zM164 731q0 -129 49 -242.5t135 -199.5t200 -135.5t243 -49.5 q131 0 244.5 49.5t197.5 135.5t133 199.5t49 242.5t-49 242.5t-133 198.5t-197.5 134.5t-244.5 49.5q-129 0 -243 -49.5t-200 -134.5t-135 -198.5t-49 -242.5zM207 731q0 119 46 224.5t126 184.5t185.5 124t226.5 45q119 0 225 -45t185 -124t125 -184.5t46 -224.5 q0 -121 -46 -227.5t-125 -185t-185 -125t-225 -46.5q-121 0 -226.5 46.5t-185.5 125t-126 185t-46 227.5zM330 664l112 -177q346 -80 699 0l110 177h-921zM451 1063l151 -189q4 -4 15.5 -0.5t23.5 9.5t20.5 12t8.5 8q-29 57 -47.5 118.5t-53.5 111.5q-6 8 -26.5 -0.5 t-42 -22.5t-38 -28.5t-11.5 -18.5zM463 457q20 -35 51 -74t73 -70.5t92.5 -53t111.5 -21.5q59 0 110 21.5t92 53t73 70.5t52 74q-164 -43 -326.5 -42t-328.5 42zM715 731h155l-77 187zM918 903q-4 -2 4 -8t19 -12t23.5 -9.5t18.5 0.5l147 189q4 4 -11 18.5t-36.5 28.5 t-42 22.5t-26.5 0.5q-39 -49 -55.5 -110.5t-40.5 -119.5zM1290 102v23h84v-23h-31v-77h-22v77h-31zM1384 25v100h31l19 -78l18 78h29v-100h-19v77l-20 -77h-19l-20 77v-77h-19z" />
<glyph unicode="&#xf4;" d="M68 731q0 150 56 282t154.5 230t230.5 155.5t282 57.5t281.5 -57.5t230 -155.5t156 -230t57.5 -282t-57.5 -282t-156 -230t-230 -155.5t-281.5 -57.5t-282 57.5t-230.5 155.5t-154.5 230.5t-56 281.5zM164 731q0 -129 49 -242.5t135 -199.5t200 -135.5t243 -49.5 q131 0 244.5 49.5t197.5 135.5t133 199.5t49 242.5t-49 242.5t-133 198.5t-197.5 134.5t-244.5 49.5q-129 0 -243 -49.5t-200 -134.5t-135 -198.5t-49 -242.5zM207 731q0 119 46 224.5t126 184.5t185.5 124t226.5 45q119 0 225 -45t185 -124t125 -184.5t46 -224.5 q0 -121 -46 -227.5t-125 -185t-185 -125t-225 -46.5q-121 0 -226.5 46.5t-185.5 125t-126 185t-46 227.5zM330 664l112 -177q346 -80 699 0l110 177h-921zM451 1063l151 -189q4 -4 15.5 -0.5t23.5 9.5t20.5 12t8.5 8q-29 57 -47.5 118.5t-53.5 111.5q-6 8 -26.5 -0.5 t-42 -22.5t-38 -28.5t-11.5 -18.5zM463 457q20 -35 51 -74t73 -70.5t92.5 -53t111.5 -21.5q59 0 110 21.5t92 53t73 70.5t52 74q-164 -43 -326.5 -42t-328.5 42zM715 731h155l-77 187zM918 903q-4 -2 4 -8t19 -12t23.5 -9.5t18.5 0.5l147 189q4 4 -11 18.5t-36.5 28.5 t-42 22.5t-26.5 0.5q-39 -49 -55.5 -110.5t-40.5 -119.5zM1290 102v23h84v-23h-31v-77h-22v77h-31zM1384 25v100h31l19 -78l18 78h29v-100h-19v77l-20 -77h-19l-20 77v-77h-19z" />
<glyph unicode="&#xf5;" d="M68 731q0 150 56 282t154.5 230t230.5 155.5t282 57.5t281.5 -57.5t230 -155.5t156 -230t57.5 -282t-57.5 -282t-156 -230t-230 -155.5t-281.5 -57.5t-282 57.5t-230.5 155.5t-154.5 230.5t-56 281.5zM164 731q0 -129 49 -242.5t135 -199.5t200 -135.5t243 -49.5 q131 0 244.5 49.5t197.5 135.5t133 199.5t49 242.5t-49 242.5t-133 198.5t-197.5 134.5t-244.5 49.5q-129 0 -243 -49.5t-200 -134.5t-135 -198.5t-49 -242.5zM207 731q0 119 46 224.5t126 184.5t185.5 124t226.5 45q119 0 225 -45t185 -124t125 -184.5t46 -224.5 q0 -121 -46 -227.5t-125 -185t-185 -125t-225 -46.5q-121 0 -226.5 46.5t-185.5 125t-126 185t-46 227.5zM330 664l112 -177q346 -80 699 0l110 177h-921zM451 1063l151 -189q4 -4 15.5 -0.5t23.5 9.5t20.5 12t8.5 8q-29 57 -47.5 118.5t-53.5 111.5q-6 8 -26.5 -0.5 t-42 -22.5t-38 -28.5t-11.5 -18.5zM463 457q20 -35 51 -74t73 -70.5t92.5 -53t111.5 -21.5q59 0 110 21.5t92 53t73 70.5t52 74q-164 -43 -326.5 -42t-328.5 42zM715 731h155l-77 187zM918 903q-4 -2 4 -8t19 -12t23.5 -9.5t18.5 0.5l147 189q4 4 -11 18.5t-36.5 28.5 t-42 22.5t-26.5 0.5q-39 -49 -55.5 -110.5t-40.5 -119.5zM1290 102v23h84v-23h-31v-77h-22v77h-31zM1384 25v100h31l19 -78l18 78h29v-100h-19v77l-20 -77h-19l-20 77v-77h-19z" />
<glyph unicode="&#xf6;" d="M68 731q0 150 56 282t154.5 230t230.5 155.5t282 57.5t281.5 -57.5t230 -155.5t156 -230t57.5 -282t-57.5 -282t-156 -230t-230 -155.5t-281.5 -57.5t-282 57.5t-230.5 155.5t-154.5 230.5t-56 281.5zM164 731q0 -129 49 -242.5t135 -199.5t200 -135.5t243 -49.5 q131 0 244.5 49.5t197.5 135.5t133 199.5t49 242.5t-49 242.5t-133 198.5t-197.5 134.5t-244.5 49.5q-129 0 -243 -49.5t-200 -134.5t-135 -198.5t-49 -242.5zM207 731q0 119 46 224.5t126 184.5t185.5 124t226.5 45q119 0 225 -45t185 -124t125 -184.5t46 -224.5 q0 -121 -46 -227.5t-125 -185t-185 -125t-225 -46.5q-121 0 -226.5 46.5t-185.5 125t-126 185t-46 227.5zM330 664l112 -177q346 -80 699 0l110 177h-921zM451 1063l151 -189q4 -4 15.5 -0.5t23.5 9.5t20.5 12t8.5 8q-29 57 -47.5 118.5t-53.5 111.5q-6 8 -26.5 -0.5 t-42 -22.5t-38 -28.5t-11.5 -18.5zM463 457q20 -35 51 -74t73 -70.5t92.5 -53t111.5 -21.5q59 0 110 21.5t92 53t73 70.5t52 74q-164 -43 -326.5 -42t-328.5 42zM715 731h155l-77 187zM918 903q-4 -2 4 -8t19 -12t23.5 -9.5t18.5 0.5l147 189q4 4 -11 18.5t-36.5 28.5 t-42 22.5t-26.5 0.5q-39 -49 -55.5 -110.5t-40.5 -119.5zM1290 102v23h84v-23h-31v-77h-22v77h-31zM1384 25v100h31l19 -78l18 78h29v-100h-19v77l-20 -77h-19l-20 77v-77h-19z" />
<glyph unicode="&#xf7;" d="M68 731q0 150 56 282t154.5 230t230.5 155.5t282 57.5t281.5 -57.5t230 -155.5t156 -230t57.5 -282t-57.5 -282t-156 -230t-230 -155.5t-281.5 -57.5t-282 57.5t-230.5 155.5t-154.5 230.5t-56 281.5zM164 731q0 -129 49 -242.5t135 -199.5t200 -135.5t243 -49.5 q131 0 244.5 49.5t197.5 135.5t133 199.5t49 242.5t-49 242.5t-133 198.5t-197.5 134.5t-244.5 49.5q-129 0 -243 -49.5t-200 -134.5t-135 -198.5t-49 -242.5zM207 731q0 119 46 224.5t126 184.5t185.5 124t226.5 45q119 0 225 -45t185 -124t125 -184.5t46 -224.5 q0 -121 -46 -227.5t-125 -185t-185 -125t-225 -46.5q-121 0 -226.5 46.5t-185.5 125t-126 185t-46 227.5zM330 664l112 -177q346 -80 699 0l110 177h-921zM451 1063l151 -189q4 -4 15.5 -0.5t23.5 9.5t20.5 12t8.5 8q-29 57 -47.5 118.5t-53.5 111.5q-6 8 -26.5 -0.5 t-42 -22.5t-38 -28.5t-11.5 -18.5zM463 457q20 -35 51 -74t73 -70.5t92.5 -53t111.5 -21.5q59 0 110 21.5t92 53t73 70.5t52 74q-164 -43 -326.5 -42t-328.5 42zM715 731h155l-77 187zM918 903q-4 -2 4 -8t19 -12t23.5 -9.5t18.5 0.5l147 189q4 4 -11 18.5t-36.5 28.5 t-42 22.5t-26.5 0.5q-39 -49 -55.5 -110.5t-40.5 -119.5zM1290 102v23h84v-23h-31v-77h-22v77h-31zM1384 25v100h31l19 -78l18 78h29v-100h-19v77l-20 -77h-19l-20 77v-77h-19z" />
<glyph unicode="&#xf8;" d="M68 731q0 150 56 282t154.5 230t230.5 155.5t282 57.5t281.5 -57.5t230 -155.5t156 -230t57.5 -282t-57.5 -282t-156 -230t-230 -155.5t-281.5 -57.5t-282 57.5t-230.5 155.5t-154.5 230.5t-56 281.5zM164 731q0 -129 49 -242.5t135 -199.5t200 -135.5t243 -49.5 q131 0 244.5 49.5t197.5 135.5t133 199.5t49 242.5t-49 242.5t-133 198.5t-197.5 134.5t-244.5 49.5q-129 0 -243 -49.5t-200 -134.5t-135 -198.5t-49 -242.5zM207 731q0 119 46 224.5t126 184.5t185.5 124t226.5 45q119 0 225 -45t185 -124t125 -184.5t46 -224.5 q0 -121 -46 -227.5t-125 -185t-185 -125t-225 -46.5q-121 0 -226.5 46.5t-185.5 125t-126 185t-46 227.5zM330 664l112 -177q346 -80 699 0l110 177h-921zM451 1063l151 -189q4 -4 15.5 -0.5t23.5 9.5t20.5 12t8.5 8q-29 57 -47.5 118.5t-53.5 111.5q-6 8 -26.5 -0.5 t-42 -22.5t-38 -28.5t-11.5 -18.5zM463 457q20 -35 51 -74t73 -70.5t92.5 -53t111.5 -21.5q59 0 110 21.5t92 53t73 70.5t52 74q-164 -43 -326.5 -42t-328.5 42zM715 731h155l-77 187zM918 903q-4 -2 4 -8t19 -12t23.5 -9.5t18.5 0.5l147 189q4 4 -11 18.5t-36.5 28.5 t-42 22.5t-26.5 0.5q-39 -49 -55.5 -110.5t-40.5 -119.5zM1290 102v23h84v-23h-31v-77h-22v77h-31zM1384 25v100h31l19 -78l18 78h29v-100h-19v77l-20 -77h-19l-20 77v-77h-19z" />
<glyph unicode="&#xf9;" d="M68 731q0 150 56 282t154.5 230t230.5 155.5t282 57.5t281.5 -57.5t230 -155.5t156 -230t57.5 -282t-57.5 -282t-156 -230t-230 -155.5t-281.5 -57.5t-282 57.5t-230.5 155.5t-154.5 230.5t-56 281.5zM164 731q0 -129 49 -242.5t135 -199.5t200 -135.5t243 -49.5 q131 0 244.5 49.5t197.5 135.5t133 199.5t49 242.5t-49 242.5t-133 198.5t-197.5 134.5t-244.5 49.5q-129 0 -243 -49.5t-200 -134.5t-135 -198.5t-49 -242.5zM207 731q0 119 46 224.5t126 184.5t185.5 124t226.5 45q119 0 225 -45t185 -124t125 -184.5t46 -224.5 q0 -121 -46 -227.5t-125 -185t-185 -125t-225 -46.5q-121 0 -226.5 46.5t-185.5 125t-126 185t-46 227.5zM330 664l112 -177q346 -80 699 0l110 177h-921zM451 1063l151 -189q4 -4 15.5 -0.5t23.5 9.5t20.5 12t8.5 8q-29 57 -47.5 118.5t-53.5 111.5q-6 8 -26.5 -0.5 t-42 -22.5t-38 -28.5t-11.5 -18.5zM463 457q20 -35 51 -74t73 -70.5t92.5 -53t111.5 -21.5q59 0 110 21.5t92 53t73 70.5t52 74q-164 -43 -326.5 -42t-328.5 42zM715 731h155l-77 187zM918 903q-4 -2 4 -8t19 -12t23.5 -9.5t18.5 0.5l147 189q4 4 -11 18.5t-36.5 28.5 t-42 22.5t-26.5 0.5q-39 -49 -55.5 -110.5t-40.5 -119.5zM1290 102v23h84v-23h-31v-77h-22v77h-31zM1384 25v100h31l19 -78l18 78h29v-100h-19v77l-20 -77h-19l-20 77v-77h-19z" />
<glyph unicode="&#xfa;" d="M68 731q0 150 56 282t154.5 230t230.5 155.5t282 57.5t281.5 -57.5t230 -155.5t156 -230t57.5 -282t-57.5 -282t-156 -230t-230 -155.5t-281.5 -57.5t-282 57.5t-230.5 155.5t-154.5 230.5t-56 281.5zM164 731q0 -129 49 -242.5t135 -199.5t200 -135.5t243 -49.5 q131 0 244.5 49.5t197.5 135.5t133 199.5t49 242.5t-49 242.5t-133 198.5t-197.5 134.5t-244.5 49.5q-129 0 -243 -49.5t-200 -134.5t-135 -198.5t-49 -242.5zM207 731q0 119 46 224.5t126 184.5t185.5 124t226.5 45q119 0 225 -45t185 -124t125 -184.5t46 -224.5 q0 -121 -46 -227.5t-125 -185t-185 -125t-225 -46.5q-121 0 -226.5 46.5t-185.5 125t-126 185t-46 227.5zM330 664l112 -177q346 -80 699 0l110 177h-921zM451 1063l151 -189q4 -4 15.5 -0.5t23.5 9.5t20.5 12t8.5 8q-29 57 -47.5 118.5t-53.5 111.5q-6 8 -26.5 -0.5 t-42 -22.5t-38 -28.5t-11.5 -18.5zM463 457q20 -35 51 -74t73 -70.5t92.5 -53t111.5 -21.5q59 0 110 21.5t92 53t73 70.5t52 74q-164 -43 -326.5 -42t-328.5 42zM715 731h155l-77 187zM918 903q-4 -2 4 -8t19 -12t23.5 -9.5t18.5 0.5l147 189q4 4 -11 18.5t-36.5 28.5 t-42 22.5t-26.5 0.5q-39 -49 -55.5 -110.5t-40.5 -119.5zM1290 102v23h84v-23h-31v-77h-22v77h-31zM1384 25v100h31l19 -78l18 78h29v-100h-19v77l-20 -77h-19l-20 77v-77h-19z" />
<glyph unicode="&#xfb;" d="M68 731q0 150 56 282t154.5 230t230.5 155.5t282 57.5t281.5 -57.5t230 -155.5t156 -230t57.5 -282t-57.5 -282t-156 -230t-230 -155.5t-281.5 -57.5t-282 57.5t-230.5 155.5t-154.5 230.5t-56 281.5zM164 731q0 -129 49 -242.5t135 -199.5t200 -135.5t243 -49.5 q131 0 244.5 49.5t197.5 135.5t133 199.5t49 242.5t-49 242.5t-133 198.5t-197.5 134.5t-244.5 49.5q-129 0 -243 -49.5t-200 -134.5t-135 -198.5t-49 -242.5zM207 731q0 119 46 224.5t126 184.5t185.5 124t226.5 45q119 0 225 -45t185 -124t125 -184.5t46 -224.5 q0 -121 -46 -227.5t-125 -185t-185 -125t-225 -46.5q-121 0 -226.5 46.5t-185.5 125t-126 185t-46 227.5zM330 664l112 -177q346 -80 699 0l110 177h-921zM451 1063l151 -189q4 -4 15.5 -0.5t23.5 9.5t20.5 12t8.5 8q-29 57 -47.5 118.5t-53.5 111.5q-6 8 -26.5 -0.5 t-42 -22.5t-38 -28.5t-11.5 -18.5zM463 457q20 -35 51 -74t73 -70.5t92.5 -53t111.5 -21.5q59 0 110 21.5t92 53t73 70.5t52 74q-164 -43 -326.5 -42t-328.5 42zM715 731h155l-77 187zM918 903q-4 -2 4 -8t19 -12t23.5 -9.5t18.5 0.5l147 189q4 4 -11 18.5t-36.5 28.5 t-42 22.5t-26.5 0.5q-39 -49 -55.5 -110.5t-40.5 -119.5zM1290 102v23h84v-23h-31v-77h-22v77h-31zM1384 25v100h31l19 -78l18 78h29v-100h-19v77l-20 -77h-19l-20 77v-77h-19z" />
<glyph unicode="&#xfc;" d="M68 731q0 150 56 282t154.5 230t230.5 155.5t282 57.5t281.5 -57.5t230 -155.5t156 -230t57.5 -282t-57.5 -282t-156 -230t-230 -155.5t-281.5 -57.5t-282 57.5t-230.5 155.5t-154.5 230.5t-56 281.5zM164 731q0 -129 49 -242.5t135 -199.5t200 -135.5t243 -49.5 q131 0 244.5 49.5t197.5 135.5t133 199.5t49 242.5t-49 242.5t-133 198.5t-197.5 134.5t-244.5 49.5q-129 0 -243 -49.5t-200 -134.5t-135 -198.5t-49 -242.5zM207 731q0 119 46 224.5t126 184.5t185.5 124t226.5 45q119 0 225 -45t185 -124t125 -184.5t46 -224.5 q0 -121 -46 -227.5t-125 -185t-185 -125t-225 -46.5q-121 0 -226.5 46.5t-185.5 125t-126 185t-46 227.5zM330 664l112 -177q346 -80 699 0l110 177h-921zM451 1063l151 -189q4 -4 15.5 -0.5t23.5 9.5t20.5 12t8.5 8q-29 57 -47.5 118.5t-53.5 111.5q-6 8 -26.5 -0.5 t-42 -22.5t-38 -28.5t-11.5 -18.5zM463 457q20 -35 51 -74t73 -70.5t92.5 -53t111.5 -21.5q59 0 110 21.5t92 53t73 70.5t52 74q-164 -43 -326.5 -42t-328.5 42zM715 731h155l-77 187zM918 903q-4 -2 4 -8t19 -12t23.5 -9.5t18.5 0.5l147 189q4 4 -11 18.5t-36.5 28.5 t-42 22.5t-26.5 0.5q-39 -49 -55.5 -110.5t-40.5 -119.5zM1290 102v23h84v-23h-31v-77h-22v77h-31zM1384 25v100h31l19 -78l18 78h29v-100h-19v77l-20 -77h-19l-20 77v-77h-19z" />
<glyph unicode="&#xfd;" d="M68 731q0 150 56 282t154.5 230t230.5 155.5t282 57.5t281.5 -57.5t230 -155.5t156 -230t57.5 -282t-57.5 -282t-156 -230t-230 -155.5t-281.5 -57.5t-282 57.5t-230.5 155.5t-154.5 230.5t-56 281.5zM164 731q0 -129 49 -242.5t135 -199.5t200 -135.5t243 -49.5 q131 0 244.5 49.5t197.5 135.5t133 199.5t49 242.5t-49 242.5t-133 198.5t-197.5 134.5t-244.5 49.5q-129 0 -243 -49.5t-200 -134.5t-135 -198.5t-49 -242.5zM207 731q0 119 46 224.5t126 184.5t185.5 124t226.5 45q119 0 225 -45t185 -124t125 -184.5t46 -224.5 q0 -121 -46 -227.5t-125 -185t-185 -125t-225 -46.5q-121 0 -226.5 46.5t-185.5 125t-126 185t-46 227.5zM330 664l112 -177q346 -80 699 0l110 177h-921zM451 1063l151 -189q4 -4 15.5 -0.5t23.5 9.5t20.5 12t8.5 8q-29 57 -47.5 118.5t-53.5 111.5q-6 8 -26.5 -0.5 t-42 -22.5t-38 -28.5t-11.5 -18.5zM463 457q20 -35 51 -74t73 -70.5t92.5 -53t111.5 -21.5q59 0 110 21.5t92 53t73 70.5t52 74q-164 -43 -326.5 -42t-328.5 42zM715 731h155l-77 187zM918 903q-4 -2 4 -8t19 -12t23.5 -9.5t18.5 0.5l147 189q4 4 -11 18.5t-36.5 28.5 t-42 22.5t-26.5 0.5q-39 -49 -55.5 -110.5t-40.5 -119.5zM1290 102v23h84v-23h-31v-77h-22v77h-31zM1384 25v100h31l19 -78l18 78h29v-100h-19v77l-20 -77h-19l-20 77v-77h-19z" />
<glyph unicode="&#xfe;" d="M68 731q0 150 56 282t154.5 230t230.5 155.5t282 57.5t281.5 -57.5t230 -155.5t156 -230t57.5 -282t-57.5 -282t-156 -230t-230 -155.5t-281.5 -57.5t-282 57.5t-230.5 155.5t-154.5 230.5t-56 281.5zM164 731q0 -129 49 -242.5t135 -199.5t200 -135.5t243 -49.5 q131 0 244.5 49.5t197.5 135.5t133 199.5t49 242.5t-49 242.5t-133 198.5t-197.5 134.5t-244.5 49.5q-129 0 -243 -49.5t-200 -134.5t-135 -198.5t-49 -242.5zM207 731q0 119 46 224.5t126 184.5t185.5 124t226.5 45q119 0 225 -45t185 -124t125 -184.5t46 -224.5 q0 -121 -46 -227.5t-125 -185t-185 -125t-225 -46.5q-121 0 -226.5 46.5t-185.5 125t-126 185t-46 227.5zM330 664l112 -177q346 -80 699 0l110 177h-921zM451 1063l151 -189q4 -4 15.5 -0.5t23.5 9.5t20.5 12t8.5 8q-29 57 -47.5 118.5t-53.5 111.5q-6 8 -26.5 -0.5 t-42 -22.5t-38 -28.5t-11.5 -18.5zM463 457q20 -35 51 -74t73 -70.5t92.5 -53t111.5 -21.5q59 0 110 21.5t92 53t73 70.5t52 74q-164 -43 -326.5 -42t-328.5 42zM715 731h155l-77 187zM918 903q-4 -2 4 -8t19 -12t23.5 -9.5t18.5 0.5l147 189q4 4 -11 18.5t-36.5 28.5 t-42 22.5t-26.5 0.5q-39 -49 -55.5 -110.5t-40.5 -119.5zM1290 102v23h84v-23h-31v-77h-22v77h-31zM1384 25v100h31l19 -78l18 78h29v-100h-19v77l-20 -77h-19l-20 77v-77h-19z" />
<glyph unicode="&#xff;" d="M68 731q0 150 56 282t154.5 230t230.5 155.5t282 57.5t281.5 -57.5t230 -155.5t156 -230t57.5 -282t-57.5 -282t-156 -230t-230 -155.5t-281.5 -57.5t-282 57.5t-230.5 155.5t-154.5 230.5t-56 281.5zM164 731q0 -129 49 -242.5t135 -199.5t200 -135.5t243 -49.5 q131 0 244.5 49.5t197.5 135.5t133 199.5t49 242.5t-49 242.5t-133 198.5t-197.5 134.5t-244.5 49.5q-129 0 -243 -49.5t-200 -134.5t-135 -198.5t-49 -242.5zM207 731q0 119 46 224.5t126 184.5t185.5 124t226.5 45q119 0 225 -45t185 -124t125 -184.5t46 -224.5 q0 -121 -46 -227.5t-125 -185t-185 -125t-225 -46.5q-121 0 -226.5 46.5t-185.5 125t-126 185t-46 227.5zM330 664l112 -177q346 -80 699 0l110 177h-921zM451 1063l151 -189q4 -4 15.5 -0.5t23.5 9.5t20.5 12t8.5 8q-29 57 -47.5 118.5t-53.5 111.5q-6 8 -26.5 -0.5 t-42 -22.5t-38 -28.5t-11.5 -18.5zM463 457q20 -35 51 -74t73 -70.5t92.5 -53t111.5 -21.5q59 0 110 21.5t92 53t73 70.5t52 74q-164 -43 -326.5 -42t-328.5 42zM715 731h155l-77 187zM918 903q-4 -2 4 -8t19 -12t23.5 -9.5t18.5 0.5l147 189q4 4 -11 18.5t-36.5 28.5 t-42 22.5t-26.5 0.5q-39 -49 -55.5 -110.5t-40.5 -119.5zM1290 102v23h84v-23h-31v-77h-22v77h-31zM1384 25v100h31l19 -78l18 78h29v-100h-19v77l-20 -77h-19l-20 77v-77h-19z" />
<glyph unicode="&#x152;" d="M68 731q0 150 56 282t154.5 230t230.5 155.5t282 57.5t281.5 -57.5t230 -155.5t156 -230t57.5 -282t-57.5 -282t-156 -230t-230 -155.5t-281.5 -57.5t-282 57.5t-230.5 155.5t-154.5 230.5t-56 281.5zM164 731q0 -129 49 -242.5t135 -199.5t200 -135.5t243 -49.5 q131 0 244.5 49.5t197.5 135.5t133 199.5t49 242.5t-49 242.5t-133 198.5t-197.5 134.5t-244.5 49.5q-129 0 -243 -49.5t-200 -134.5t-135 -198.5t-49 -242.5zM207 731q0 119 46 224.5t126 184.5t185.5 124t226.5 45q119 0 225 -45t185 -124t125 -184.5t46 -224.5 q0 -121 -46 -227.5t-125 -185t-185 -125t-225 -46.5q-121 0 -226.5 46.5t-185.5 125t-126 185t-46 227.5zM330 664l112 -177q346 -80 699 0l110 177h-921zM451 1063l151 -189q4 -4 15.5 -0.5t23.5 9.5t20.5 12t8.5 8q-29 57 -47.5 118.5t-53.5 111.5q-6 8 -26.5 -0.5 t-42 -22.5t-38 -28.5t-11.5 -18.5zM463 457q20 -35 51 -74t73 -70.5t92.5 -53t111.5 -21.5q59 0 110 21.5t92 53t73 70.5t52 74q-164 -43 -326.5 -42t-328.5 42zM715 731h155l-77 187zM918 903q-4 -2 4 -8t19 -12t23.5 -9.5t18.5 0.5l147 189q4 4 -11 18.5t-36.5 28.5 t-42 22.5t-26.5 0.5q-39 -49 -55.5 -110.5t-40.5 -119.5zM1290 102v23h84v-23h-31v-77h-22v77h-31zM1384 25v100h31l19 -78l18 78h29v-100h-19v77l-20 -77h-19l-20 77v-77h-19z" />
<glyph unicode="&#x153;" d="M68 731q0 150 56 282t154.5 230t230.5 155.5t282 57.5t281.5 -57.5t230 -155.5t156 -230t57.5 -282t-57.5 -282t-156 -230t-230 -155.5t-281.5 -57.5t-282 57.5t-230.5 155.5t-154.5 230.5t-56 281.5zM164 731q0 -129 49 -242.5t135 -199.5t200 -135.5t243 -49.5 q131 0 244.5 49.5t197.5 135.5t133 199.5t49 242.5t-49 242.5t-133 198.5t-197.5 134.5t-244.5 49.5q-129 0 -243 -49.5t-200 -134.5t-135 -198.5t-49 -242.5zM207 731q0 119 46 224.5t126 184.5t185.5 124t226.5 45q119 0 225 -45t185 -124t125 -184.5t46 -224.5 q0 -121 -46 -227.5t-125 -185t-185 -125t-225 -46.5q-121 0 -226.5 46.5t-185.5 125t-126 185t-46 227.5zM330 664l112 -177q346 -80 699 0l110 177h-921zM451 1063l151 -189q4 -4 15.5 -0.5t23.5 9.5t20.5 12t8.5 8q-29 57 -47.5 118.5t-53.5 111.5q-6 8 -26.5 -0.5 t-42 -22.5t-38 -28.5t-11.5 -18.5zM463 457q20 -35 51 -74t73 -70.5t92.5 -53t111.5 -21.5q59 0 110 21.5t92 53t73 70.5t52 74q-164 -43 -326.5 -42t-328.5 42zM715 731h155l-77 187zM918 903q-4 -2 4 -8t19 -12t23.5 -9.5t18.5 0.5l147 189q4 4 -11 18.5t-36.5 28.5 t-42 22.5t-26.5 0.5q-39 -49 -55.5 -110.5t-40.5 -119.5zM1290 102v23h84v-23h-31v-77h-22v77h-31zM1384 25v100h31l19 -78l18 78h29v-100h-19v77l-20 -77h-19l-20 77v-77h-19z" />
<glyph unicode="&#x178;" d="M68 731q0 150 56 282t154.5 230t230.5 155.5t282 57.5t281.5 -57.5t230 -155.5t156 -230t57.5 -282t-57.5 -282t-156 -230t-230 -155.5t-281.5 -57.5t-282 57.5t-230.5 155.5t-154.5 230.5t-56 281.5zM164 731q0 -129 49 -242.5t135 -199.5t200 -135.5t243 -49.5 q131 0 244.5 49.5t197.5 135.5t133 199.5t49 242.5t-49 242.5t-133 198.5t-197.5 134.5t-244.5 49.5q-129 0 -243 -49.5t-200 -134.5t-135 -198.5t-49 -242.5zM207 731q0 119 46 224.5t126 184.5t185.5 124t226.5 45q119 0 225 -45t185 -124t125 -184.5t46 -224.5 q0 -121 -46 -227.5t-125 -185t-185 -125t-225 -46.5q-121 0 -226.5 46.5t-185.5 125t-126 185t-46 227.5zM330 664l112 -177q346 -80 699 0l110 177h-921zM451 1063l151 -189q4 -4 15.5 -0.5t23.5 9.5t20.5 12t8.5 8q-29 57 -47.5 118.5t-53.5 111.5q-6 8 -26.5 -0.5 t-42 -22.5t-38 -28.5t-11.5 -18.5zM463 457q20 -35 51 -74t73 -70.5t92.5 -53t111.5 -21.5q59 0 110 21.5t92 53t73 70.5t52 74q-164 -43 -326.5 -42t-328.5 42zM715 731h155l-77 187zM918 903q-4 -2 4 -8t19 -12t23.5 -9.5t18.5 0.5l147 189q4 4 -11 18.5t-36.5 28.5 t-42 22.5t-26.5 0.5q-39 -49 -55.5 -110.5t-40.5 -119.5zM1290 102v23h84v-23h-31v-77h-22v77h-31zM1384 25v100h31l19 -78l18 78h29v-100h-19v77l-20 -77h-19l-20 77v-77h-19z" />
<glyph unicode="&#x2c6;" d="M68 731q0 150 56 282t154.5 230t230.5 155.5t282 57.5t281.5 -57.5t230 -155.5t156 -230t57.5 -282t-57.5 -282t-156 -230t-230 -155.5t-281.5 -57.5t-282 57.5t-230.5 155.5t-154.5 230.5t-56 281.5zM164 731q0 -129 49 -242.5t135 -199.5t200 -135.5t243 -49.5 q131 0 244.5 49.5t197.5 135.5t133 199.5t49 242.5t-49 242.5t-133 198.5t-197.5 134.5t-244.5 49.5q-129 0 -243 -49.5t-200 -134.5t-135 -198.5t-49 -242.5zM207 731q0 119 46 224.5t126 184.5t185.5 124t226.5 45q119 0 225 -45t185 -124t125 -184.5t46 -224.5 q0 -121 -46 -227.5t-125 -185t-185 -125t-225 -46.5q-121 0 -226.5 46.5t-185.5 125t-126 185t-46 227.5zM330 664l112 -177q346 -80 699 0l110 177h-921zM451 1063l151 -189q4 -4 15.5 -0.5t23.5 9.5t20.5 12t8.5 8q-29 57 -47.5 118.5t-53.5 111.5q-6 8 -26.5 -0.5 t-42 -22.5t-38 -28.5t-11.5 -18.5zM463 457q20 -35 51 -74t73 -70.5t92.5 -53t111.5 -21.5q59 0 110 21.5t92 53t73 70.5t52 74q-164 -43 -326.5 -42t-328.5 42zM715 731h155l-77 187zM918 903q-4 -2 4 -8t19 -12t23.5 -9.5t18.5 0.5l147 189q4 4 -11 18.5t-36.5 28.5 t-42 22.5t-26.5 0.5q-39 -49 -55.5 -110.5t-40.5 -119.5zM1290 102v23h84v-23h-31v-77h-22v77h-31zM1384 25v100h31l19 -78l18 78h29v-100h-19v77l-20 -77h-19l-20 77v-77h-19z" />
<glyph unicode="&#x2dc;" d="M68 731q0 150 56 282t154.5 230t230.5 155.5t282 57.5t281.5 -57.5t230 -155.5t156 -230t57.5 -282t-57.5 -282t-156 -230t-230 -155.5t-281.5 -57.5t-282 57.5t-230.5 155.5t-154.5 230.5t-56 281.5zM164 731q0 -129 49 -242.5t135 -199.5t200 -135.5t243 -49.5 q131 0 244.5 49.5t197.5 135.5t133 199.5t49 242.5t-49 242.5t-133 198.5t-197.5 134.5t-244.5 49.5q-129 0 -243 -49.5t-200 -134.5t-135 -198.5t-49 -242.5zM207 731q0 119 46 224.5t126 184.5t185.5 124t226.5 45q119 0 225 -45t185 -124t125 -184.5t46 -224.5 q0 -121 -46 -227.5t-125 -185t-185 -125t-225 -46.5q-121 0 -226.5 46.5t-185.5 125t-126 185t-46 227.5zM330 664l112 -177q346 -80 699 0l110 177h-921zM451 1063l151 -189q4 -4 15.5 -0.5t23.5 9.5t20.5 12t8.5 8q-29 57 -47.5 118.5t-53.5 111.5q-6 8 -26.5 -0.5 t-42 -22.5t-38 -28.5t-11.5 -18.5zM463 457q20 -35 51 -74t73 -70.5t92.5 -53t111.5 -21.5q59 0 110 21.5t92 53t73 70.5t52 74q-164 -43 -326.5 -42t-328.5 42zM715 731h155l-77 187zM918 903q-4 -2 4 -8t19 -12t23.5 -9.5t18.5 0.5l147 189q4 4 -11 18.5t-36.5 28.5 t-42 22.5t-26.5 0.5q-39 -49 -55.5 -110.5t-40.5 -119.5zM1290 102v23h84v-23h-31v-77h-22v77h-31zM1384 25v100h31l19 -78l18 78h29v-100h-19v77l-20 -77h-19l-20 77v-77h-19z" />
<glyph unicode="&#x2000;" horiz-adv-x="790" />
<glyph unicode="&#x2001;" horiz-adv-x="1581" />
<glyph unicode="&#x2002;" horiz-adv-x="790" />
<glyph unicode="&#x2003;" horiz-adv-x="1581" />
<glyph unicode="&#x2004;" horiz-adv-x="527" />
<glyph unicode="&#x2005;" horiz-adv-x="395" />
<glyph unicode="&#x2006;" horiz-adv-x="263" />
<glyph unicode="&#x2007;" horiz-adv-x="263" />
<glyph unicode="&#x2008;" horiz-adv-x="197" />
<glyph unicode="&#x2009;" horiz-adv-x="316" />
<glyph unicode="&#x200a;" horiz-adv-x="87" />
<glyph unicode="&#x2010;" horiz-adv-x="649" d="M31 473v371h587v-371h-587z" />
<glyph unicode="&#x2011;" horiz-adv-x="649" d="M31 473v371h587v-371h-587z" />
<glyph unicode="&#x2012;" horiz-adv-x="649" d="M31 473v371h587v-371h-587z" />
<glyph unicode="&#x2013;" d="M68 731q0 150 56 282t154.5 230t230.5 155.5t282 57.5t281.5 -57.5t230 -155.5t156 -230t57.5 -282t-57.5 -282t-156 -230t-230 -155.5t-281.5 -57.5t-282 57.5t-230.5 155.5t-154.5 230.5t-56 281.5zM164 731q0 -129 49 -242.5t135 -199.5t200 -135.5t243 -49.5 q131 0 244.5 49.5t197.5 135.5t133 199.5t49 242.5t-49 242.5t-133 198.5t-197.5 134.5t-244.5 49.5q-129 0 -243 -49.5t-200 -134.5t-135 -198.5t-49 -242.5zM207 731q0 119 46 224.5t126 184.5t185.5 124t226.5 45q119 0 225 -45t185 -124t125 -184.5t46 -224.5 q0 -121 -46 -227.5t-125 -185t-185 -125t-225 -46.5q-121 0 -226.5 46.5t-185.5 125t-126 185t-46 227.5zM330 664l112 -177q346 -80 699 0l110 177h-921zM451 1063l151 -189q4 -4 15.5 -0.5t23.5 9.5t20.5 12t8.5 8q-29 57 -47.5 118.5t-53.5 111.5q-6 8 -26.5 -0.5 t-42 -22.5t-38 -28.5t-11.5 -18.5zM463 457q20 -35 51 -74t73 -70.5t92.5 -53t111.5 -21.5q59 0 110 21.5t92 53t73 70.5t52 74q-164 -43 -326.5 -42t-328.5 42zM715 731h155l-77 187zM918 903q-4 -2 4 -8t19 -12t23.5 -9.5t18.5 0.5l147 189q4 4 -11 18.5t-36.5 28.5 t-42 22.5t-26.5 0.5q-39 -49 -55.5 -110.5t-40.5 -119.5zM1290 102v23h84v-23h-31v-77h-22v77h-31zM1384 25v100h31l19 -78l18 78h29v-100h-19v77l-20 -77h-19l-20 77v-77h-19z" />
<glyph unicode="&#x2014;" d="M68 731q0 150 56 282t154.5 230t230.5 155.5t282 57.5t281.5 -57.5t230 -155.5t156 -230t57.5 -282t-57.5 -282t-156 -230t-230 -155.5t-281.5 -57.5t-282 57.5t-230.5 155.5t-154.5 230.5t-56 281.5zM164 731q0 -129 49 -242.5t135 -199.5t200 -135.5t243 -49.5 q131 0 244.5 49.5t197.5 135.5t133 199.5t49 242.5t-49 242.5t-133 198.5t-197.5 134.5t-244.5 49.5q-129 0 -243 -49.5t-200 -134.5t-135 -198.5t-49 -242.5zM207 731q0 119 46 224.5t126 184.5t185.5 124t226.5 45q119 0 225 -45t185 -124t125 -184.5t46 -224.5 q0 -121 -46 -227.5t-125 -185t-185 -125t-225 -46.5q-121 0 -226.5 46.5t-185.5 125t-126 185t-46 227.5zM330 664l112 -177q346 -80 699 0l110 177h-921zM451 1063l151 -189q4 -4 15.5 -0.5t23.5 9.5t20.5 12t8.5 8q-29 57 -47.5 118.5t-53.5 111.5q-6 8 -26.5 -0.5 t-42 -22.5t-38 -28.5t-11.5 -18.5zM463 457q20 -35 51 -74t73 -70.5t92.5 -53t111.5 -21.5q59 0 110 21.5t92 53t73 70.5t52 74q-164 -43 -326.5 -42t-328.5 42zM715 731h155l-77 187zM918 903q-4 -2 4 -8t19 -12t23.5 -9.5t18.5 0.5l147 189q4 4 -11 18.5t-36.5 28.5 t-42 22.5t-26.5 0.5q-39 -49 -55.5 -110.5t-40.5 -119.5zM1290 102v23h84v-23h-31v-77h-22v77h-31zM1384 25v100h31l19 -78l18 78h29v-100h-19v77l-20 -77h-19l-20 77v-77h-19z" />
<glyph unicode="&#x2018;" d="M68 731q0 150 56 282t154.5 230t230.5 155.5t282 57.5t281.5 -57.5t230 -155.5t156 -230t57.5 -282t-57.5 -282t-156 -230t-230 -155.5t-281.5 -57.5t-282 57.5t-230.5 155.5t-154.5 230.5t-56 281.5zM164 731q0 -129 49 -242.5t135 -199.5t200 -135.5t243 -49.5 q131 0 244.5 49.5t197.5 135.5t133 199.5t49 242.5t-49 242.5t-133 198.5t-197.5 134.5t-244.5 49.5q-129 0 -243 -49.5t-200 -134.5t-135 -198.5t-49 -242.5zM207 731q0 119 46 224.5t126 184.5t185.5 124t226.5 45q119 0 225 -45t185 -124t125 -184.5t46 -224.5 q0 -121 -46 -227.5t-125 -185t-185 -125t-225 -46.5q-121 0 -226.5 46.5t-185.5 125t-126 185t-46 227.5zM330 664l112 -177q346 -80 699 0l110 177h-921zM451 1063l151 -189q4 -4 15.5 -0.5t23.5 9.5t20.5 12t8.5 8q-29 57 -47.5 118.5t-53.5 111.5q-6 8 -26.5 -0.5 t-42 -22.5t-38 -28.5t-11.5 -18.5zM463 457q20 -35 51 -74t73 -70.5t92.5 -53t111.5 -21.5q59 0 110 21.5t92 53t73 70.5t52 74q-164 -43 -326.5 -42t-328.5 42zM715 731h155l-77 187zM918 903q-4 -2 4 -8t19 -12t23.5 -9.5t18.5 0.5l147 189q4 4 -11 18.5t-36.5 28.5 t-42 22.5t-26.5 0.5q-39 -49 -55.5 -110.5t-40.5 -119.5zM1290 102v23h84v-23h-31v-77h-22v77h-31zM1384 25v100h31l19 -78l18 78h29v-100h-19v77l-20 -77h-19l-20 77v-77h-19z" />
<glyph unicode="&#x2019;" d="M68 731q0 150 56 282t154.5 230t230.5 155.5t282 57.5t281.5 -57.5t230 -155.5t156 -230t57.5 -282t-57.5 -282t-156 -230t-230 -155.5t-281.5 -57.5t-282 57.5t-230.5 155.5t-154.5 230.5t-56 281.5zM164 731q0 -129 49 -242.5t135 -199.5t200 -135.5t243 -49.5 q131 0 244.5 49.5t197.5 135.5t133 199.5t49 242.5t-49 242.5t-133 198.5t-197.5 134.5t-244.5 49.5q-129 0 -243 -49.5t-200 -134.5t-135 -198.5t-49 -242.5zM207 731q0 119 46 224.5t126 184.5t185.5 124t226.5 45q119 0 225 -45t185 -124t125 -184.5t46 -224.5 q0 -121 -46 -227.5t-125 -185t-185 -125t-225 -46.5q-121 0 -226.5 46.5t-185.5 125t-126 185t-46 227.5zM330 664l112 -177q346 -80 699 0l110 177h-921zM451 1063l151 -189q4 -4 15.5 -0.5t23.5 9.5t20.5 12t8.5 8q-29 57 -47.5 118.5t-53.5 111.5q-6 8 -26.5 -0.5 t-42 -22.5t-38 -28.5t-11.5 -18.5zM463 457q20 -35 51 -74t73 -70.5t92.5 -53t111.5 -21.5q59 0 110 21.5t92 53t73 70.5t52 74q-164 -43 -326.5 -42t-328.5 42zM715 731h155l-77 187zM918 903q-4 -2 4 -8t19 -12t23.5 -9.5t18.5 0.5l147 189q4 4 -11 18.5t-36.5 28.5 t-42 22.5t-26.5 0.5q-39 -49 -55.5 -110.5t-40.5 -119.5zM1290 102v23h84v-23h-31v-77h-22v77h-31zM1384 25v100h31l19 -78l18 78h29v-100h-19v77l-20 -77h-19l-20 77v-77h-19z" />
<glyph unicode="&#x201a;" d="M68 731q0 150 56 282t154.5 230t230.5 155.5t282 57.5t281.5 -57.5t230 -155.5t156 -230t57.5 -282t-57.5 -282t-156 -230t-230 -155.5t-281.5 -57.5t-282 57.5t-230.5 155.5t-154.5 230.5t-56 281.5zM164 731q0 -129 49 -242.5t135 -199.5t200 -135.5t243 -49.5 q131 0 244.5 49.5t197.5 135.5t133 199.5t49 242.5t-49 242.5t-133 198.5t-197.5 134.5t-244.5 49.5q-129 0 -243 -49.5t-200 -134.5t-135 -198.5t-49 -242.5zM207 731q0 119 46 224.5t126 184.5t185.5 124t226.5 45q119 0 225 -45t185 -124t125 -184.5t46 -224.5 q0 -121 -46 -227.5t-125 -185t-185 -125t-225 -46.5q-121 0 -226.5 46.5t-185.5 125t-126 185t-46 227.5zM330 664l112 -177q346 -80 699 0l110 177h-921zM451 1063l151 -189q4 -4 15.5 -0.5t23.5 9.5t20.5 12t8.5 8q-29 57 -47.5 118.5t-53.5 111.5q-6 8 -26.5 -0.5 t-42 -22.5t-38 -28.5t-11.5 -18.5zM463 457q20 -35 51 -74t73 -70.5t92.5 -53t111.5 -21.5q59 0 110 21.5t92 53t73 70.5t52 74q-164 -43 -326.5 -42t-328.5 42zM715 731h155l-77 187zM918 903q-4 -2 4 -8t19 -12t23.5 -9.5t18.5 0.5l147 189q4 4 -11 18.5t-36.5 28.5 t-42 22.5t-26.5 0.5q-39 -49 -55.5 -110.5t-40.5 -119.5zM1290 102v23h84v-23h-31v-77h-22v77h-31zM1384 25v100h31l19 -78l18 78h29v-100h-19v77l-20 -77h-19l-20 77v-77h-19z" />
<glyph unicode="&#x201c;" d="M68 731q0 150 56 282t154.5 230t230.5 155.5t282 57.5t281.5 -57.5t230 -155.5t156 -230t57.5 -282t-57.5 -282t-156 -230t-230 -155.5t-281.5 -57.5t-282 57.5t-230.5 155.5t-154.5 230.5t-56 281.5zM164 731q0 -129 49 -242.5t135 -199.5t200 -135.5t243 -49.5 q131 0 244.5 49.5t197.5 135.5t133 199.5t49 242.5t-49 242.5t-133 198.5t-197.5 134.5t-244.5 49.5q-129 0 -243 -49.5t-200 -134.5t-135 -198.5t-49 -242.5zM207 731q0 119 46 224.5t126 184.5t185.5 124t226.5 45q119 0 225 -45t185 -124t125 -184.5t46 -224.5 q0 -121 -46 -227.5t-125 -185t-185 -125t-225 -46.5q-121 0 -226.5 46.5t-185.5 125t-126 185t-46 227.5zM330 664l112 -177q346 -80 699 0l110 177h-921zM451 1063l151 -189q4 -4 15.5 -0.5t23.5 9.5t20.5 12t8.5 8q-29 57 -47.5 118.5t-53.5 111.5q-6 8 -26.5 -0.5 t-42 -22.5t-38 -28.5t-11.5 -18.5zM463 457q20 -35 51 -74t73 -70.5t92.5 -53t111.5 -21.5q59 0 110 21.5t92 53t73 70.5t52 74q-164 -43 -326.5 -42t-328.5 42zM715 731h155l-77 187zM918 903q-4 -2 4 -8t19 -12t23.5 -9.5t18.5 0.5l147 189q4 4 -11 18.5t-36.5 28.5 t-42 22.5t-26.5 0.5q-39 -49 -55.5 -110.5t-40.5 -119.5zM1290 102v23h84v-23h-31v-77h-22v77h-31zM1384 25v100h31l19 -78l18 78h29v-100h-19v77l-20 -77h-19l-20 77v-77h-19z" />
<glyph unicode="&#x201d;" d="M68 731q0 150 56 282t154.5 230t230.5 155.5t282 57.5t281.5 -57.5t230 -155.5t156 -230t57.5 -282t-57.5 -282t-156 -230t-230 -155.5t-281.5 -57.5t-282 57.5t-230.5 155.5t-154.5 230.5t-56 281.5zM164 731q0 -129 49 -242.5t135 -199.5t200 -135.5t243 -49.5 q131 0 244.5 49.5t197.5 135.5t133 199.5t49 242.5t-49 242.5t-133 198.5t-197.5 134.5t-244.5 49.5q-129 0 -243 -49.5t-200 -134.5t-135 -198.5t-49 -242.5zM207 731q0 119 46 224.5t126 184.5t185.5 124t226.5 45q119 0 225 -45t185 -124t125 -184.5t46 -224.5 q0 -121 -46 -227.5t-125 -185t-185 -125t-225 -46.5q-121 0 -226.5 46.5t-185.5 125t-126 185t-46 227.5zM330 664l112 -177q346 -80 699 0l110 177h-921zM451 1063l151 -189q4 -4 15.5 -0.5t23.5 9.5t20.5 12t8.5 8q-29 57 -47.5 118.5t-53.5 111.5q-6 8 -26.5 -0.5 t-42 -22.5t-38 -28.5t-11.5 -18.5zM463 457q20 -35 51 -74t73 -70.5t92.5 -53t111.5 -21.5q59 0 110 21.5t92 53t73 70.5t52 74q-164 -43 -326.5 -42t-328.5 42zM715 731h155l-77 187zM918 903q-4 -2 4 -8t19 -12t23.5 -9.5t18.5 0.5l147 189q4 4 -11 18.5t-36.5 28.5 t-42 22.5t-26.5 0.5q-39 -49 -55.5 -110.5t-40.5 -119.5zM1290 102v23h84v-23h-31v-77h-22v77h-31zM1384 25v100h31l19 -78l18 78h29v-100h-19v77l-20 -77h-19l-20 77v-77h-19z" />
<glyph unicode="&#x201e;" d="M68 731q0 150 56 282t154.5 230t230.5 155.5t282 57.5t281.5 -57.5t230 -155.5t156 -230t57.5 -282t-57.5 -282t-156 -230t-230 -155.5t-281.5 -57.5t-282 57.5t-230.5 155.5t-154.5 230.5t-56 281.5zM164 731q0 -129 49 -242.5t135 -199.5t200 -135.5t243 -49.5 q131 0 244.5 49.5t197.5 135.5t133 199.5t49 242.5t-49 242.5t-133 198.5t-197.5 134.5t-244.5 49.5q-129 0 -243 -49.5t-200 -134.5t-135 -198.5t-49 -242.5zM207 731q0 119 46 224.5t126 184.5t185.5 124t226.5 45q119 0 225 -45t185 -124t125 -184.5t46 -224.5 q0 -121 -46 -227.5t-125 -185t-185 -125t-225 -46.5q-121 0 -226.5 46.5t-185.5 125t-126 185t-46 227.5zM330 664l112 -177q346 -80 699 0l110 177h-921zM451 1063l151 -189q4 -4 15.5 -0.5t23.5 9.5t20.5 12t8.5 8q-29 57 -47.5 118.5t-53.5 111.5q-6 8 -26.5 -0.5 t-42 -22.5t-38 -28.5t-11.5 -18.5zM463 457q20 -35 51 -74t73 -70.5t92.5 -53t111.5 -21.5q59 0 110 21.5t92 53t73 70.5t52 74q-164 -43 -326.5 -42t-328.5 42zM715 731h155l-77 187zM918 903q-4 -2 4 -8t19 -12t23.5 -9.5t18.5 0.5l147 189q4 4 -11 18.5t-36.5 28.5 t-42 22.5t-26.5 0.5q-39 -49 -55.5 -110.5t-40.5 -119.5zM1290 102v23h84v-23h-31v-77h-22v77h-31zM1384 25v100h31l19 -78l18 78h29v-100h-19v77l-20 -77h-19l-20 77v-77h-19z" />
<glyph unicode="&#x2022;" d="M68 731q0 150 56 282t154.5 230t230.5 155.5t282 57.5t281.5 -57.5t230 -155.5t156 -230t57.5 -282t-57.5 -282t-156 -230t-230 -155.5t-281.5 -57.5t-282 57.5t-230.5 155.5t-154.5 230.5t-56 281.5zM164 731q0 -129 49 -242.5t135 -199.5t200 -135.5t243 -49.5 q131 0 244.5 49.5t197.5 135.5t133 199.5t49 242.5t-49 242.5t-133 198.5t-197.5 134.5t-244.5 49.5q-129 0 -243 -49.5t-200 -134.5t-135 -198.5t-49 -242.5zM207 731q0 119 46 224.5t126 184.5t185.5 124t226.5 45q119 0 225 -45t185 -124t125 -184.5t46 -224.5 q0 -121 -46 -227.5t-125 -185t-185 -125t-225 -46.5q-121 0 -226.5 46.5t-185.5 125t-126 185t-46 227.5zM330 664l112 -177q346 -80 699 0l110 177h-921zM451 1063l151 -189q4 -4 15.5 -0.5t23.5 9.5t20.5 12t8.5 8q-29 57 -47.5 118.5t-53.5 111.5q-6 8 -26.5 -0.5 t-42 -22.5t-38 -28.5t-11.5 -18.5zM463 457q20 -35 51 -74t73 -70.5t92.5 -53t111.5 -21.5q59 0 110 21.5t92 53t73 70.5t52 74q-164 -43 -326.5 -42t-328.5 42zM715 731h155l-77 187zM918 903q-4 -2 4 -8t19 -12t23.5 -9.5t18.5 0.5l147 189q4 4 -11 18.5t-36.5 28.5 t-42 22.5t-26.5 0.5q-39 -49 -55.5 -110.5t-40.5 -119.5zM1290 102v23h84v-23h-31v-77h-22v77h-31zM1384 25v100h31l19 -78l18 78h29v-100h-19v77l-20 -77h-19l-20 77v-77h-19z" />
<glyph unicode="&#x2026;" d="M68 731q0 150 56 282t154.5 230t230.5 155.5t282 57.5t281.5 -57.5t230 -155.5t156 -230t57.5 -282t-57.5 -282t-156 -230t-230 -155.5t-281.5 -57.5t-282 57.5t-230.5 155.5t-154.5 230.5t-56 281.5zM164 731q0 -129 49 -242.5t135 -199.5t200 -135.5t243 -49.5 q131 0 244.5 49.5t197.5 135.5t133 199.5t49 242.5t-49 242.5t-133 198.5t-197.5 134.5t-244.5 49.5q-129 0 -243 -49.5t-200 -134.5t-135 -198.5t-49 -242.5zM207 731q0 119 46 224.5t126 184.5t185.5 124t226.5 45q119 0 225 -45t185 -124t125 -184.5t46 -224.5 q0 -121 -46 -227.5t-125 -185t-185 -125t-225 -46.5q-121 0 -226.5 46.5t-185.5 125t-126 185t-46 227.5zM330 664l112 -177q346 -80 699 0l110 177h-921zM451 1063l151 -189q4 -4 15.5 -0.5t23.5 9.5t20.5 12t8.5 8q-29 57 -47.5 118.5t-53.5 111.5q-6 8 -26.5 -0.5 t-42 -22.5t-38 -28.5t-11.5 -18.5zM463 457q20 -35 51 -74t73 -70.5t92.5 -53t111.5 -21.5q59 0 110 21.5t92 53t73 70.5t52 74q-164 -43 -326.5 -42t-328.5 42zM715 731h155l-77 187zM918 903q-4 -2 4 -8t19 -12t23.5 -9.5t18.5 0.5l147 189q4 4 -11 18.5t-36.5 28.5 t-42 22.5t-26.5 0.5q-39 -49 -55.5 -110.5t-40.5 -119.5zM1290 102v23h84v-23h-31v-77h-22v77h-31zM1384 25v100h31l19 -78l18 78h29v-100h-19v77l-20 -77h-19l-20 77v-77h-19z" />
<glyph unicode="&#x202f;" horiz-adv-x="316" />
<glyph unicode="&#x2039;" d="M68 731q0 150 56 282t154.5 230t230.5 155.5t282 57.5t281.5 -57.5t230 -155.5t156 -230t57.5 -282t-57.5 -282t-156 -230t-230 -155.5t-281.5 -57.5t-282 57.5t-230.5 155.5t-154.5 230.5t-56 281.5zM164 731q0 -129 49 -242.5t135 -199.5t200 -135.5t243 -49.5 q131 0 244.5 49.5t197.5 135.5t133 199.5t49 242.5t-49 242.5t-133 198.5t-197.5 134.5t-244.5 49.5q-129 0 -243 -49.5t-200 -134.5t-135 -198.5t-49 -242.5zM207 731q0 119 46 224.5t126 184.5t185.5 124t226.5 45q119 0 225 -45t185 -124t125 -184.5t46 -224.5 q0 -121 -46 -227.5t-125 -185t-185 -125t-225 -46.5q-121 0 -226.5 46.5t-185.5 125t-126 185t-46 227.5zM330 664l112 -177q346 -80 699 0l110 177h-921zM451 1063l151 -189q4 -4 15.5 -0.5t23.5 9.5t20.5 12t8.5 8q-29 57 -47.5 118.5t-53.5 111.5q-6 8 -26.5 -0.5 t-42 -22.5t-38 -28.5t-11.5 -18.5zM463 457q20 -35 51 -74t73 -70.5t92.5 -53t111.5 -21.5q59 0 110 21.5t92 53t73 70.5t52 74q-164 -43 -326.5 -42t-328.5 42zM715 731h155l-77 187zM918 903q-4 -2 4 -8t19 -12t23.5 -9.5t18.5 0.5l147 189q4 4 -11 18.5t-36.5 28.5 t-42 22.5t-26.5 0.5q-39 -49 -55.5 -110.5t-40.5 -119.5zM1290 102v23h84v-23h-31v-77h-22v77h-31zM1384 25v100h31l19 -78l18 78h29v-100h-19v77l-20 -77h-19l-20 77v-77h-19z" />
<glyph unicode="&#x203a;" d="M68 731q0 150 56 282t154.5 230t230.5 155.5t282 57.5t281.5 -57.5t230 -155.5t156 -230t57.5 -282t-57.5 -282t-156 -230t-230 -155.5t-281.5 -57.5t-282 57.5t-230.5 155.5t-154.5 230.5t-56 281.5zM164 731q0 -129 49 -242.5t135 -199.5t200 -135.5t243 -49.5 q131 0 244.5 49.5t197.5 135.5t133 199.5t49 242.5t-49 242.5t-133 198.5t-197.5 134.5t-244.5 49.5q-129 0 -243 -49.5t-200 -134.5t-135 -198.5t-49 -242.5zM207 731q0 119 46 224.5t126 184.5t185.5 124t226.5 45q119 0 225 -45t185 -124t125 -184.5t46 -224.5 q0 -121 -46 -227.5t-125 -185t-185 -125t-225 -46.5q-121 0 -226.5 46.5t-185.5 125t-126 185t-46 227.5zM330 664l112 -177q346 -80 699 0l110 177h-921zM451 1063l151 -189q4 -4 15.5 -0.5t23.5 9.5t20.5 12t8.5 8q-29 57 -47.5 118.5t-53.5 111.5q-6 8 -26.5 -0.5 t-42 -22.5t-38 -28.5t-11.5 -18.5zM463 457q20 -35 51 -74t73 -70.5t92.5 -53t111.5 -21.5q59 0 110 21.5t92 53t73 70.5t52 74q-164 -43 -326.5 -42t-328.5 42zM715 731h155l-77 187zM918 903q-4 -2 4 -8t19 -12t23.5 -9.5t18.5 0.5l147 189q4 4 -11 18.5t-36.5 28.5 t-42 22.5t-26.5 0.5q-39 -49 -55.5 -110.5t-40.5 -119.5zM1290 102v23h84v-23h-31v-77h-22v77h-31zM1384 25v100h31l19 -78l18 78h29v-100h-19v77l-20 -77h-19l-20 77v-77h-19z" />
<glyph unicode="&#x205f;" horiz-adv-x="395" />
<glyph unicode="&#x20ac;" d="M68 731q0 150 56 282t154.5 230t230.5 155.5t282 57.5t281.5 -57.5t230 -155.5t156 -230t57.5 -282t-57.5 -282t-156 -230t-230 -155.5t-281.5 -57.5t-282 57.5t-230.5 155.5t-154.5 230.5t-56 281.5zM164 731q0 -129 49 -242.5t135 -199.5t200 -135.5t243 -49.5 q131 0 244.5 49.5t197.5 135.5t133 199.5t49 242.5t-49 242.5t-133 198.5t-197.5 134.5t-244.5 49.5q-129 0 -243 -49.5t-200 -134.5t-135 -198.5t-49 -242.5zM207 731q0 119 46 224.5t126 184.5t185.5 124t226.5 45q119 0 225 -45t185 -124t125 -184.5t46 -224.5 q0 -121 -46 -227.5t-125 -185t-185 -125t-225 -46.5q-121 0 -226.5 46.5t-185.5 125t-126 185t-46 227.5zM330 664l112 -177q346 -80 699 0l110 177h-921zM451 1063l151 -189q4 -4 15.5 -0.5t23.5 9.5t20.5 12t8.5 8q-29 57 -47.5 118.5t-53.5 111.5q-6 8 -26.5 -0.5 t-42 -22.5t-38 -28.5t-11.5 -18.5zM463 457q20 -35 51 -74t73 -70.5t92.5 -53t111.5 -21.5q59 0 110 21.5t92 53t73 70.5t52 74q-164 -43 -326.5 -42t-328.5 42zM715 731h155l-77 187zM918 903q-4 -2 4 -8t19 -12t23.5 -9.5t18.5 0.5l147 189q4 4 -11 18.5t-36.5 28.5 t-42 22.5t-26.5 0.5q-39 -49 -55.5 -110.5t-40.5 -119.5zM1290 102v23h84v-23h-31v-77h-22v77h-31zM1384 25v100h31l19 -78l18 78h29v-100h-19v77l-20 -77h-19l-20 77v-77h-19z" />
<glyph unicode="&#x2122;" d="M68 731q0 150 56 282t154.5 230t230.5 155.5t282 57.5t281.5 -57.5t230 -155.5t156 -230t57.5 -282t-57.5 -282t-156 -230t-230 -155.5t-281.5 -57.5t-282 57.5t-230.5 155.5t-154.5 230.5t-56 281.5zM164 731q0 -129 49 -242.5t135 -199.5t200 -135.5t243 -49.5 q131 0 244.5 49.5t197.5 135.5t133 199.5t49 242.5t-49 242.5t-133 198.5t-197.5 134.5t-244.5 49.5q-129 0 -243 -49.5t-200 -134.5t-135 -198.5t-49 -242.5zM207 731q0 119 46 224.5t126 184.5t185.5 124t226.5 45q119 0 225 -45t185 -124t125 -184.5t46 -224.5 q0 -121 -46 -227.5t-125 -185t-185 -125t-225 -46.5q-121 0 -226.5 46.5t-185.5 125t-126 185t-46 227.5zM330 664l112 -177q346 -80 699 0l110 177h-921zM451 1063l151 -189q4 -4 15.5 -0.5t23.5 9.5t20.5 12t8.5 8q-29 57 -47.5 118.5t-53.5 111.5q-6 8 -26.5 -0.5 t-42 -22.5t-38 -28.5t-11.5 -18.5zM463 457q20 -35 51 -74t73 -70.5t92.5 -53t111.5 -21.5q59 0 110 21.5t92 53t73 70.5t52 74q-164 -43 -326.5 -42t-328.5 42zM715 731h155l-77 187zM918 903q-4 -2 4 -8t19 -12t23.5 -9.5t18.5 0.5l147 189q4 4 -11 18.5t-36.5 28.5 t-42 22.5t-26.5 0.5q-39 -49 -55.5 -110.5t-40.5 -119.5zM1290 102v23h84v-23h-31v-77h-22v77h-31zM1384 25v100h31l19 -78l18 78h29v-100h-19v77l-20 -77h-19l-20 77v-77h-19z" />
<glyph unicode="&#xe000;" horiz-adv-x="1536" d="M0 0v1536h1536v-1536h-1536z" />
</font>
</defs>
</svg>
